<?xml version="1.0" encoding="utf-8" standalone="no" ?>
<svg
xmlns="http://www.w3.org/2000/svg"
width="259.722229"
height="280.500000"
>
<title>Fortran Logo</title>
<desc>Generated by Fortran Logo Generator</desc>
<pattern
id="diagonalFill"
width="5.000000"
height="2.000000"
patternUnits="userSpaceOnUse"
patternTransform="rotate(45)"
>
<rect
x=".000000"
y=".000000"
width="1.000000"
height="1.000000"
fill="#6d5192"
/>
</pattern>
<line
stroke="#6d5192"
x1="31.805557"
y1="267.750000"
x2="31.805557"
y2="12.750000"
stroke-dasharray="2 2"
stroke-width=".000000"
/>
<line
stroke="#6d5192"
x1="11.805557"
y1="247.750000"
x2="247.916672"
y2="247.750000"
stroke-dasharray="2 2"
stroke-width=".000000"
/>
<line
stroke="#6d5192"
x1="51.416672"
y1="267.750000"
x2="51.416672"
y2="12.750000"
stroke-dasharray="2 2"
stroke-width=".000000"
/>
<line
stroke="#6d5192"
x1="11.805557"
y1="223.024994"
x2="247.916672"
y2="223.024994"
stroke-dasharray="2 2"
stroke-width=".000000"
/>
<line
stroke="#6d5192"
x1="65.144447"
y1="267.750000"
x2="65.144447"
y2="12.750000"
stroke-dasharray="2 2"
stroke-width=".000000"
/>
<line
stroke="#6d5192"
x1="11.805557"
y1="209.050003"
x2="247.916672"
y2="209.050003"
stroke-dasharray="2 2"
stroke-width=".000000"
/>
<line
stroke="#6d5192"
x1="227.916672"
y1="267.750000"
x2="227.916672"
y2="12.750000"
stroke-dasharray="2 2"
stroke-width=".000000"
/>
<line
stroke="#6d5192"
x1="11.805557"
y1="32.750000"
x2="247.916672"
y2="32.750000"
stroke-dasharray="2 2"
stroke-width=".000000"
/>
<line
stroke="#6d5192"
x1="202.422226"
y1="267.750000"
x2="202.422226"
y2="12.750000"
stroke-dasharray="2 2"
stroke-width=".000000"
/>
<line
stroke="#6d5192"
x1="11.805557"
y1="121.975006"
x2="247.916672"
y2="121.975006"
stroke-dasharray="2 2"
stroke-width=".000000"
/>
<line
stroke="#6d5192"
x1="163.200012"
y1="267.750000"
x2="163.200012"
y2="12.750000"
stroke-dasharray="2 2"
stroke-width=".000000"
/>
<line
stroke="#6d5192"
x1="11.805557"
y1="57.475006"
x2="247.916672"
y2="57.475006"
stroke-dasharray="2 2"
stroke-width=".000000"
/>
<line
stroke="#6d5192"
x1="118.094444"
y1="267.750000"
x2="118.094444"
y2="12.750000"
stroke-dasharray="2 2"
stroke-width=".000000"
/>
<line
stroke="#6d5192"
x1="11.805557"
y1="121.975006"
x2="247.916672"
y2="121.975006"
stroke-dasharray="2 2"
stroke-width=".000000"
/>
<line
stroke="#6d5192"
x1="148.099457"
y1="267.750000"
x2="148.099457"
y2="12.750000"
stroke-dasharray="2 2"
stroke-width=".000000"
/>
<line
stroke="#6d5192"
x1="11.805557"
y1="88.649994"
x2="247.916672"
y2="88.649994"
stroke-dasharray="2 2"
stroke-width=".000000"
/>
<line
stroke="#6d5192"
x1="173.005569"
y1="267.750000"
x2="173.005569"
y2="12.750000"
stroke-dasharray="2 2"
stroke-width=".000000"
/>
<line
stroke="#6d5192"
x1="11.805557"
y1="77.899994"
x2="247.916672"
y2="77.899994"
stroke-dasharray="2 2"
stroke-width=".000000"
/>
<line
stroke="#6d5192"
x1="87.305000"
y1="267.750000"
x2="87.305000"
y2="12.750000"
stroke-dasharray="2 2"
stroke-width=".000000"
/>
<line
stroke="#6d5192"
x1="11.805557"
y1="135.089996"
x2="247.916672"
y2="135.089996"
stroke-dasharray="2 2"
stroke-width=".000000"
/>
<line
stroke="#6d5192"
x1="11.805557"
y1="267.750000"
x2="11.805557"
y2="12.750000"
stroke-dasharray="2 2"
stroke-width=".000000"
/>
<line
stroke="#6d5192"
x1="11.805557"
y1="12.750000"
x2="247.916672"
y2="12.750000"
stroke-dasharray="2 2"
stroke-width=".000000"
/>
<line
stroke="#6d5192"
x1="247.916672"
y1="12.750000"
x2="247.916672"
y2="267.750000"
stroke-dasharray="2 2"
stroke-width=".000000"
/>
<line
stroke="#6d5192"
x1="247.916672"
y1="267.750000"
x2="11.805557"
y2="267.750000"
stroke-dasharray="2 2"
stroke-width=".000000"
/>
<path
fill="url(#diagonalFill)"
stroke="#6d5192"
stroke-width="1.000000"
d="
M   109.465553   150.260559
L   109.486115   149.869995
L   109.547775   149.520554
L   109.650551   149.212219
L   109.794441   148.945007
L   109.979446   148.718887
L   110.205551   148.533890
L   110.472778   148.389999
L   110.781113   148.287231
L   111.130554   148.225555
L   111.521111   148.205002
L   118.094444   148.205002
L   118.691544   148.208328
L   119.282639   148.218338
L   119.867737   148.235001
L   120.446838   148.258316
L   121.019936   148.288315
L   121.587029   148.324966
L   122.148117   148.368286
L   122.703217   148.418289
L   123.252304   148.474930
L   123.795395   148.538254
L   124.332489   148.608231
L   124.863571   148.684875
L   125.388664   148.768188
L   125.907745   148.858170
L   126.420830   148.954819
L   126.927917   149.058121
L   127.429001   149.168091
L   127.924088   149.284729
L   128.413162   149.408035
L   128.896240   149.537994
L   129.373322   149.674637
L   129.844406   149.817932
L   130.309479   149.967896
L   130.768555   150.124527
L   131.221634   150.287811
L   131.668701   150.457779
L   132.109787   150.634399
L   132.544861   150.817688
L   132.973923   151.007629
L   133.397003   151.204254
L   133.814072   151.407532
L   134.225128   151.617477
L   134.630203   151.834091
L   135.029266   152.057373
L   135.422333   152.287323
L   135.809402   152.523926
L   136.190460   152.767197
L   136.565521   153.017136
L   136.934586   153.273743
L   137.297653   153.537003
L   137.654709   153.806946
L   138.005768   154.083527
L   138.350830   154.366791
L   138.689880   154.656723
L   139.022934   154.953308
L   139.349991   155.256577
L   139.671051   155.566498
L   139.986099   155.883087
L   140.295151   156.206329
L   140.598206   156.536255
L   140.895248   156.872833
L   141.186295   157.216080
L   141.471344   157.565994
L   141.750397   157.922577
L   142.023438   158.285812
L   142.290482   158.655731
L   142.551529   159.032303
L   142.806564   159.415527
L   143.055603   159.805435
L   143.298645   160.202011
L   143.535690   160.605240
L   143.766724   161.015137
L   143.991760   161.431702
L   144.210800   161.854919
L   144.423828   162.284821
L   144.630875   162.721375
L   144.831909   163.164597
L   145.026932   163.614487
L   145.215973   164.071045
L   145.399002   164.534256
L   145.576035   165.004135
L   145.747055   165.480682
L   145.912079   165.963898
L   146.071106   166.453781
L   146.224136   166.950317
L   146.371155   167.453522
L   146.512177   167.963409
L   146.647202   168.479935
L   146.776230   169.003143
L   146.899246   169.533005
L   147.016266   170.069550
L   147.127289   170.612732
L   147.232300   171.162598
L   147.331329   171.719131
L   147.424332   172.282318
L   147.511353   172.852173
L   147.592361   173.428711
L   147.667374   174.011902
L   147.736389   174.601746
L   147.799393   175.198257
L   147.856415   175.801437
L   147.907410   176.411285
L   147.952423   177.027802
L   147.991425   177.650986
L   148.024445   178.280823
L   148.051437   178.917328
L   148.072449   179.560501
L   148.087448   180.210342
L   148.096451   180.866852
L   148.099457   181.530014
L   148.099457   190.224457
L   148.119995   190.615005
L   148.181671   190.964462
L   148.284454   191.272797
L   148.428345   191.540009
L   148.613342   191.766129
L   148.839447   191.951126
L   149.106674   192.095016
L   149.415009   192.197784
L   149.764450   192.259460
L   150.154999   192.280014
L   170.950012   192.280014
L   171.340576   192.259460
L   171.690018   192.197800
L   171.998352   192.095016
L   172.265564   191.951126
L   172.491684   191.766129
L   172.676682   191.540009
L   172.820572   191.272797
L   172.923340   190.964462
L   172.985016   190.615021
L   173.005569   190.224457
L   173.005569    85.330551
L   172.985016    84.939995
L   172.923340    84.590546
L   172.820572    84.282219
L   172.676682    84.014999
L   172.491684    83.788879
L   172.265564    83.603882
L   171.998352    83.459991
L   171.690018    83.357208
L   171.340576    83.295555
L   170.950012    83.274994
L   150.154999    83.274994
L   149.764450    83.295547
L   149.415009    83.357216
L   149.106674    83.459991
L   148.839447    83.603882
L   148.613342    83.788879
L   148.428345    84.014992
L   148.284454    84.282211
L   148.181671    84.590546
L   148.119995    84.940002
L   148.099457    85.330551
L   148.099457    88.649994
L   148.096451    89.313164
L   148.087448    89.969666
L   148.072449    90.619507
L   148.051437    91.262672
L   148.024445    91.899185
L   147.991425    92.529022
L   147.952423    93.152206
L   147.907410    93.768723
L   147.856415    94.378571
L   147.799393    94.981750
L   147.736389    95.578262
L   147.667374    96.168114
L   147.592361    96.751305
L   147.511353    97.327827
L   147.424332    97.897690
L   147.331329    98.460876
L   147.232300    99.017403
L   147.127289    99.567268
L   147.016266   100.110466
L   146.899246   100.647003
L   146.776230   101.176865
L   146.647202   101.700073
L   146.512177   102.216606
L   146.371155   102.726479
L   146.224136   103.229691
L   146.071106   103.726227
L   145.912079   104.216110
L   145.747055   104.699326
L   145.576035   105.175873
L   145.399002   105.645752
L   145.215973   106.108963
L   145.026932   106.565521
L   144.831909   107.015411
L   144.630875   107.458633
L   144.423828   107.895187
L   144.210800   108.325081
L   143.991760   108.748306
L   143.766724   109.164871
L   143.535690   109.574768
L   143.298645   109.978004
L   143.055603   110.374573
L   142.806564   110.764473
L   142.551529   111.147705
L   142.290482   111.524284
L   142.023438   111.894196
L   141.750397   112.257431
L   141.471344   112.614014
L   141.186295   112.963921
L   140.895248   113.307175
L   140.598206   113.643753
L   140.295151   113.973671
L   139.986099   114.296921
L   139.671051   114.613510
L   139.349991   114.923431
L   139.022934   115.226692
L   138.689880   115.523285
L   138.350830   115.813210
L   138.005768   116.096474
L   137.654709   116.373070
L   137.297653   116.643005
L   136.934586   116.906273
L   136.565521   117.162872
L   136.190460   117.412811
L   135.809402   117.656082
L   135.422333   117.892693
L   135.029266   118.122635
L   134.630203   118.345917
L   134.225128   118.562523
L   133.814072   118.772476
L   133.397003   118.975754
L   132.973923   119.172371
L   132.544861   119.362320
L   132.109787   119.545609
L   131.668701   119.722237
L   131.221634   119.892197
L   130.768555   120.055481
L   130.309479   120.212112
L   129.844406   120.362076
L   129.373322   120.505371
L   128.896240   120.642006
L   128.413162   120.771973
L   127.924088   120.895279
L   127.429001   121.011917
L   126.927917   121.121887
L   126.420830   121.225189
L   125.907745   121.321838
L   125.388664   121.411812
L   124.863571   121.495125
L   124.332489   121.571777
L   123.795395   121.641754
L   123.252304   121.705078
L   122.703217   121.761726
L   122.148117   121.811714
L   121.587029   121.855034
L   121.019936   121.891693
L   120.446838   121.921692
L   119.867737   121.945015
L   119.282639   121.961678
L   118.691544   121.971672
L   118.094444   121.975006
L   111.521111   121.975006
L   111.130554   121.954453
L   110.781113   121.892784
L   110.472778   121.790009
L   110.205551   121.646118
L   109.979446   121.461121
L   109.794441   121.235001
L   109.650551   120.967789
L   109.547775   120.659454
L   109.486115   120.310005
L   109.465553   119.919449
L   109.465553    59.530563
L   109.486107    59.140007
L   109.547775    58.790558
L   109.650551    58.482231
L   109.794441    58.215012
L   109.979446    57.988892
L   110.205551    57.803894
L   110.472778    57.660011
L   110.781113    57.557220
L   111.130554    57.495567
L   111.521111    57.475006
L   163.200012    57.475006
L   163.980530    57.481255
L   164.753220    57.499977
L   165.518051    57.531204
L   166.275040    57.574921
L   167.024170    57.631119
L   167.765472    57.699806
L   168.498932    57.780983
L   169.224548    57.874657
L   169.942322    57.980804
L   170.652237    58.099457
L   171.354309    58.230583
L   172.048553    58.374207
L   172.734924    58.530319
L   173.413483    58.698914
L   174.084183    58.880005
L   174.747040    59.073586
L   175.402039    59.279648
L   176.049210    59.498199
L   176.688538    59.729256
L   177.320007    59.972786
L   177.943634    60.228806
L   178.559433    60.497314
L   179.167389    60.778320
L   179.767471    61.071808
L   180.359741    61.377777
L   180.944138    61.696243
L   181.520706    62.027206
L   182.089432    62.370651
L   182.650314    62.726578
L   183.203339    63.095001
L   183.748535    63.475914
L   184.285873    63.869316
L   184.815369    64.275208
L   185.337036    64.693588
L   185.850845    65.124451
L   186.356812    65.567810
L   186.854935    66.023651
L   187.345215    66.491989
L   187.827637    66.972801
L   188.302231    67.466118
L   188.768982    67.971916
L   189.227875    68.490211
L   189.678925    69.020988
L   190.122131    69.564255
L   190.557510    70.120010
L   190.985031    70.688255
L   191.404709    71.268982
L   191.816544    71.862206
L   192.220535    72.467918
L   192.616669    73.086121
L   193.004974    73.716812
L   193.385422    74.359985
L   193.758026    75.015656
L   194.122803    75.683807
L   194.479736    76.364456
L   194.828796    77.057587
L   195.170044    77.763206
L   195.503433    78.481308
L   195.828979    79.211914
L   196.146667    79.955009
L   196.456528    80.710587
L   196.758545    81.478653
L   197.052704    82.259201
L   197.339020    83.052254
L   197.617493    83.857788
L   197.888123    84.675812
L   198.150940    85.506317
L   198.405869    86.349319
L   198.652969    87.204803
L   198.892242    88.072784
L   199.123642    88.953247
L   199.347198    89.846207
L   199.562927    90.751656
L   199.770813    91.669586
L   199.970825    92.600006
L   200.163025    93.542923
L   200.347366    94.498322
L   200.523865    95.466209
L   200.692535    96.446587
L   200.853333    97.439453
L   201.006302    98.444809
L   201.151428    99.462654
L   201.288696   100.492981
L   201.418152   101.535805
L   201.539719   102.591118
L   201.653473   103.658920
L   201.759369   104.739204
L   201.857422   105.831985
L   201.947632   106.937256
L   202.029999   108.055008
L   202.104523   109.185249
L   202.171204   110.327980
L   202.230042   111.483208
L   202.281021   112.650917
L   202.324158   113.831116
L   202.359467   115.023804
L   202.386932   116.228981
L   202.406555   117.446648
L   202.418304   118.676804
L   202.422226   119.919449
L   202.422226   119.919449
L   202.442780   120.310005
L   202.504456   120.659454
L   202.607224   120.967789
L   202.751114   121.235008
L   202.936111   121.461121
L   203.162231   121.646118
L   203.429443   121.790009
L   203.737793   121.892784
L   204.087219   121.954453
L   204.477783   121.975006
L   225.861115   121.975006
L   226.251678   121.954453
L   226.601120   121.892784
L   226.909454   121.790009
L   227.176666   121.646118
L   227.402786   121.461121
L   227.587784   121.235001
L   227.731674   120.967789
L   227.834457   120.659454
L   227.896118   120.310005
L   227.916672   119.919449
L   227.916672    34.805557
L   227.896118    34.415001
L   227.834457    34.065552
L   227.731674    33.757225
L   227.587784    33.490005
L   227.402786    33.263885
L   227.176666    33.078888
L   226.909439    32.935005
L   226.601120    32.832214
L   226.251663    32.770561
L   225.861115    32.750000
L    65.144447    32.750000
L    33.861115    32.750000
L    33.470566    32.770561
L    33.121109    32.832214
L    32.812790    32.935005
L    32.545555    33.078888
L    32.319443    33.263885
L    32.134445    33.490005
L    31.990555    33.757225
L    31.887772    34.065552
L    31.826111    34.415001
L    31.805557    34.805557
L    31.805557    55.419441
L    31.826118    55.810005
L    31.887772    56.159439
L    31.990555    56.467773
L    32.134445    56.734993
L    32.319443    56.961113
L    32.545563    57.146111
L    32.812782    57.289993
L    33.121109    57.392776
L    33.470551    57.454437
L    33.861115    57.474998
L    51.416672    57.474998
L    51.689857    57.476387
L    51.960289    57.480583
L    52.227982    57.487572
L    52.492935    57.497368
L    52.755142    57.509941
L    53.014587    57.525307
L    53.271301    57.543480
L    53.525261    57.564438
L    53.776466    57.588188
L    54.024956    57.614754
L    54.270683    57.644096
L    54.513657    57.676239
L    54.753891    57.711174
L    54.991386    57.748909
L    55.226128    57.789436
L    55.458122    57.832748
L    55.687378    57.878876
L    55.913895    57.927795
L    56.137657    57.979500
L    56.358665    58.033997
L    56.576942    58.091293
L    56.792473    58.151398
L    57.005257    58.214279
L    57.215286    58.279961
L    57.422569    58.348434
L    57.627113    58.419708
L    57.828911    58.493774
L    58.027969    58.570633
L    58.224274    58.650291
L    58.417831    58.732742
L    58.608658    58.817993
L    58.796722    58.906036
L    58.982048    58.996880
L    59.164635    59.090515
L    59.344467    59.186943
L    59.521553    59.286156
L    59.695892    59.388176
L    59.867493    59.492989
L    60.036339    59.600594
L    60.202446    59.710999
L    60.365799    59.824188
L    60.526413    59.940178
L    60.684288    60.058968
L    60.839417    60.180565
L    60.991791    60.304939
L    61.141426    60.432114
L    61.288322    60.562080
L    61.432465    60.694839
L    61.573860    60.830399
L    61.712502    60.968750
L    61.848412    61.109894
L    61.981567    61.253838
L    62.111984    61.400574
L    62.239647    61.550110
L    62.364571    61.702438
L    62.486755    61.857559
L    62.606178    62.015480
L    62.722870    62.176186
L    62.836807    62.339691
L    62.948006    62.505997
L    63.056458    62.675095
L    63.162155    62.846992
L    63.265114    63.021675
L    63.365326    63.199158
L    63.462799    63.379433
L    63.557518    63.562508
L    63.649490    63.748375
L    63.738724    63.937042
L    63.825203    64.128494
L    63.908951    64.322746
L    63.989944    64.519791
L    64.068192    64.719635
L    64.143692    64.922272
L    64.216446    65.127701
L    64.286461    65.335938
L    64.353729    65.546959
L    64.418243    65.760773
L    64.480026    65.977386
L    64.539047    66.196793
L    64.595337    66.418999
L    64.648872    66.643997
L    64.699669    66.871780
L    64.747711    67.102371
L    64.793015    67.335754
L    64.835571    67.571930
L    64.875381    67.810905
L    64.912445    68.052673
L    64.946762    68.297241
L    64.978340    68.544594
L    65.007172    68.794746
L    65.033249    69.047691
L    65.056595    69.303436
L    65.077179    69.561974
L    65.095024    69.823303
L    65.110130    70.087433
L    65.122482    70.354355
L    65.132088    70.624077
L    65.138954    70.896591
L    65.143074    71.171890
L    65.144447    71.449997
L    65.144447   209.050003
L    65.143074   209.328110
L    65.138954   209.603409
L    65.132088   209.875916
L    65.122482   210.145645
L    65.110130   210.412567
L    65.095024   210.676697
L    65.077179   210.938019
L    65.056595   211.196564
L    65.033249   211.452301
L    65.007172   211.705261
L    64.978340   211.955414
L    64.946762   212.202759
L    64.912445   212.447327
L    64.875381   212.689087
L    64.835571   212.928070
L    64.793015   213.164246
L    64.747711   213.397629
L    64.699669   213.628220
L    64.648872   213.856003
L    64.595337   214.080994
L    64.539047   214.303207
L    64.480026   214.522614
L    64.418243   214.739227
L    64.353729   214.953033
L    64.286461   215.164062
L    64.216446   215.372299
L    64.143692   215.577728
L    64.068192   215.780365
L    63.989944   215.980209
L    63.908951   216.177246
L    63.825203   216.371506
L    63.738724   216.562958
L    63.649490   216.751617
L    63.557518   216.937500
L    63.462799   217.120575
L    63.365326   217.300842
L    63.265114   217.478333
L    63.162155   217.653015
L    63.056458   217.824905
L    62.948006   217.994003
L    62.836807   218.160309
L    62.722870   218.323822
L    62.606178   218.484528
L    62.486755   218.642441
L    62.364571   218.797562
L    62.239647   218.949890
L    62.111984   219.099426
L    61.981567   219.246155
L    61.848412   219.390106
L    61.712502   219.531250
L    61.573860   219.669601
L    61.432465   219.805161
L    61.288322   219.937927
L    61.141426   220.067886
L    60.991791   220.195068
L    60.839417   220.319427
L    60.684288   220.441040
L    60.526413   220.559814
L    60.365799   220.675812
L    60.202446   220.789001
L    60.036339   220.899414
L    59.867493   221.007019
L    59.695892   221.111816
L    59.521553   221.213837
L    59.344467   221.313049
L    59.164635   221.409485
L    58.982048   221.503113
L    58.796722   221.593964
L    58.608658   221.682007
L    58.417831   221.767258
L    58.224274   221.849701
L    58.027969   221.929367
L    57.828911   222.006226
L    57.627113   222.080292
L    57.422569   222.151566
L    57.215286   222.220032
L    57.005257   222.285721
L    56.792473   222.348602
L    56.576942   222.408707
L    56.358665   222.466003
L    56.137657   222.520508
L    55.913895   222.572205
L    55.687378   222.621124
L    55.458122   222.667252
L    55.226128   222.710571
L    54.991386   222.751099
L    54.753891   222.788818
L    54.513657   222.823761
L    54.270683   222.855896
L    54.024956   222.885254
L    53.776466   222.911804
L    53.525261   222.935562
L    53.271301   222.956512
L    53.014587   222.974701
L    52.755142   222.990051
L    52.492935   223.002625
L    52.227982   223.012421
L    51.960289   223.019409
L    51.689857   223.023621
L    51.416672   223.024994
L    33.861115   223.024994
L    33.470551   223.045563
L    33.121109   223.107224
L    32.812782   223.210007
L    32.545563   223.353882
L    32.319443   223.538879
L    32.134445   223.765015
L    31.990555   224.032227
L    31.887772   224.340561
L    31.826118   224.690002
L    31.805557   225.080566
L    31.805557   245.694443
L    31.826111   246.084991
L    31.887772   246.434448
L    31.990555   246.742767
L    32.134445   247.009995
L    32.319443   247.236115
L    32.545555   247.421112
L    32.812790   247.565002
L    33.121109   247.667786
L    33.470566   247.729431
L    33.861115   247.750000
L    65.144447   247.750000
L   109.465553   247.750000
L   143.973877   247.750000
L   144.364441   247.729431
L   144.713898   247.667786
L   145.022217   247.565002
L   145.289444   247.421112
L   145.515564   247.236115
L   145.700562   247.009995
L   145.844452   246.742767
L   145.947235   246.434448
L   146.008881   246.084991
L   146.029449   245.694443
L   146.029449   225.080566
L   146.008881   224.690002
L   145.947235   224.340561
L   145.844452   224.032227
L   145.700562   223.765015
L   145.515564   223.538879
L   145.289429   223.353882
L   145.022217   223.210007
L   144.713898   223.107224
L   144.364441   223.045563
L   143.973877   223.024994
L   123.193329   223.024994
L   122.920143   223.023621
L   122.649712   223.019409
L   122.382019   223.012421
L   122.117065   223.002625
L   121.854858   222.990051
L   121.595413   222.974701
L   121.338699   222.956512
L   121.084740   222.935562
L   120.833534   222.911804
L   120.585045   222.885254
L   120.339317   222.855896
L   120.096344   222.823761
L   119.856110   222.788818
L   119.618614   222.751099
L   119.383873   222.710571
L   119.151878   222.667252
L   118.922623   222.621124
L   118.696106   222.572205
L   118.472343   222.520508
L   118.251335   222.466003
L   118.033058   222.408707
L   117.817528   222.348602
L   117.604744   222.285721
L   117.394714   222.220032
L   117.187431   222.151566
L   116.982887   222.080292
L   116.781090   222.006226
L   116.582031   221.929367
L   116.385727   221.849701
L   116.192169   221.767258
L   116.001343   221.682007
L   115.813278   221.593964
L   115.627953   221.503113
L   115.445366   221.409485
L   115.265533   221.313049
L   115.088448   221.213837
L   114.914108   221.111816
L   114.742508   221.007019
L   114.573662   220.899414
L   114.407555   220.789001
L   114.244202   220.675812
L   114.083588   220.559814
L   113.925713   220.441040
L   113.770584   220.319427
L   113.618210   220.195068
L   113.468575   220.067886
L   113.321678   219.937927
L   113.177536   219.805161
L   113.036140   219.669601
L   112.897499   219.531250
L   112.761589   219.390106
L   112.628433   219.246155
L   112.498016   219.099426
L   112.370354   218.949890
L   112.245430   218.797562
L   112.123245   218.642441
L   112.003822   218.484528
L   111.887131   218.323822
L   111.773193   218.160309
L   111.661995   217.994003
L   111.553543   217.824905
L   111.447845   217.653015
L   111.344887   217.478333
L   111.244675   217.300842
L   111.147202   217.120575
L   111.052483   216.937500
L   110.960510   216.751617
L   110.871277   216.562958
L   110.784798   216.371506
L   110.701050   216.177246
L   110.620056   215.980209
L   110.541809   215.780365
L   110.466309   215.577728
L   110.393555   215.372299
L   110.323540   215.164062
L   110.256271   214.953033
L   110.191757   214.739227
L   110.129974   214.522614
L   110.070953   214.303207
L   110.014664   214.080994
L   109.961128   213.856003
L   109.910332   213.628220
L   109.862289   213.397629
L   109.816986   213.164246
L   109.774429   212.928070
L   109.734619   212.689087
L   109.697556   212.447327
L   109.663239   212.202759
L   109.631660   211.955414
L   109.602829   211.705261
L   109.576752   211.452301
L   109.553406   211.196564
L   109.532822   210.938019
L   109.514977   210.676697
L   109.499870   210.412567
L   109.487518   210.145645
L   109.477913   209.875916
L   109.471046   209.603409
L   109.466927   209.328110
L   109.465553   209.050003 z
M    41.805557   267.750000
L    41.208557   267.747009
L    40.617554   267.738007
L    40.032555   267.723022
L    39.453560   267.701996
L    38.880562   267.674988
L    38.313553   267.641998
L    37.752556   267.602997
L    37.197556   267.557983
L    36.648552   267.507019
L    36.105560   267.449982
L    35.568565   267.386993
L    35.037560   267.317993
L    34.512550   267.243011
L    33.993553   267.162018
L    33.480553   267.075012
L    32.973549   266.981995
L    32.472557   266.882996
L    31.977562   266.778015
L    31.488564   266.666992
L    31.005554   266.550018
L    30.528549   266.427002
L    30.057564   266.298004
L    29.592560   266.162994
L    29.133560   266.021973
L    28.680557   265.875000
L    28.233559   265.721985
L    27.792557   265.562988
L    27.357552   265.398010
L    26.928551   265.226990
L    26.505554   265.050018
L    26.088562   264.867004
L    25.677551   264.678009
L    25.272568   264.483002
L    24.873558   264.281982
L    24.480560   264.074982
L    24.093567   263.862000
L    23.712563   263.643005
L    23.337555   263.417999
L    22.968559   263.187012
L    22.605560   262.950012
L    22.248550   262.707001
L    21.897552   262.458008
L    21.552559   262.203003
L    21.213547   261.942017
L    20.880554   261.674988
L    20.553558   261.401978
L    20.232559   261.122986
L    19.917557   260.837982
L    19.608566   260.546997
L    19.305557   260.250000
L    19.008568   259.946991
L    18.717560   259.638000
L    18.432556   259.322998
L    18.153557   259.002014
L    17.880554   258.674988
L    17.613556   258.341980
L    17.352554   258.002991
L    17.097565   257.657990
L    16.848557   257.307007
L    16.605560   256.950012
L    16.368561   256.587006
L    16.137558   256.218018
L    15.912552   255.843002
L    15.693558   255.462006
L    15.480560   255.074997
L    15.273560   254.682007
L    15.072556   254.283005
L    14.877556   253.878006
L    14.688560   253.466995
L    14.505554   253.050003
L    14.328560   252.626999
L    14.157555   252.197998
L    13.992569   251.763000
L    13.833557   251.321991
L    13.680557   250.875000
L    13.533554   250.421997
L    13.392555   249.962997
L    13.257568   249.498001
L    13.128571   249.027008
L    13.005554   248.550003
L    12.888565   248.067001
L    12.777557   247.578003
L    12.672546   247.082993
L    12.573555   246.582001
L    12.480553   246.075012
L    12.393555   245.562012
L    12.312553   245.042999
L    12.237549   244.518005
L    12.168564   243.987000
L    12.105560   243.449997
L    12.048553   242.907013
L    11.997559   242.358002
L    11.952560   241.803009
L    11.913559   241.242004
L    11.880562   240.674988
L    11.853554   240.102005
L    11.832558   239.523010
L    11.817558   238.938004
L    11.808548   238.347000
L    11.805557   237.750000
L    11.805557    42.750000
L    11.808556    42.153000
L    11.817551    41.561989
L    11.832558    40.976990
L    11.853554    40.398003
L    11.880562    39.825005
L    11.913559    39.258003
L    11.952560    38.696999
L    11.997559    38.141998
L    12.048553    37.592995
L    12.105568    37.050011
L    12.168564    36.513008
L    12.237556    35.982002
L    12.312553    35.457001
L    12.393555    34.937996
L    12.480560    34.424995
L    12.573555    33.917992
L    12.672554    33.417000
L    12.777565    32.922005
L    12.888565    32.432999
L    13.005547    31.949997
L    13.128563    31.473000
L    13.257568    31.002007
L    13.392563    30.537003
L    13.533562    30.077995
L    13.680557    29.625000
L    13.833565    29.177994
L    13.992554    28.737007
L    14.157555    28.301987
L    14.328552    27.873001
L    14.505539    27.449989
L    14.688553    27.033005
L    14.877548    26.621994
L    15.072563    26.217003
L    15.273567    25.818008
L    15.480568    25.425011
L    15.693558    25.038010
L    15.912552    24.657005
L    16.137558    24.281998
L    16.368561    23.913002
L    16.605553    23.550003
L    16.848557    23.192993
L    17.097549    22.841995
L    17.352547    22.496994
L    17.613556    22.157997
L    17.880554    21.825005
L    18.153557    21.498001
L    18.432556    21.177010
L    18.717560    20.862007
L    19.008568    20.553009
L    19.305557    20.250000
L    19.608566    19.953003
L    19.917564    19.662003
L    20.232559    19.376999
L    20.553558    19.098000
L    20.880554    18.824997
L    21.213547    18.557999
L    21.552551    18.296997
L    21.897560    18.042007
L    22.248558    17.792999
L    22.605560    17.550003
L    22.968552    17.313004
L    23.337555    17.082001
L    23.712563    16.857002
L    24.093552    16.638000
L    24.480560    16.425003
L    24.873550    16.218002
L    25.272552    16.016998
L    25.677551    15.821999
L    26.088562    15.632996
L    26.505554    15.449997
L    26.928558    15.272995
L    27.357559    15.102005
L    27.792557    14.937004
L    28.233551    14.778000
L    28.680557    14.625000
L    29.133560    14.477997
L    29.592560    14.336998
L    30.057556    14.202003
L    30.528557    14.073006
L    31.005554    13.949997
L    31.488556    13.833008
L    31.977554    13.721992
L    32.472549    13.617004
L    32.973557    13.517990
L    33.480553    13.424995
L    33.993553    13.337997
L    34.512558    13.256996
L    35.037552    13.181999
L    35.568558    13.113007
L    36.105560    13.050003
L    36.648560    12.992996
L    37.197556    12.942001
L    37.752563    12.897003
L    38.313553    12.858002
L    38.880554    12.824997
L    39.453552    12.797997
L    40.032555    12.777000
L    40.617554    12.762001
L    41.208549    12.752998
L    41.805557    12.750000
L   217.916672    12.750000
L   218.513672    12.752998
L   219.104675    12.761993
L   219.689667    12.776993
L   220.268677    12.798004
L   220.841675    12.825005
L   221.408676    12.858009
L   221.969666    12.896996
L   222.524673    12.942001
L   223.073669    12.992996
L   223.616669    13.050011
L   224.153656    13.113007
L   224.684662    13.181999
L   225.209686    13.256996
L   225.728668    13.337990
L   226.241669    13.424995
L   226.748688    13.517990
L   227.249664    13.617004
L   227.744659    13.722000
L   228.233673    13.833000
L   228.716675    13.949989
L   229.193680    14.072998
L   229.664673    14.202003
L   230.129669    14.337006
L   230.588669    14.478012
L   231.041672    14.625000
L   231.488678    14.778000
L   231.929672    14.936996
L   232.364685    15.101997
L   232.793671    15.272995
L   233.216675    15.449989
L   233.633667    15.632996
L   234.044678    15.821999
L   234.449661    16.016998
L   234.848663    16.218010
L   235.241669    16.425011
L   235.628662    16.638000
L   236.009674    16.857002
L   236.384674    17.081993
L   236.753662    17.312996
L   237.116669    17.550003
L   237.473679    17.792992
L   237.824677    18.041992
L   238.169678    18.296989
L   238.508682    18.557999
L   238.841675    18.824997
L   239.168671    19.098007
L   239.489670    19.377007
L   239.804672    19.662010
L   240.113663    19.953018
L   240.416672    20.250000
L   240.713654    20.553001
L   241.004669    20.862000
L   241.289673    21.176994
L   241.568665    21.498001
L   241.841675    21.825005
L   242.108673    22.158005
L   242.369675    22.496994
L   242.624664    22.842003
L   242.873672    23.192993
L   243.116669    23.550003
L   243.353668    23.912994
L   243.584671    24.281998
L   243.809677    24.656998
L   244.028671    25.037994
L   244.241669    25.425003
L   244.448669    25.817993
L   244.649673    26.216995
L   244.844666    26.621994
L   245.033661    27.033005
L   245.216675    27.449997
L   245.393677    27.873001
L   245.564667    28.302002
L   245.729660    28.737007
L   245.888672    29.178001
L   246.041672    29.625000
L   246.188675    30.077995
L   246.329681    30.537003
L   246.464661    31.001999
L   246.593658    31.473000
L   246.716675    31.949997
L   246.833664    32.432999
L   246.944672    32.921997
L   247.049683    33.417007
L   247.148682    33.917999
L   247.241669    34.424988
L   247.328674    34.937996
L   247.409668    35.457001
L   247.484680    35.982002
L   247.553665    36.513000
L   247.616669    37.050003
L   247.673676    37.592995
L   247.724670    38.142006
L   247.769669    38.696999
L   247.808670    39.257996
L   247.841675    39.825005
L   247.868683    40.397995
L   247.889679    40.976997
L   247.904663    41.561996
L   247.913681    42.153000
L   247.916672    42.750000
L   247.916672   237.750000
L   247.913666   238.347000
L   247.904678   238.938019
L   247.889679   239.523010
L   247.868683   240.101990
L   247.841675   240.674988
L   247.808670   241.242004
L   247.769669   241.803009
L   247.724670   242.358002
L   247.673676   242.907013
L   247.616669   243.449982
L   247.553665   243.987000
L   247.484680   244.518005
L   247.409668   245.042999
L   247.328674   245.562012
L   247.241669   246.075012
L   247.148682   246.582001
L   247.049683   247.083008
L   246.944672   247.578003
L   246.833664   248.067001
L   246.716675   248.550003
L   246.593658   249.027008
L   246.464661   249.497986
L   246.329666   249.962997
L   246.188660   250.421997
L   246.041672   250.875000
L   245.888672   251.322006
L   245.729675   251.763000
L   245.564667   252.198013
L   245.393677   252.626999
L   245.216690   253.050018
L   245.033676   253.466995
L   244.844681   253.878006
L   244.649658   254.282990
L   244.448669   254.681992
L   244.241669   255.074982
L   244.028671   255.461990
L   243.809677   255.842987
L   243.584671   256.218018
L   243.353668   256.587006
L   243.116669   256.950012
L   242.873672   257.307007
L   242.624680   257.658020
L   242.369690   258.002991
L   242.108673   258.342010
L   241.841675   258.674988
L   241.568665   259.002014
L   241.289673   259.322998
L   241.004669   259.638000
L   240.713654   259.946991
L   240.416672   260.250000
L   240.113663   260.546997
L   239.804657   260.838013
L   239.489670   261.122986
L   239.168671   261.402008
L   238.841675   261.674988
L   238.508682   261.942017
L   238.169678   262.203003
L   237.824677   262.458008
L   237.473663   262.707001
L   237.116669   262.950012
L   236.753677   263.187012
L   236.384674   263.417999
L   236.009674   263.643005
L   235.628677   263.862000
L   235.241669   264.075012
L   234.848679   264.281982
L   234.449677   264.483002
L   234.044678   264.678009
L   233.633667   264.867004
L   233.216675   265.049988
L   232.793671   265.226990
L   232.364670   265.398010
L   231.929672   265.562988
L   231.488678   265.721985
L   231.041672   265.875000
L   230.588669   266.022003
L   230.129669   266.162994
L   229.664673   266.298004
L   229.193665   266.427002
L   228.716675   266.549988
L   228.233673   266.666992
L   227.744675   266.778015
L   227.249680   266.882996
L   226.748672   266.981995
L   226.241669   267.075012
L   225.728668   267.161987
L   225.209671   267.243011
L   224.684677   267.317993
L   224.153671   267.386993
L   223.616669   267.450012
L   223.073669   267.507019
L   222.524673   267.557983
L   221.969666   267.602997
L   221.408676   267.641998
L   220.841675   267.674988
L   220.268677   267.701996
L   219.689667   267.722992
L   219.104675   267.738007
L   218.513672   267.747009
L   217.916672   267.750000 z
"
/>
<circle
fill="none"
stroke="#6d5192"
cx="65.144447"
cy="247.750000"
r=".000000"
/>
<text
x="65.144447"
y="247.750000"
text-anchor="middle"
alignment-baseline="central"
fill="#6d5192"
font-size="0"
font-family="Cascadia Code"
>
1
</text>
<circle
fill="none"
stroke="#6d5192"
cx="31.805557"
cy="247.750000"
r=".000000"
/>
<text
x="31.805557"
y="247.750000"
text-anchor="middle"
alignment-baseline="central"
fill="#6d5192"
font-size="0"
font-family="Cascadia Code"
>
2
</text>
<circle
fill="none"
stroke="#6d5192"
cx="31.805557"
cy="223.024994"
r=".000000"
/>
<text
x="31.805557"
y="223.024994"
text-anchor="middle"
alignment-baseline="central"
fill="#6d5192"
font-size="0"
font-family="Cascadia Code"
>
3
</text>
<circle
fill="none"
stroke="#6d5192"
cx="51.416672"
cy="223.024994"
r=".000000"
/>
<text
x="51.416672"
y="223.024994"
text-anchor="middle"
alignment-baseline="central"
fill="#6d5192"
font-size="0"
font-family="Cascadia Code"
>
4
</text>
<circle
fill="none"
stroke="#6d5192"
cx="65.144447"
cy="223.024994"
r=".000000"
/>
<text
x="65.144447"
y="223.024994"
text-anchor="middle"
alignment-baseline="central"
fill="#6d5192"
font-size="0"
font-family="Cascadia Code"
>
5
</text>
<circle
fill="none"
stroke="#6d5192"
cx="65.144447"
cy="209.050003"
r=".000000"
/>
<text
x="65.144447"
y="209.050003"
text-anchor="middle"
alignment-baseline="central"
fill="#6d5192"
font-size="0"
font-family="Cascadia Code"
>
6
</text>
<circle
fill="none"
stroke="#6d5192"
cx="227.916672"
cy="32.750000"
r=".000000"
/>
<text
x="227.916672"
y="32.750000"
text-anchor="middle"
alignment-baseline="central"
fill="#6d5192"
font-size="0"
font-family="Cascadia Code"
>
7
</text>
<circle
fill="none"
stroke="#6d5192"
cx="227.916672"
cy="121.975006"
r=".000000"
/>
<text
x="227.916672"
y="121.975006"
text-anchor="middle"
alignment-baseline="central"
fill="#6d5192"
font-size="0"
font-family="Cascadia Code"
>
8
</text>
<circle
fill="none"
stroke="#6d5192"
cx="202.422226"
cy="121.975006"
r=".000000"
/>
<text
x="202.422226"
y="121.975006"
text-anchor="middle"
alignment-baseline="central"
fill="#6d5192"
font-size="0"
font-family="Cascadia Code"
>
9
</text>
<circle
fill="none"
stroke="#6d5192"
cx="202.422226"
cy="57.475006"
r=".000000"
/>
<text
x="202.422226"
y="57.475006"
text-anchor="middle"
alignment-baseline="central"
fill="#6d5192"
font-size="0"
font-family="Cascadia Code"
>
10
</text>
<circle
fill="none"
stroke="#6d5192"
cx="163.200012"
cy="57.475006"
r=".000000"
/>
<text
x="163.200012"
y="57.475006"
text-anchor="middle"
alignment-baseline="central"
fill="#6d5192"
font-size="0"
font-family="Cascadia Code"
>
11
</text>
<circle
fill="none"
stroke="#6d5192"
cx="109.465553"
cy="57.475006"
r=".000000"
/>
<text
x="109.465553"
y="57.475006"
text-anchor="middle"
alignment-baseline="central"
fill="#6d5192"
font-size="0"
font-family="Cascadia Code"
>
12
</text>
<circle
fill="none"
stroke="#6d5192"
cx="109.465553"
cy="121.975006"
r=".000000"
/>
<text
x="109.465553"
y="121.975006"
text-anchor="middle"
alignment-baseline="central"
fill="#6d5192"
font-size="0"
font-family="Cascadia Code"
>
13
</text>
<circle
fill="none"
stroke="#6d5192"
cx="118.094444"
cy="121.975006"
r=".000000"
/>
<text
x="118.094444"
y="121.975006"
text-anchor="middle"
alignment-baseline="central"
fill="#6d5192"
font-size="0"
font-family="Cascadia Code"
>
14
</text>
<circle
fill="none"
stroke="#6d5192"
cx="148.099457"
cy="121.975006"
r=".000000"
/>
<text
x="148.099457"
y="121.975006"
text-anchor="middle"
alignment-baseline="central"
fill="#6d5192"
font-size="0"
font-family="Cascadia Code"
>
15
</text>
<circle
fill="none"
stroke="#6d5192"
cx="148.099457"
cy="88.649994"
r=".000000"
/>
<text
x="148.099457"
y="88.649994"
text-anchor="middle"
alignment-baseline="central"
fill="#6d5192"
font-size="0"
font-family="Cascadia Code"
>
16
</text>
<circle
fill="none"
stroke="#6d5192"
cx="148.099457"
cy="77.899994"
r=".000000"
/>
<text
x="148.099457"
y="77.899994"
text-anchor="middle"
alignment-baseline="central"
fill="#6d5192"
font-size="0"
font-family="Cascadia Code"
>
17
</text>
<circle
fill="none"
stroke="#6d5192"
cx="173.005569"
cy="77.899994"
r=".000000"
/>
<text
x="173.005569"
y="77.899994"
text-anchor="middle"
alignment-baseline="central"
fill="#6d5192"
font-size="0"
font-family="Cascadia Code"
>
18
</text>
<circle
fill="none"
stroke="#6d5192"
cx="41.805557"
cy="267.750000"
r=".000000"
/>
<text
x="41.805557"
y="267.750000"
text-anchor="middle"
alignment-baseline="central"
fill="#6d5192"
font-size="0"
font-family="Cascadia Code"
>
A
</text>
<circle
fill="none"
stroke="#6d5192"
cx="11.805557"
cy="267.750000"
r=".000000"
/>
<text
x="11.805557"
y="267.750000"
text-anchor="middle"
alignment-baseline="central"
fill="#6d5192"
font-size="0"
font-family="Cascadia Code"
>
B
</text>
<circle
fill="none"
stroke="#6d5192"
cx="11.805557"
cy="237.750000"
r=".000000"
/>
<text
x="11.805557"
y="237.750000"
text-anchor="middle"
alignment-baseline="central"
fill="#6d5192"
font-size="0"
font-family="Cascadia Code"
>
C
</text>
<circle
fill="none"
stroke="#6d5192"
cx="11.805557"
cy="42.750000"
r=".000000"
/>
<text
x="11.805557"
y="42.750000"
text-anchor="middle"
alignment-baseline="central"
fill="#6d5192"
font-size="0"
font-family="Cascadia Code"
>
D
</text>
<circle
fill="none"
stroke="#6d5192"
cx="11.805557"
cy="12.750000"
r=".000000"
/>
<text
x="11.805557"
y="12.750000"
text-anchor="middle"
alignment-baseline="central"
fill="#6d5192"
font-size="0"
font-family="Cascadia Code"
>
E
</text>
<circle
fill="none"
stroke="#6d5192"
cx="41.805557"
cy="12.750000"
r=".000000"
/>
<text
x="41.805557"
y="12.750000"
text-anchor="middle"
alignment-baseline="central"
fill="#6d5192"
font-size="0"
font-family="Cascadia Code"
>
F
</text>
<circle
fill="none"
stroke="#6d5192"
cx="217.916672"
cy="12.750000"
r=".000000"
/>
<text
x="217.916672"
y="12.750000"
text-anchor="middle"
alignment-baseline="central"
fill="#6d5192"
font-size="0"
font-family="Cascadia Code"
>
G
</text>
<circle
fill="none"
stroke="#6d5192"
cx="247.916672"
cy="12.750000"
r=".000000"
/>
<text
x="247.916672"
y="12.750000"
text-anchor="middle"
alignment-baseline="central"
fill="#6d5192"
font-size="0"
font-family="Cascadia Code"
>
H
</text>
<circle
fill="none"
stroke="#6d5192"
cx="247.916672"
cy="42.750000"
r=".000000"
/>
<text
x="247.916672"
y="42.750000"
text-anchor="middle"
alignment-baseline="central"
fill="#6d5192"
font-size="0"
font-family="Cascadia Code"
>
I
</text>
<circle
fill="none"
stroke="#6d5192"
cx="247.916672"
cy="237.750000"
r=".000000"
/>
<text
x="247.916672"
y="237.750000"
text-anchor="middle"
alignment-baseline="central"
fill="#6d5192"
font-size="0"
font-family="Cascadia Code"
>
J
</text>
<circle
fill="none"
stroke="#6d5192"
cx="247.916672"
cy="267.750000"
r=".000000"
/>
<text
x="247.916672"
y="267.750000"
text-anchor="middle"
alignment-baseline="central"
fill="#6d5192"
font-size="0"
font-family="Cascadia Code"
>
K
</text>
<circle
fill="none"
stroke="#6d5192"
cx="217.916672"
cy="267.750000"
r=".000000"
/>
<text
x="217.916672"
y="267.750000"
text-anchor="middle"
alignment-baseline="central"
fill="#6d5192"
font-size="0"
font-family="Cascadia Code"
>
L
</text>
<circle
fill="none"
stroke="#6d5192"
cx="87.305000"
cy="135.089996"
r=".000000"
/>
<text
x="87.305000"
y="135.089996"
text-anchor="middle"
alignment-baseline="central"
fill="#6d5192"
font-size="0"
font-family="Cascadia Code"
>
R
</text>
</svg>
