<?xml version="1.0" encoding="utf-8" standalone="no" ?>
<svg
xmlns="http://www.w3.org/2000/svg"
x=".000000"
y=".000000"
width="768.000000"
height="768.000000"
>
<title>Fortran Logo</title>
<desc>Generated by Fortran Logo Generator</desc>
<pattern
id="diagonalFill"
width="9.000000"
height="1.000000"
patternUnits="userSpaceOnUse"
patternTransform="rotate(45)"
>
<rect
x=".000000"
y=".000000"
width="4.000000"
height="1.000000"
fill="#6d5192"
/>
</pattern>
<path
fill="url(#diagonalFill)"
stroke="#6d5192"
stroke-width="4.000000"
d="
M   338.031982   404.449982
L   338.211609   402.833588
L   338.750397   401.576385
L   339.648407   400.678406
L   340.905579   400.139587
L   342.522003   399.959991
L   368.529999   399.959991
L   373.916870   400.136688
L   379.027496   400.666779
L   383.861877   401.550293
L   388.420013   402.787201
L   392.701874   404.377502
L   396.707489   406.321198
L   400.436890   408.618286
L   403.890015   411.268799
L   407.066864   414.272705
L   409.967499   417.630005
L   412.591858   421.340698
L   414.940002   425.404785
L   417.011871   429.822296
L   418.807495   434.593201
L   420.326874   439.717499
L   421.570007   445.195190
L   422.536865   451.026306
L   423.227509   457.210815
L   423.641876   463.748718
L   423.779999   470.640015
L   423.779999   488.950043
L   423.959595   490.566437
L   424.498413   491.823639
L   425.396393   492.721619
L   426.653595   493.260437
L   428.269989   493.440033
L   474.540009   493.440033
L   476.156403   493.260437
L   477.413605   492.721619
L   478.311584   491.823608
L   478.850403   490.566437
L   479.029999   488.950043
L   479.029999   269.017975
L   478.850403   267.401581
L   478.311584   266.144379
L   477.413605   265.246368
L   476.156403   264.707550
L   474.540009   264.527985
L   428.269989   264.527985
L   426.653595   264.707581
L   425.396393   265.246368
L   424.498413   266.144379
L   423.959595   267.401581
L   423.779999   269.017975
L   423.779999   274.559998
L   423.641876   281.451294
L   423.227509   287.989197
L   422.536865   294.173706
L   421.570007   300.004822
L   420.326874   305.482513
L   418.807495   310.606812
L   417.011871   315.377716
L   414.940002   319.795227
L   412.591858   323.859314
L   409.967499   327.570007
L   407.066864   330.927307
L   403.890015   333.931213
L   400.436890   336.581726
L   396.707489   338.878815
L   392.701874   340.822510
L   388.420013   342.412811
L   383.861877   343.649719
L   379.027496   344.533234
L   373.916870   345.063324
L   368.529999   345.240021
L   342.522003   345.240021
L   340.905579   345.060425
L   339.648407   344.521606
L   338.750397   343.623627
L   338.211609   342.366425
L   338.031982   340.750031
L   338.031982   212.930008
L   338.211609   211.313599
L   338.750397   210.056396
L   339.648407   209.158401
L   340.905579   208.619583
L   342.522003   208.440002
L   470.190002   208.440002
L   477.947113   208.770782
L   485.306396   209.763092
L   492.267883   211.416977
L   498.831604   213.732391
L   504.997498   216.709381
L   510.765625   220.347900
L   516.135864   224.647980
L   521.108398   229.609604
L   525.683105   235.232788
L   529.859985   241.517517
L   533.639099   248.463791
L   537.020386   256.071594
L   540.003906   264.341003
L   542.589600   273.271912
L   544.777466   282.864380
L   546.567627   293.118408
L   547.959900   304.033997
L   548.954407   315.611115
L   549.551086   327.849792
L   549.750000   340.750031
L   549.750000   340.750031
L   549.929626   342.366425
L   550.468384   343.623627
L   551.366394   344.521606
L   552.623657   345.060425
L   554.239990   345.240021
L   600.510010   345.240021
L   602.126404   345.060425
L   603.383606   344.521606
L   604.281616   343.623627
L   604.820435   342.366425
L   605.000000   340.750031
L   605.000000   160.490005
L   604.820435   158.873596
L   604.281616   157.616425
L   603.383606   156.718399
L   602.126404   156.179581
L   600.510010   156.000000
L   233.720001   156.000000
L   167.490005   156.000000
L   165.873596   156.179581
L   164.616394   156.718399
L   163.718414   157.616425
L   163.179596   158.873596
L   163.000000   160.490005
L   163.000000   203.949997
L   163.179596   205.566391
L   163.718384   206.823608
L   164.616409   207.721603
L   165.873596   208.260391
L   167.490005   208.440002
L   207.199997   208.440002
L   209.785706   208.497009
L   212.238800   208.668015
L   214.559280   208.952988
L   216.747192   209.351990
L   218.802490   209.865005
L   220.725189   210.492004
L   222.515320   211.233002
L   224.172791   212.087997
L   225.697708   213.057022
L   227.089996   214.139999
L   228.349701   215.337006
L   229.476807   216.648010
L   230.471298   218.072998
L   231.333191   219.612000
L   232.062500   221.265015
L   232.659195   223.031998
L   233.123306   224.913010
L   233.454803   226.908005
L   233.653702   229.016998
L   233.720001   231.240005
L   233.720001   536.760010
L   233.653702   538.983032
L   233.454803   541.091980
L   233.123306   543.086975
L   232.659195   544.968018
L   232.062500   546.734985
L   231.333191   548.388000
L   230.471298   549.927002
L   229.476807   551.351990
L   228.349701   552.662964
L   227.089996   553.859985
L   225.697708   554.942993
L   224.172791   555.911987
L   222.515320   556.766968
L   220.725189   557.507996
L   218.802490   558.135010
L   216.747192   558.648010
L   214.559280   559.046997
L   212.238800   559.331970
L   209.785706   559.502991
L   207.199997   559.559998
L   167.490005   559.559998
L   165.873596   559.739624
L   164.616409   560.278381
L   163.718384   561.176392
L   163.179596   562.433594
L   163.000000   564.049988
L   163.000000   607.510010
L   163.179596   609.126404
L   163.718414   610.383545
L   164.616394   611.281616
L   165.873596   611.820435
L   167.490005   612.000000
L   233.720001   612.000000
L   338.031982   612.000000
L   411.557983   612.000000
L   413.174408   611.820435
L   414.431580   611.281616
L   415.329590   610.383545
L   415.868408   609.126404
L   416.047974   607.510010
L   416.047974   564.049988
L   415.868408   562.433594
L   415.329590   561.176392
L   414.431610   560.278381
L   413.174408   559.739624
L   411.557983   559.559998
L   364.552002   559.559998
L   361.966309   559.502991
L   359.513184   559.331970
L   357.192719   559.046997
L   355.004822   558.648010
L   352.949524   558.135010
L   351.026794   557.507996
L   349.236694   556.766968
L   347.579224   555.911987
L   346.054291   554.942993
L   344.661987   553.859985
L   343.402283   552.662964
L   342.275208   551.351990
L   341.280701   549.927002
L   340.418823   548.388000
L   339.689514   546.734985
L   339.092804   544.968018
L   338.628693   543.086975
L   338.297180   541.091980
L   338.098297   538.983032
L   338.031982   536.760010 z
M   183.000000   640.000000
L   177.637497   639.862488
L   172.550018   639.449951
L   167.737503   638.762512
L   163.199966   637.800049
L   158.937500   636.562500
L   154.949982   635.049988
L   151.237503   633.262451
L   147.799988   631.200012
L   144.637512   628.862488
L   141.750000   626.250000
L   139.137497   623.362488
L   136.800003   620.200012
L   134.737488   616.762512
L   132.950012   613.049988
L   131.437500   609.062500
L   130.199982   604.800049
L   129.237503   600.262512
L   128.550003   595.450012
L   128.137497   590.362488
L   128.000000   585.000000
L   128.000000   183.000000
L   128.137512   177.637497
L   128.550018   172.550018
L   129.237473   167.737503
L   130.199982   163.199966
L   131.437500   158.937500
L   132.950012   154.949982
L   134.737518   151.237503
L   136.799988   147.799988
L   139.137527   144.637512
L   141.750000   141.750000
L   144.637497   139.137497
L   147.800003   136.800003
L   151.237488   134.737488
L   154.950012   132.950012
L   158.937500   131.437500
L   163.199982   130.199982
L   167.737503   129.237503
L   172.550003   128.550003
L   177.637497   128.137497
L   183.000000   128.000000
L   585.000000   128.000000
L   590.362488   128.137512
L   595.449951   128.550018
L   600.262512   129.237473
L   604.800049   130.199982
L   609.062500   131.437500
L   613.050049   132.950012
L   616.762512   134.737518
L   620.200012   136.799988
L   623.362488   139.137527
L   626.250000   141.750000
L   628.862488   144.637497
L   631.200012   147.800003
L   633.262512   151.237488
L   635.049988   154.950012
L   636.562500   158.937500
L   637.800049   163.199982
L   638.762512   167.737503
L   639.450012   172.550003
L   639.862488   177.637497
L   640.000000   183.000000
L   640.000000   585.000000
L   639.862488   590.362488
L   639.449951   595.449951
L   638.762512   600.262512
L   637.800049   604.800049
L   636.562500   609.062500
L   635.049988   613.050049
L   633.262451   616.762512
L   631.200012   620.200012
L   628.862488   623.362488
L   626.250000   626.250000
L   623.362488   628.862488
L   620.200012   631.200012
L   616.762512   633.262512
L   613.049988   635.049988
L   609.062500   636.562500
L   604.800049   637.800049
L   600.262512   638.762512
L   595.450012   639.450012
L   590.362488   639.862488
L   585.000000   640.000000 z
"
/>
</svg>
