<?xml version="1.0" encoding="utf-8" standalone="no" ?>
<svg
xmlns="http://www.w3.org/2000/svg"
x=".000000"
y=".000000"
width="382.500000"
height="382.500000"
>
<title>Fortran Logo</title>
<desc>Generated by Fortran Logo Generator</desc>
<pattern
id="diagonalFill"
width="9.000000"
height="1.000000"
patternUnits="userSpaceOnUse"
patternTransform="rotate(45)"
>
<rect
x=".000000"
y=".000000"
width="4.000000"
height="1.000000"
fill="#6d5192"
/>
</pattern>
<path
fill="url(#diagonalFill)"
stroke="#6d5192"
stroke-width="4.000000"
d="
M   172.010010   200.134995
L   172.086792   199.443802
L   172.317200   198.906189
L   172.701202   198.522202
L   173.238800   198.291794
L   173.930008   198.214996
L   184.774994   198.214996
L   187.029694   198.292114
L   189.168747   198.523438
L   191.192184   198.909012
L   193.100006   199.448792
L   194.892181   200.142807
L   196.568741   200.991043
L   198.129684   201.993500
L   199.574997   203.150192
L   200.904678   204.461105
L   202.118744   205.926239
L   203.217178   207.545609
L   204.199997   209.319199
L   205.067184   211.247009
L   205.818741   213.329041
L   206.454681   215.565308
L   206.974991   217.955795
L   207.379684   220.500504
L   207.668747   223.199448
L   207.842178   226.052612
L   207.899994   229.059998
L   207.899994   237.090012
L   207.976791   237.781219
L   208.207199   238.318817
L   208.591187   238.702805
L   209.128799   238.933212
L   209.819992   239.010010
L   229.104996   239.010010
L   229.796204   238.933212
L   230.333801   238.702820
L   230.717804   238.318817
L   230.948196   237.781219
L   231.024994   237.090012
L   231.024994   141.031982
L   230.948196   140.340790
L   230.717804   139.803192
L   230.333801   139.419189
L   229.796204   139.188782
L   229.104996   139.112000
L   209.819992   139.112000
L   209.128799   139.188782
L   208.591187   139.419189
L   208.207199   139.803192
L   207.976791   140.340790
L   207.899994   141.031982
L   207.899994   143.490005
L   207.842178   146.497391
L   207.668747   149.350555
L   207.379684   152.049500
L   206.974991   154.594208
L   206.454681   156.984695
L   205.818741   159.220947
L   205.067184   161.302994
L   204.199997   163.230804
L   203.217178   165.004395
L   202.118744   166.623749
L   200.904678   168.088898
L   199.574997   169.399811
L   198.129684   170.556488
L   196.568741   171.558960
L   194.892181   172.407196
L   193.100006   173.101196
L   191.192184   173.640991
L   189.168747   174.026550
L   187.029694   174.257889
L   184.774994   174.335007
L   173.930008   174.335007
L   173.238800   174.258209
L   172.701202   174.027802
L   172.317200   173.643799
L   172.086792   173.106201
L   172.010010   172.415009
L   172.010010   116.554993
L   172.086807   115.863785
L   172.317200   115.326195
L   172.701202   114.942192
L   173.238800   114.711784
L   173.930008   114.634995
L   227.324997   114.634995
L   230.571747   114.779442
L   233.651993   115.212791
L   236.565750   115.935043
L   239.312988   116.946190
L   241.893753   118.246246
L   244.307999   119.835197
L   246.555756   121.713043
L   248.636993   123.879791
L   250.551758   126.335449
L   252.300003   129.080002
L   253.881744   132.113449
L   255.296997   135.435791
L   256.545746   139.047058
L   257.627991   142.947205
L   258.543762   147.136261
L   259.292999   151.614197
L   259.875732   156.381042
L   260.291992   161.436813
L   260.541748   166.781464
L   260.625000   172.415009
L   260.625000   172.415009
L   260.701782   173.106201
L   260.932190   173.643799
L   261.316193   174.027802
L   261.853821   174.258209
L   262.544983   174.335007
L   281.830017   174.335007
L   282.521210   174.258209
L   283.058807   174.027802
L   283.442810   173.643799
L   283.673218   173.106201
L   283.750000   172.415009
L   283.750000    93.669998
L   283.673218    92.978790
L   283.442810    92.441200
L   283.058807    92.057198
L   282.521210    91.826797
L   281.830017    91.750000
L   128.350006    91.750000
L   100.669998    91.750000
L    99.978790    91.826797
L    99.441193    92.057198
L    99.057205    92.441200
L    98.826797    92.978790
L    98.750000    93.669998
L    98.750000   112.715004
L    98.826797   113.406197
L    99.057190   113.943802
L    99.441200   114.327805
L    99.978790   114.558197
L   100.669998   114.635002
L   117.250000   114.635002
L   118.332253   114.659874
L   119.359009   114.734505
L   120.330246   114.858871
L   121.245995   115.032990
L   122.106247   115.256874
L   122.910995   115.530502
L   123.660248   115.853882
L   124.353996   116.227005
L   124.992249   116.649879
L   125.574997   117.122498
L   126.102249   117.644882
L   126.574005   118.217003
L   126.990250   118.838882
L   127.350998   119.510506
L   127.656250   120.231880
L   127.905998   121.003006
L   128.100250   121.823883
L   128.238998   122.694504
L   128.322250   123.614883
L   128.350006   124.585007
L   128.350006   257.914978
L   128.322250   258.885132
L   128.238998   259.805481
L   128.100250   260.676117
L   127.905998   261.497009
L   127.656250   262.268127
L   127.350998   262.989502
L   126.990250   263.661133
L   126.574005   264.282990
L   126.102249   264.855103
L   125.574997   265.377502
L   124.992249   265.850128
L   124.353996   266.273010
L   123.660248   266.646118
L   122.910995   266.969482
L   122.106247   267.243134
L   121.245995   267.467010
L   120.330246   267.641113
L   119.359009   267.765503
L   118.332253   267.840118
L   117.250000   267.864990
L   100.669998   267.864990
L    99.978790   267.941803
L    99.441200   268.172180
L    99.057190   268.556213
L    98.826797   269.093811
L    98.750000   269.785004
L    98.750000   288.830017
L    98.826797   289.521210
L    99.057205   290.058807
L    99.441193   290.442810
L    99.978790   290.673218
L   100.669998   290.750000
L   128.350006   290.750000
L   172.010010   290.750000
L   202.873993   290.750000
L   203.565216   290.673218
L   204.102814   290.442810
L   204.486786   290.058807
L   204.717194   289.521210
L   204.794006   288.830017
L   204.794006   269.785004
L   204.717194   269.093811
L   204.486816   268.556213
L   204.102798   268.172180
L   203.565216   267.941803
L   202.873993   267.864990
L   183.110001   267.864990
L   182.027740   267.840118
L   181.000992   267.765503
L   180.029755   267.641113
L   179.114014   267.467010
L   178.253754   267.243134
L   177.449005   266.969482
L   176.699753   266.646118
L   176.006012   266.273010
L   175.367752   265.850128
L   174.785004   265.377502
L   174.257751   264.855103
L   173.785995   264.282990
L   173.369751   263.661133
L   173.009003   262.989502
L   172.703751   262.268127
L   172.454010   261.497009
L   172.259750   260.676117
L   172.121002   259.805481
L   172.037750   258.885132
L   172.010010   257.914978 z
M   118.750000   318.750000
L   113.387497   318.612488
L   108.300003   318.199982
L   103.487495   317.512512
L    98.949997   316.550018
L    94.687500   315.312500
L    90.700005   313.799988
L    86.987503   312.012482
L    83.549995   309.950012
L    80.387512   307.612488
L    77.500000   305.000000
L    74.887497   302.112488
L    72.550003   298.949982
L    70.487503   295.512512
L    68.699997   291.799988
L    67.187500   287.812500
L    65.949997   283.549988
L    64.987503   279.012512
L    64.299995   274.200012
L    63.887497   269.112488
L    63.750000   263.750000
L    63.750000   118.750000
L    63.887497   113.387497
L    64.300011   108.300003
L    64.987495   103.487495
L    65.949989    98.949997
L    67.187500    94.687500
L    68.699997    90.700005
L    70.487511    86.987503
L    72.549995    83.549995
L    74.887505    80.387512
L    77.500000    77.500000
L    80.387505    74.887497
L    83.550011    72.550003
L    86.987503    70.487503
L    90.699997    68.699997
L    94.687500    67.187500
L    98.949997    65.949997
L   103.487503    64.987503
L   108.300003    64.299995
L   113.387497    63.887497
L   118.750000    63.750000
L   263.750000    63.750000
L   269.112488    63.887497
L   274.200012    64.300011
L   279.012512    64.987495
L   283.549988    65.949989
L   287.812500    67.187500
L   291.799988    68.699997
L   295.512512    70.487511
L   298.950012    72.549995
L   302.112488    74.887505
L   305.000000    77.500000
L   307.612488    80.387505
L   309.950012    83.550011
L   312.012512    86.987503
L   313.799988    90.699997
L   315.312500    94.687500
L   316.549988    98.949997
L   317.512512   103.487503
L   318.200012   108.300003
L   318.612488   113.387497
L   318.750000   118.750000
L   318.750000   263.750000
L   318.612488   269.112488
L   318.199982   274.200012
L   317.512512   279.012512
L   316.550018   283.549988
L   315.312500   287.812500
L   313.799988   291.799988
L   312.012482   295.512512
L   309.950012   298.950012
L   307.612488   302.112488
L   305.000000   305.000000
L   302.112488   307.612488
L   298.949982   309.950012
L   295.512512   312.012512
L   291.799988   313.799988
L   287.812500   315.312500
L   283.549988   316.549988
L   279.012512   317.512512
L   274.200012   318.200012
L   269.112488   318.612488
L   263.750000   318.750000 z
"
/>
</svg>
