<?xml version="1.0" encoding="utf-8" standalone="no" ?>
<svg
xmlns="http://www.w3.org/2000/svg"
width="550.000000"
height="594.000000"
>
<title>Fortran Logo</title>
<desc>Generated by Fortran Logo Generator</desc>
<pattern
id="diagonalFill"
width="9"
height="2"
patternUnits="userSpaceOnUse"
patternTransform="rotate(45)"
>
<rect
x=".000000"
y=".000000"
width="1.000000"
height="1.000000"
fill="#ca9b3d"
/>
</pattern>
<line
stroke="#ca9b3d"
x1="50.000000"
y1="567.000000"
x2="50.000000"
y2="27.000000"
stroke-dasharray="2 2"
stroke-width="1.000000"
/>
<line
stroke="#ca9b3d"
x1="25.000000"
y1="540.000000"
x2="525.000000"
y2="540.000000"
stroke-dasharray="2 2"
stroke-width="1.000000"
/>
<line
stroke="#ca9b3d"
x1="106.250000"
y1="567.000000"
x2="106.250000"
y2="27.000000"
stroke-dasharray="2 2"
stroke-width="1.000000"
/>
<line
stroke="#ca9b3d"
x1="25.000000"
y1="484.109985"
x2="525.000000"
y2="484.109985"
stroke-dasharray="2 2"
stroke-width="1.000000"
/>
<line
stroke="#ca9b3d"
x1="128.750000"
y1="567.000000"
x2="128.750000"
y2="27.000000"
stroke-dasharray="2 2"
stroke-width="1.000000"
/>
<line
stroke="#ca9b3d"
x1="25.000000"
y1="430.649994"
x2="525.000000"
y2="430.649994"
stroke-dasharray="2 2"
stroke-width="1.000000"
/>
<line
stroke="#ca9b3d"
x1="500.000000"
y1="567.000000"
x2="500.000000"
y2="27.000000"
stroke-dasharray="2 2"
stroke-width="1.000000"
/>
<line
stroke="#ca9b3d"
x1="25.000000"
y1="54.000000"
x2="525.000000"
y2="54.000000"
stroke-dasharray="2 2"
stroke-width="1.000000"
/>
<line
stroke="#ca9b3d"
x1="441.500000"
y1="567.000000"
x2="441.500000"
y2="27.000000"
stroke-dasharray="2 2"
stroke-width="1.000000"
/>
<line
stroke="#ca9b3d"
x1="25.000000"
y1="255.690002"
x2="525.000000"
y2="255.690002"
stroke-dasharray="2 2"
stroke-width="1.000000"
/>
<line
stroke="#ca9b3d"
x1="356.000000"
y1="567.000000"
x2="356.000000"
y2="27.000000"
stroke-dasharray="2 2"
stroke-width="1.000000"
/>
<line
stroke="#ca9b3d"
x1="25.000000"
y1="109.890015"
x2="525.000000"
y2="109.890015"
stroke-dasharray="2 2"
stroke-width="1.000000"
/>
<line
stroke="#ca9b3d"
x1="252.500000"
y1="567.000000"
x2="252.500000"
y2="27.000000"
stroke-dasharray="2 2"
stroke-width="1.000000"
/>
<line
stroke="#ca9b3d"
x1="25.000000"
y1="255.690002"
x2="525.000000"
y2="255.690002"
stroke-dasharray="2 2"
stroke-width="1.000000"
/>
<line
stroke="#ca9b3d"
x1="316.850006"
y1="567.000000"
x2="316.850006"
y2="27.000000"
stroke-dasharray="2 2"
stroke-width="1.000000"
/>
<line
stroke="#ca9b3d"
x1="25.000000"
y1="180.359985"
x2="525.000000"
y2="180.359985"
stroke-dasharray="2 2"
stroke-width="1.000000"
/>
<line
stroke="#ca9b3d"
x1="374.000000"
y1="567.000000"
x2="374.000000"
y2="27.000000"
stroke-dasharray="2 2"
stroke-width="1.000000"
/>
<line
stroke="#ca9b3d"
x1="25.000000"
y1="155.250092"
x2="525.000000"
y2="155.250092"
stroke-dasharray="2 2"
stroke-width="1.000000"
/>
<line
stroke="#ca9b3d"
x1="178.250000"
y1="567.000000"
x2="178.250000"
y2="27.000000"
stroke-dasharray="2 2"
stroke-width="1.000000"
/>
<line
stroke="#ca9b3d"
x1="25.000000"
y1="285.578979"
x2="525.000000"
y2="285.578979"
stroke-dasharray="2 2"
stroke-width="1.000000"
/>
<line
stroke="#ca9b3d"
x1="25.000000"
y1="567.000000"
x2="25.000000"
y2="27.000000"
stroke-dasharray="2 2"
stroke-width="1.000000"
/>
<line
stroke="#ca9b3d"
x1="25.000000"
y1="27.000000"
x2="525.000000"
y2="27.000000"
stroke-dasharray="2 2"
stroke-width="1.000000"
/>
<line
stroke="#ca9b3d"
x1="525.000000"
y1="27.000000"
x2="525.000000"
y2="567.000000"
stroke-dasharray="2 2"
stroke-width="1.000000"
/>
<line
stroke="#ca9b3d"
x1="525.000000"
y1="567.000000"
x2="25.000000"
y2="567.000000"
stroke-dasharray="2 2"
stroke-width="1.000000"
/>
<path
fill="url(#diagonalFill)"
stroke="#ca9b3d"
stroke-width="3.000000"
d="
M   227.750000   320.147980
L   227.796799   319.258789
L   227.937195   318.463196
L   228.171204   317.761169
L   228.498795   317.152802
L   228.919998   316.638000
L   229.434799   316.216797
L   230.043198   315.889191
L   230.745193   315.655182
L   231.540802   315.514771
L   232.429993   315.467987
L   252.500000   315.467987
L   256.718506   315.551697
L   260.794006   315.802795
L   264.726501   316.221283
L   268.515991   316.807190
L   272.162506   317.560486
L   275.666016   318.481171
L   279.026489   319.569275
L   282.244019   320.824799
L   285.318512   322.247681
L   288.250000   323.837982
L   291.038513   325.595703
L   293.684021   327.520782
L   296.186523   329.613281
L   298.546021   331.873199
L   300.762512   334.300476
L   302.835999   336.895203
L   304.766510   339.657288
L   306.554016   342.586792
L   308.198517   345.683716
L   309.700012   348.947998
L   311.058502   352.379700
L   312.274017   355.978790
L   313.346497   359.745300
L   314.276001   363.679199
L   315.062500   367.780518
L   315.705994   372.049194
L   316.206512   376.485291
L   316.563995   381.088806
L   316.778503   385.859711
L   316.850006   390.798004
L   316.850006   411.227905
L   316.896790   412.117096
L   317.037201   412.912720
L   317.271210   413.614685
L   317.598816   414.223114
L   318.020020   414.737915
L   318.534790   415.159088
L   319.143188   415.486694
L   319.845215   415.720703
L   320.640808   415.861084
L   321.529999   415.907898
L   369.320007   415.907898
L   370.209198   415.861084
L   371.004822   415.720703
L   371.706787   415.486694
L   372.315216   415.159119
L   372.830017   414.737915
L   373.251221   414.223083
L   373.578796   413.614685
L   373.812805   412.912720
L   373.953186   412.117126
L   374.000000   411.227905
L   374.000000   172.080078
L   373.953186   171.190887
L   373.812805   170.395294
L   373.578796   169.693298
L   373.251221   169.084900
L   372.830017   168.570084
L   372.315216   168.148880
L   371.706787   167.821289
L   371.004822   167.587265
L   370.209198   167.446899
L   369.320007   167.400085
L   321.529999   167.400085
L   320.640808   167.446884
L   319.845215   167.587280
L   319.143188   167.821289
L   318.534790   168.148895
L   318.020020   168.570084
L   317.598816   169.084869
L   317.271210   169.693298
L   317.037201   170.395264
L   316.896790   171.190887
L   316.850006   172.080078
L   316.850006   180.359985
L   316.778503   185.298279
L   316.563995   190.069183
L   316.206512   194.672684
L   315.705994   199.108795
L   315.062500   203.377472
L   314.276001   207.478790
L   313.346497   211.412689
L   312.274017   215.179199
L   311.058502   218.778290
L   309.700012   222.209991
L   308.198517   225.474289
L   306.554016   228.571198
L   304.766510   231.500702
L   302.835999   234.262787
L   300.762512   236.857498
L   298.546021   239.284790
L   296.186523   241.544708
L   293.684021   243.637207
L   291.038513   245.562302
L   288.250000   247.320007
L   285.318512   248.910309
L   282.244019   250.333191
L   279.026489   251.588699
L   275.666016   252.676804
L   272.162506   253.597504
L   268.515991   254.350800
L   264.726501   254.936707
L   260.794006   255.355209
L   256.718506   255.606308
L   252.500000   255.690002
L   232.429993   255.690002
L   231.540802   255.643204
L   230.745193   255.502808
L   230.043198   255.268799
L   229.434799   254.941208
L   228.919998   254.520004
L   228.498795   254.005203
L   228.171204   253.396805
L   227.937195   252.694794
L   227.796799   251.899200
L   227.750000   251.010010
L   227.750000   114.570007
L   227.796799   113.680801
L   227.937195   112.885193
L   228.171204   112.183212
L   228.498810   111.574829
L   228.919998   111.060013
L   229.434799   110.638809
L   230.043198   110.311218
L   230.745193   110.077209
L   231.540802   109.936829
L   232.429993   109.890015
L   356.000000   109.890015
L   361.604980   110.046829
L   367.019989   110.517212
L   372.244995   111.301208
L   377.279968   112.398819
L   382.125000   113.810013
L   386.779968   115.534821
L   391.244995   117.573212
L   395.520020   119.925201
L   399.604980   122.590805
L   403.500000   125.570007
L   407.204987   128.862793
L   410.720001   132.469208
L   414.044983   136.389206
L   417.179993   140.622803
L   420.125000   145.170013
L   422.880005   150.030807
L   425.445007   155.205200
L   427.820007   160.693207
L   430.005005   166.494812
L   432.000000   172.610016
L   433.804993   179.038818
L   435.419983   185.781189
L   436.845001   192.837189
L   438.080017   200.206818
L   439.125000   207.889999
L   439.980011   215.886795
L   440.644989   224.197205
L   441.119995   232.821198
L   441.404968   241.758804
L   441.500000   251.010010
L   441.500000   251.010010
L   441.546814   251.899200
L   441.687195   252.694794
L   441.921204   253.396805
L   442.248779   254.005203
L   442.669983   254.520004
L   443.184814   254.941193
L   443.793213   255.268799
L   444.495209   255.502808
L   445.290771   255.643204
L   446.179993   255.690002
L   495.320007   255.690002
L   496.209198   255.643204
L   497.004822   255.502808
L   497.706787   255.268799
L   498.315216   254.941208
L   498.830017   254.520004
L   499.251221   254.005203
L   499.578796   253.396805
L   499.812836   252.694794
L   499.953186   251.899200
L   500.000000   251.010010
L   500.000000    58.679993
L   499.953186    57.790802
L   499.812805    56.995193
L   499.578796    56.293182
L   499.251190    55.684814
L   498.830017    55.169998
L   498.315216    54.748779
L   497.706787    54.421188
L   497.004822    54.187195
L   496.209198    54.046829
L   495.320007    54.000000
L   128.750000    54.000000
L    54.679993    54.000000
L    53.790802    54.046829
L    52.995178    54.187195
L    52.293198    54.421188
L    51.684784    54.748779
L    51.169998    55.169998
L    50.748810    55.684814
L    50.421204    56.293182
L    50.187195    56.995193
L    50.046799    57.790802
L    50.000000    58.679993
L    50.000000   105.210007
L    50.046814   106.099228
L    50.187164   106.894775
L    50.421204   107.596802
L    50.748795   108.205185
L    51.169998   108.720001
L    51.684784   109.141205
L    52.293198   109.468796
L    52.995178   109.702789
L    53.790802   109.843201
L    54.679993   109.889999
L   106.250000   109.889999
L   107.725006   109.949417
L   109.150009   110.127609
L   110.525024   110.424606
L   111.849976   110.840393
L   113.125000   111.375000
L   114.350006   112.028412
L   115.525009   112.800598
L   116.649994   113.691589
L   117.724991   114.701385
L   118.750015   115.830017
L   119.724991   117.077393
L   120.649994   118.443604
L   121.525009   119.928619
L   122.349991   121.532394
L   123.125000   123.255005
L   123.850006   125.096390
L   124.524994   127.056610
L   125.149994   129.135605
L   125.725006   131.333405
L   126.250000   133.649994
L   126.725006   136.085419
L   127.149994   138.639587
L   127.524994   141.312607
L   127.850006   144.104401
L   128.125000   147.014999
L   128.350006   150.044418
L   128.524994   153.192612
L   128.649994   156.459610
L   128.725006   159.845413
L   128.750000   163.350006
L   128.750000   430.649994
L   128.725006   434.154602
L   128.649994   437.540405
L   128.524994   440.807373
L   128.350006   443.955566
L   128.125000   446.984985
L   127.850006   449.895599
L   127.524994   452.687378
L   127.149994   455.360413
L   126.725006   457.914581
L   126.250000   460.350006
L   125.725006   462.666595
L   125.149994   464.864380
L   124.524994   466.943390
L   123.850006   468.903625
L   123.125000   470.744995
L   122.349991   472.467590
L   121.525009   474.071381
L   120.649994   475.556396
L   119.724991   476.922607
L   118.750015   478.169983
L   117.724991   479.298615
L   116.649994   480.308411
L   115.525009   481.199402
L   114.350006   481.971588
L   113.125000   482.625000
L   111.849976   483.159607
L   110.525024   483.575378
L   109.150009   483.872375
L   107.725006   484.050598
L   106.250000   484.109985
L    54.679993   484.109985
L    53.790802   484.156799
L    52.995178   484.297211
L    52.293198   484.531189
L    51.684784   484.858795
L    51.169998   485.279999
L    50.748795   485.794800
L    50.421204   486.403198
L    50.187164   487.105225
L    50.046814   487.900757
L    50.000000   488.789978
L    50.000000   535.320007
L    50.046799   536.209229
L    50.187195   537.004822
L    50.421204   537.706787
L    50.748810   538.315186
L    51.169998   538.830017
L    51.684784   539.251221
L    52.293198   539.578796
L    52.995178   539.812805
L    53.790802   539.953186
L    54.679993   540.000000
L   128.750000   540.000000
L   227.750000   540.000000
L   301.820007   540.000000
L   302.709198   539.953186
L   303.504822   539.812805
L   304.206787   539.578796
L   304.815216   539.251221
L   305.330017   538.830017
L   305.751190   538.315186
L   306.078796   537.706787
L   306.312805   537.004822
L   306.453186   536.209229
L   306.500000   535.320007
L   306.500000   488.789978
L   306.453186   487.900757
L   306.312836   487.105225
L   306.078796   486.403198
L   305.751221   485.794800
L   305.330017   485.279999
L   304.815216   484.858795
L   304.206787   484.531189
L   303.504822   484.297211
L   302.709198   484.156799
L   301.820007   484.109985
L   250.250000   484.109985
L   248.774994   484.050598
L   247.349991   483.872375
L   245.974976   483.575378
L   244.650024   483.159607
L   243.375000   482.625000
L   242.149994   481.971588
L   240.974991   481.199402
L   239.850006   480.308411
L   238.775009   479.298615
L   237.749985   478.169983
L   236.775009   476.922607
L   235.850006   475.556396
L   234.974991   474.071381
L   234.150009   472.467590
L   233.375000   470.744995
L   232.649994   468.903625
L   231.975006   466.943390
L   231.350006   464.864380
L   230.774994   462.666595
L   230.250000   460.350006
L   229.774994   457.914581
L   229.350006   455.360413
L   228.975006   452.687378
L   228.649994   449.895599
L   228.375000   446.984985
L   228.149994   443.955566
L   227.975006   440.807373
L   227.850006   437.540405
L   227.774994   434.154602
L   227.750000   430.649994 z
M    50.000000   567.000000
L    48.361130   566.969971
L    46.777771   566.880005
L    45.250015   566.729980
L    43.777756   566.520020
L    42.361099   566.250000
L    41.000000   565.919983
L    39.694458   565.530029
L    38.444427   565.080017
L    37.250000   564.569946
L    36.111130   564.000000
L    35.027771   563.369995
L    34.000000   562.679993
L    33.027771   561.929993
L    32.111115   561.119995
L    31.250000   560.250000
L    30.444427   559.320007
L    29.694427   558.329956
L    29.000000   557.280029
L    28.361115   556.169983
L    27.777771   555.000000
L    27.250000   553.770020
L    26.777771   552.479980
L    26.361115   551.130005
L    26.000000   549.719971
L    25.694427   548.250000
L    25.444458   546.719971
L    25.250000   545.130005
L    25.111115   543.479980
L    25.027786   541.770020
L    25.000000   540.000000
L    25.000000    54.000000
L    25.027786    52.230026
L    25.111115    50.520004
L    25.250015    48.870010
L    25.444427    47.279984
L    25.694458    45.750000
L    26.000000    44.279999
L    26.361115    42.870010
L    26.777771    41.519989
L    27.250000    40.230011
L    27.777802    39.000031
L    28.361115    37.830017
L    29.000000    36.720001
L    29.694458    35.670013
L    30.444427    34.679993
L    31.250000    33.750000
L    32.111115    32.880005
L    33.027771    32.070007
L    34.000000    31.320007
L    35.027786    30.630005
L    36.111115    30.000000
L    37.250000    29.429993
L    38.444443    28.920013
L    39.694443    28.469971
L    41.000000    28.080017
L    42.361115    27.750000
L    43.777802    27.480011
L    45.250000    27.270020
L    46.777771    27.119995
L    48.361115    27.029999
L    50.000000    27.000000
L   500.000000    27.000000
L   501.638855    27.030029
L   503.222229    27.120026
L   504.750000    27.270020
L   506.222229    27.479980
L   507.638916    27.750000
L   509.000000    28.080017
L   510.305542    28.470001
L   511.555573    28.919983
L   512.750000    29.430023
L   513.888855    30.000031
L   514.972229    30.630005
L   516.000000    31.320007
L   516.972229    32.070007
L   517.888916    32.879974
L   518.750000    33.750000
L   519.555542    34.679993
L   520.305542    35.670013
L   521.000000    36.720001
L   521.638916    37.830017
L   522.222229    39.000000
L   522.750000    40.230011
L   523.222229    41.519989
L   523.638916    42.869995
L   524.000000    44.280014
L   524.305542    45.750000
L   524.555542    47.280014
L   524.750000    48.869995
L   524.888916    50.520004
L   524.972229    52.230011
L   525.000000    54.000000
L   525.000000   540.000000
L   524.972229   541.769958
L   524.888916   543.479980
L   524.750000   545.130005
L   524.555542   546.720032
L   524.305542   548.250000
L   524.000000   549.719971
L   523.638916   551.130005
L   523.222229   552.479980
L   522.750000   553.770020
L   522.222168   555.000000
L   521.638916   556.169983
L   521.000000   557.280029
L   520.305542   558.329956
L   519.555542   559.320007
L   518.750000   560.250000
L   517.888916   561.119995
L   516.972229   561.929993
L   516.000000   562.679993
L   514.972229   563.369995
L   513.888916   564.000000
L   512.750000   564.570007
L   511.555542   565.079956
L   510.305542   565.530029
L   509.000000   565.919983
L   507.638885   566.250000
L   506.222198   566.520020
L   504.750000   566.729980
L   503.222229   566.880005
L   501.638885   566.969971
L   500.000000   567.000000 z
"
/>
<circle
fill="none"
stroke="#ca9b3d"
cx="128.750000"
cy="540.000000"
r="5.000000"
/>
<text
x="128.750000"
y="540.000000"
text-anchor="middle"
alignment-baseline="central"
fill="#ca9b3d"
font-size="0"
font-family="Arial"
>
1
</text>
<circle
fill="none"
stroke="#ca9b3d"
cx="50.000000"
cy="540.000000"
r="5.000000"
/>
<text
x="50.000000"
y="540.000000"
text-anchor="middle"
alignment-baseline="central"
fill="#ca9b3d"
font-size="0"
font-family="Arial"
>
2
</text>
<circle
fill="none"
stroke="#ca9b3d"
cx="50.000000"
cy="484.109985"
r="5.000000"
/>
<text
x="50.000000"
y="484.109985"
text-anchor="middle"
alignment-baseline="central"
fill="#ca9b3d"
font-size="0"
font-family="Arial"
>
3
</text>
<circle
fill="none"
stroke="#ca9b3d"
cx="106.250000"
cy="484.109985"
r="5.000000"
/>
<text
x="106.250000"
y="484.109985"
text-anchor="middle"
alignment-baseline="central"
fill="#ca9b3d"
font-size="0"
font-family="Arial"
>
4
</text>
<circle
fill="none"
stroke="#ca9b3d"
cx="128.750000"
cy="484.109985"
r="5.000000"
/>
<text
x="128.750000"
y="484.109985"
text-anchor="middle"
alignment-baseline="central"
fill="#ca9b3d"
font-size="0"
font-family="Arial"
>
5
</text>
<circle
fill="none"
stroke="#ca9b3d"
cx="128.750000"
cy="430.649994"
r="5.000000"
/>
<text
x="128.750000"
y="430.649994"
text-anchor="middle"
alignment-baseline="central"
fill="#ca9b3d"
font-size="0"
font-family="Arial"
>
6
</text>
<circle
fill="none"
stroke="#ca9b3d"
cx="500.000000"
cy="54.000000"
r="5.000000"
/>
<text
x="500.000000"
y="54.000000"
text-anchor="middle"
alignment-baseline="central"
fill="#ca9b3d"
font-size="0"
font-family="Arial"
>
7
</text>
<circle
fill="none"
stroke="#ca9b3d"
cx="500.000000"
cy="255.690002"
r="5.000000"
/>
<text
x="500.000000"
y="255.690002"
text-anchor="middle"
alignment-baseline="central"
fill="#ca9b3d"
font-size="0"
font-family="Arial"
>
8
</text>
<circle
fill="none"
stroke="#ca9b3d"
cx="441.500000"
cy="255.690002"
r="5.000000"
/>
<text
x="441.500000"
y="255.690002"
text-anchor="middle"
alignment-baseline="central"
fill="#ca9b3d"
font-size="0"
font-family="Arial"
>
9
</text>
<circle
fill="none"
stroke="#ca9b3d"
cx="441.500000"
cy="109.890015"
r="5.000000"
/>
<text
x="441.500000"
y="109.890015"
text-anchor="middle"
alignment-baseline="central"
fill="#ca9b3d"
font-size="0"
font-family="Arial"
>
10
</text>
<circle
fill="none"
stroke="#ca9b3d"
cx="356.000000"
cy="109.890015"
r="5.000000"
/>
<text
x="356.000000"
y="109.890015"
text-anchor="middle"
alignment-baseline="central"
fill="#ca9b3d"
font-size="0"
font-family="Arial"
>
11
</text>
<circle
fill="none"
stroke="#ca9b3d"
cx="227.750000"
cy="109.890015"
r="5.000000"
/>
<text
x="227.750000"
y="109.890015"
text-anchor="middle"
alignment-baseline="central"
fill="#ca9b3d"
font-size="0"
font-family="Arial"
>
12
</text>
<circle
fill="none"
stroke="#ca9b3d"
cx="227.750000"
cy="255.690002"
r="5.000000"
/>
<text
x="227.750000"
y="255.690002"
text-anchor="middle"
alignment-baseline="central"
fill="#ca9b3d"
font-size="0"
font-family="Arial"
>
13
</text>
<circle
fill="none"
stroke="#ca9b3d"
cx="252.500000"
cy="255.690002"
r="5.000000"
/>
<text
x="252.500000"
y="255.690002"
text-anchor="middle"
alignment-baseline="central"
fill="#ca9b3d"
font-size="0"
font-family="Arial"
>
14
</text>
<circle
fill="none"
stroke="#ca9b3d"
cx="316.850006"
cy="255.690002"
r="5.000000"
/>
<text
x="316.850006"
y="255.690002"
text-anchor="middle"
alignment-baseline="central"
fill="#ca9b3d"
font-size="0"
font-family="Arial"
>
15
</text>
<circle
fill="none"
stroke="#ca9b3d"
cx="316.850006"
cy="180.359985"
r="5.000000"
/>
<text
x="316.850006"
y="180.359985"
text-anchor="middle"
alignment-baseline="central"
fill="#ca9b3d"
font-size="0"
font-family="Arial"
>
16
</text>
<circle
fill="none"
stroke="#ca9b3d"
cx="316.850006"
cy="155.250092"
r="5.000000"
/>
<text
x="316.850006"
y="155.250092"
text-anchor="middle"
alignment-baseline="central"
fill="#ca9b3d"
font-size="0"
font-family="Arial"
>
17
</text>
<circle
fill="none"
stroke="#ca9b3d"
cx="374.000000"
cy="155.250092"
r="5.000000"
/>
<text
x="374.000000"
y="155.250092"
text-anchor="middle"
alignment-baseline="central"
fill="#ca9b3d"
font-size="0"
font-family="Arial"
>
18
</text>
<circle
fill="none"
stroke="#ca9b3d"
cx="50.000000"
cy="567.000000"
r="5.000000"
/>
<text
x="50.000000"
y="567.000000"
text-anchor="middle"
alignment-baseline="central"
fill="#ca9b3d"
font-size="0"
font-family="Arial"
>
A
</text>
<circle
fill="none"
stroke="#ca9b3d"
cx="25.000000"
cy="567.000000"
r="5.000000"
/>
<text
x="25.000000"
y="567.000000"
text-anchor="middle"
alignment-baseline="central"
fill="#ca9b3d"
font-size="0"
font-family="Arial"
>
B
</text>
<circle
fill="none"
stroke="#ca9b3d"
cx="25.000000"
cy="540.000000"
r="5.000000"
/>
<text
x="25.000000"
y="540.000000"
text-anchor="middle"
alignment-baseline="central"
fill="#ca9b3d"
font-size="0"
font-family="Arial"
>
C
</text>
<circle
fill="none"
stroke="#ca9b3d"
cx="25.000000"
cy="54.000000"
r="5.000000"
/>
<text
x="25.000000"
y="54.000000"
text-anchor="middle"
alignment-baseline="central"
fill="#ca9b3d"
font-size="0"
font-family="Arial"
>
D
</text>
<circle
fill="none"
stroke="#ca9b3d"
cx="25.000000"
cy="27.000000"
r="5.000000"
/>
<text
x="25.000000"
y="27.000000"
text-anchor="middle"
alignment-baseline="central"
fill="#ca9b3d"
font-size="0"
font-family="Arial"
>
E
</text>
<circle
fill="none"
stroke="#ca9b3d"
cx="50.000000"
cy="27.000000"
r="5.000000"
/>
<text
x="50.000000"
y="27.000000"
text-anchor="middle"
alignment-baseline="central"
fill="#ca9b3d"
font-size="0"
font-family="Arial"
>
F
</text>
<circle
fill="none"
stroke="#ca9b3d"
cx="500.000000"
cy="27.000000"
r="5.000000"
/>
<text
x="500.000000"
y="27.000000"
text-anchor="middle"
alignment-baseline="central"
fill="#ca9b3d"
font-size="0"
font-family="Arial"
>
G
</text>
<circle
fill="none"
stroke="#ca9b3d"
cx="525.000000"
cy="27.000000"
r="5.000000"
/>
<text
x="525.000000"
y="27.000000"
text-anchor="middle"
alignment-baseline="central"
fill="#ca9b3d"
font-size="0"
font-family="Arial"
>
H
</text>
<circle
fill="none"
stroke="#ca9b3d"
cx="525.000000"
cy="54.000000"
r="5.000000"
/>
<text
x="525.000000"
y="54.000000"
text-anchor="middle"
alignment-baseline="central"
fill="#ca9b3d"
font-size="0"
font-family="Arial"
>
I
</text>
<circle
fill="none"
stroke="#ca9b3d"
cx="525.000000"
cy="540.000000"
r="5.000000"
/>
<text
x="525.000000"
y="540.000000"
text-anchor="middle"
alignment-baseline="central"
fill="#ca9b3d"
font-size="0"
font-family="Arial"
>
J
</text>
<circle
fill="none"
stroke="#ca9b3d"
cx="525.000000"
cy="567.000000"
r="5.000000"
/>
<text
x="525.000000"
y="567.000000"
text-anchor="middle"
alignment-baseline="central"
fill="#ca9b3d"
font-size="0"
font-family="Arial"
>
K
</text>
<circle
fill="none"
stroke="#ca9b3d"
cx="500.000000"
cy="567.000000"
r="5.000000"
/>
<text
x="500.000000"
y="567.000000"
text-anchor="middle"
alignment-baseline="central"
fill="#ca9b3d"
font-size="0"
font-family="Arial"
>
L
</text>
<circle
fill="none"
stroke="#ca9b3d"
cx="178.250000"
cy="285.578979"
r="5.000000"
/>
<text
x="178.250000"
y="285.578979"
text-anchor="middle"
alignment-baseline="central"
fill="#ca9b3d"
font-size="0"
font-family="Arial"
>
R
</text>
</svg>
