<?xml version="1.0" encoding="utf-8" standalone="no" ?>
<svg
xmlns="http://www.w3.org/2000/svg"
width="550.000000"
height="594.000000"
>
<title>Fortran Logo</title>
<desc>Generated by Fortran Logo Generator</desc>
<pattern
id="diagonalFill"
width="9"
height="2"
patternUnits="userSpaceOnUse"
patternTransform="rotate(45)"
>
<rect
x=".000000"
y=".000000"
width="1.000000"
height="1.000000"
fill="#ca9b3d"
/>
</pattern>
<line
stroke="#ca9b3d"
x1="50.000000"
y1="567.000000"
x2="50.000000"
y2="27.000000"
stroke-dasharray="2 2"
stroke-width="1.000000"
/>
<line
stroke="#ca9b3d"
x1="25.000000"
y1="540.000000"
x2="525.000000"
y2="540.000000"
stroke-dasharray="2 2"
stroke-width="1.000000"
/>
<line
stroke="#ca9b3d"
x1="95.000000"
y1="567.000000"
x2="95.000000"
y2="27.000000"
stroke-dasharray="2 2"
stroke-width="1.000000"
/>
<line
stroke="#ca9b3d"
x1="25.000000"
y1="483.299835"
x2="525.000000"
y2="483.299835"
stroke-dasharray="2 2"
stroke-width="1.000000"
/>
<line
stroke="#ca9b3d"
x1="132.485001"
y1="567.000000"
x2="132.485001"
y2="27.000000"
stroke-dasharray="2 2"
stroke-width="1.000000"
/>
<line
stroke="#ca9b3d"
x1="25.000000"
y1="430.649994"
x2="525.000000"
y2="430.649994"
stroke-dasharray="2 2"
stroke-width="1.000000"
/>
<line
stroke="#ca9b3d"
x1="500.000000"
y1="567.000000"
x2="500.000000"
y2="27.000000"
stroke-dasharray="2 2"
stroke-width="1.000000"
/>
<line
stroke="#ca9b3d"
x1="25.000000"
y1="54.000000"
x2="525.000000"
y2="54.000000"
stroke-dasharray="2 2"
stroke-width="1.000000"
/>
<line
stroke="#ca9b3d"
x1="443.750000"
y1="567.000000"
x2="443.750000"
y2="27.000000"
stroke-dasharray="2 2"
stroke-width="1.000000"
/>
<line
stroke="#ca9b3d"
x1="25.000000"
y1="248.399994"
x2="525.000000"
y2="248.399994"
stroke-dasharray="2 2"
stroke-width="1.000000"
/>
<line
stroke="#ca9b3d"
x1="374.000000"
y1="567.000000"
x2="374.000000"
y2="27.000000"
stroke-dasharray="2 2"
stroke-width="1.000000"
/>
<line
stroke="#ca9b3d"
x1="25.000000"
y1="110.700134"
x2="525.000000"
y2="110.700134"
stroke-dasharray="2 2"
stroke-width="1.000000"
/>
<line
stroke="#ca9b3d"
x1="268.250000"
y1="567.000000"
x2="268.250000"
y2="27.000000"
stroke-dasharray="2 2"
stroke-width="1.000000"
/>
<line
stroke="#ca9b3d"
x1="25.000000"
y1="258.848999"
x2="525.000000"
y2="258.848999"
stroke-dasharray="2 2"
stroke-width="1.000000"
/>
<line
stroke="#ca9b3d"
x1="317.750000"
y1="567.000000"
x2="317.750000"
y2="27.000000"
stroke-dasharray="2 2"
stroke-width="1.000000"
/>
<line
stroke="#ca9b3d"
x1="25.000000"
y1="185.220001"
x2="525.000000"
y2="185.220001"
stroke-dasharray="2 2"
stroke-width="1.000000"
/>
<line
stroke="#ca9b3d"
x1="368.375000"
y1="567.000000"
x2="368.375000"
y2="27.000000"
stroke-dasharray="2 2"
stroke-width="1.000000"
/>
<line
stroke="#ca9b3d"
x1="25.000000"
y1="155.250092"
x2="525.000000"
y2="155.250092"
stroke-dasharray="2 2"
stroke-width="1.000000"
/>
<line
stroke="#ca9b3d"
x1="179.375000"
y1="567.000000"
x2="179.375000"
y2="27.000000"
stroke-dasharray="2 2"
stroke-width="1.000000"
/>
<line
stroke="#ca9b3d"
x1="25.000000"
y1="285.578979"
x2="525.000000"
y2="285.578979"
stroke-dasharray="2 2"
stroke-width="1.000000"
/>
<line
stroke="#ca9b3d"
x1="25.000000"
y1="567.000000"
x2="25.000000"
y2="27.000000"
stroke-dasharray="2 2"
stroke-width="1.000000"
/>
<line
stroke="#ca9b3d"
x1="25.000000"
y1="27.000000"
x2="525.000000"
y2="27.000000"
stroke-dasharray="2 2"
stroke-width="1.000000"
/>
<line
stroke="#ca9b3d"
x1="525.000000"
y1="27.000000"
x2="525.000000"
y2="567.000000"
stroke-dasharray="2 2"
stroke-width="1.000000"
/>
<line
stroke="#ca9b3d"
x1="525.000000"
y1="567.000000"
x2="25.000000"
y2="567.000000"
stroke-dasharray="2 2"
stroke-width="1.000000"
/>
<path
fill="url(#diagonalFill)"
stroke="#ca9b3d"
stroke-width="3.000000"
d="
M   226.264999   316.988983
L   226.311798   316.099792
L   226.452194   315.304199
L   226.686203   314.602203
L   227.013794   313.993805
L   227.434998   313.479004
L   227.949799   313.057800
L   228.558197   312.730194
L   229.260193   312.496185
L   230.055801   312.355774
L   230.945007   312.308990
L   268.250000   312.308990
L   271.494995   312.390808
L   274.630005   312.636230
L   277.654999   313.045288
L   280.570007   313.617950
L   283.375000   314.354248
L   286.070007   315.254150
L   288.654999   316.317688
L   291.130005   317.544830
L   293.494995   318.935608
L   295.750000   320.489990
L   297.894989   322.208008
L   299.929993   324.089630
L   301.855011   326.134888
L   303.670013   328.343750
L   305.375000   330.716248
L   306.970001   333.252350
L   308.455017   335.952087
L   309.830017   338.815430
L   311.095001   341.842407
L   312.250000   345.032990
L   313.294983   348.387207
L   314.230011   351.905029
L   315.054993   355.586487
L   315.769989   359.431549
L   316.375000   363.440247
L   316.869995   367.612549
L   317.255005   371.948486
L   317.529999   376.448029
L   317.695007   381.111206
L   317.750000   385.937988
L   317.750000   411.227905
L   317.796814   412.117096
L   317.937195   412.912720
L   318.171204   413.614685
L   318.498810   414.223114
L   318.919983   414.737915
L   319.434814   415.159088
L   320.043213   415.486694
L   320.745209   415.720703
L   321.540802   415.861084
L   322.429993   415.907898
L   363.695007   415.907898
L   364.584167   415.861084
L   365.379822   415.720703
L   366.081787   415.486694
L   366.690216   415.159119
L   367.205017   414.737915
L   367.626221   414.223083
L   367.953796   413.614685
L   368.187805   412.912720
L   368.328186   412.117126
L   368.375000   411.227905
L   368.375000   169.650085
L   368.328186   168.760880
L   368.187805   167.965286
L   367.953796   167.263290
L   367.626221   166.654892
L   367.205017   166.140091
L   366.690216   165.718887
L   366.081787   165.391296
L   365.379822   165.157272
L   364.584167   165.016907
L   363.695007   164.970093
L   322.429993   164.970093
L   321.540802   165.016891
L   320.745209   165.157288
L   320.043213   165.391296
L   319.434814   165.718903
L   318.919983   166.140091
L   318.498810   166.654877
L   318.171204   167.263290
L   317.937195   167.965271
L   317.796814   168.760895
L   317.750000   169.650085
L   317.750000   185.220001
L   317.695007   190.046783
L   317.529999   194.709961
L   317.255005   199.209503
L   316.869995   203.545441
L   316.375000   207.717743
L   315.769989   211.726440
L   315.054993   215.571503
L   314.230011   219.252960
L   313.294983   222.770782
L   312.250000   226.125000
L   311.095001   229.315582
L   309.830017   232.342560
L   308.455017   235.205902
L   306.970001   237.905640
L   305.375000   240.441742
L   303.670013   242.814240
L   301.855011   245.023102
L   299.929993   247.068359
L   297.894989   248.949982
L   295.750000   250.667999
L   293.494995   252.222397
L   291.130005   253.613159
L   288.654999   254.840302
L   286.070007   255.903839
L   283.375000   256.803741
L   280.570007   257.540039
L   277.654999   258.112701
L   274.630005   258.521759
L   271.494995   258.767212
L   268.250000   258.848999
L   230.945007   258.848999
L   230.055801   258.802185
L   229.260193   258.661804
L   228.558197   258.427795
L   227.949799   258.100189
L   227.434998   257.679016
L   227.013794   257.164185
L   226.686203   256.555786
L   226.452194   255.853790
L   226.311798   255.058197
L   226.264999   254.169006
L   226.264999   115.380127
L   226.311798   114.490936
L   226.452194   113.695328
L   226.686203   112.993317
L   227.013794   112.384933
L   227.434998   111.870132
L   227.949799   111.448914
L   228.558197   111.121323
L   229.260193   110.887314
L   230.055801   110.746948
L   230.945007   110.700134
L   374.000000   110.700134
L   378.572510   110.847931
L   382.989990   111.291336
L   387.252502   112.030334
L   391.359985   113.064941
L   395.312500   114.395126
L   399.109985   116.020935
L   402.752502   117.942322
L   406.239990   120.159332
L   409.572510   122.671921
L   412.750000   125.480118
L   415.772491   128.583908
L   418.640015   131.983307
L   421.352478   135.678299
L   423.910004   139.668900
L   426.312500   143.955109
L   428.559998   148.536880
L   430.652466   153.414276
L   432.589996   158.587280
L   434.372498   164.055878
L   436.000000   169.820068
L   437.472504   175.879852
L   438.790009   182.235260
L   439.952515   188.886246
L   440.959991   195.832840
L   441.812500   203.075043
L   442.510010   210.612823
L   443.052490   218.446228
L   443.440002   226.575211
L   443.672485   234.999802
L   443.750000   243.720001
L   443.750000   243.720001
L   443.796814   244.609192
L   443.937195   245.404785
L   444.171204   246.106796
L   444.498779   246.715195
L   444.919983   247.229996
L   445.434814   247.651184
L   446.043182   247.978790
L   446.745209   248.212799
L   447.540771   248.353195
L   448.429993   248.399994
L   495.320007   248.399994
L   496.209198   248.353195
L   497.004822   248.212799
L   497.706787   247.978790
L   498.315216   247.651199
L   498.830017   247.229996
L   499.251221   246.715195
L   499.578796   246.106796
L   499.812836   245.404785
L   499.953186   244.609192
L   500.000000   243.720001
L   500.000000    58.679993
L   499.953186    57.790802
L   499.812805    56.995193
L   499.578796    56.293182
L   499.251190    55.684814
L   498.830017    55.169998
L   498.315216    54.748779
L   497.706787    54.421188
L   497.004822    54.187195
L   496.209198    54.046829
L   495.320007    54.000000
L   132.485001    54.000000
L    54.679993    54.000000
L    53.790802    54.046829
L    52.995178    54.187195
L    52.293198    54.421188
L    51.684784    54.748779
L    51.169998    55.169998
L    50.748810    55.684814
L    50.421204    56.293182
L    50.187195    56.995193
L    50.046799    57.790802
L    50.000000    58.679993
L    50.000000   106.020172
L    50.046814   106.909393
L    50.187164   107.704956
L    50.421204   108.406967
L    50.748795   109.015350
L    51.169998   109.530182
L    51.684784   109.951370
L    52.293198   110.278961
L    52.995178   110.512955
L    53.790802   110.653366
L    54.679993   110.700165
L    95.000000   110.700165
L    97.457367   110.758667
L    99.831390   110.934174
L   102.122162   111.226669
L   104.329590   111.636139
L   106.453751   112.162674
L   108.494598   112.806152
L   110.452148   113.566666
L   112.326385   114.444153
L   114.117340   115.438644
L   115.824997   116.550156
L   117.449356   117.778641
L   118.990402   119.124146
L   120.448151   120.586639
L   121.822601   122.166122
L   123.113754   123.862610
L   124.321594   125.676117
L   125.446152   127.606613
L   126.487411   129.654114
L   127.445343   131.818604
L   128.320007   134.100098
L   129.111359   136.498596
L   129.819397   139.014069
L   130.444153   141.646576
L   130.985596   144.396072
L   131.443741   147.262558
L   131.818604   150.246063
L   132.110153   153.346542
L   132.318405   156.564026
L   132.443359   159.898529
L   132.485001   163.350006
L   132.485001   430.649994
L   132.443359   434.101471
L   132.318405   437.435974
L   132.110153   440.653442
L   131.818604   443.753937
L   131.443741   446.737427
L   130.985596   449.603943
L   130.444153   452.353424
L   129.819397   454.985931
L   129.111359   457.501404
L   128.320007   459.899902
L   127.445343   462.181396
L   126.487411   464.345886
L   125.446152   466.393372
L   124.321594   468.323883
L   123.113754   470.137390
L   121.822601   471.833862
L   120.448151   473.413361
L   118.990402   474.875854
L   117.449356   476.221375
L   115.824997   477.449829
L   114.117340   478.561340
L   112.326385   479.555847
L   110.452148   480.433350
L   108.494598   481.193848
L   106.453751   481.837341
L   104.329590   482.363861
L   102.122162   482.773315
L    99.831390   483.065826
L    97.457367   483.241333
L    95.000000   483.299835
L    54.679993   483.299835
L    53.790802   483.346619
L    52.995178   483.487061
L    52.293198   483.721039
L    51.684784   484.048645
L    51.169998   484.469818
L    50.748795   484.984650
L    50.421204   485.593018
L    50.187164   486.295044
L    50.046814   487.090607
L    50.000000   487.979828
L    50.000000   535.320007
L    50.046799   536.209229
L    50.187195   537.004822
L    50.421204   537.706787
L    50.748810   538.315186
L    51.169998   538.830017
L    51.684784   539.251221
L    52.293198   539.578796
L    52.995178   539.812805
L    53.790802   539.953186
L    54.679993   540.000000
L   132.485001   540.000000
L   226.264999   540.000000
L   304.070007   540.000000
L   304.959198   539.953186
L   305.754822   539.812805
L   306.456787   539.578796
L   307.065216   539.251221
L   307.580017   538.830017
L   308.001190   538.315186
L   308.328796   537.706787
L   308.562805   537.004822
L   308.703186   536.209229
L   308.750000   535.320007
L   308.750000   487.979828
L   308.703186   487.090607
L   308.562836   486.295044
L   308.328796   485.593018
L   308.001221   484.984650
L   307.580017   484.469818
L   307.065216   484.048645
L   306.456787   483.721039
L   305.754822   483.487061
L   304.959198   483.346619
L   304.070007   483.299835
L   263.750000   483.299835
L   261.292633   483.241333
L   258.918610   483.065826
L   256.627838   482.773315
L   254.420410   482.363861
L   252.296249   481.837341
L   250.255402   481.193848
L   248.297852   480.433350
L   246.423615   479.555847
L   244.632660   478.561340
L   242.925003   477.449829
L   241.300644   476.221375
L   239.759598   474.875854
L   238.301849   473.413361
L   236.927399   471.833862
L   235.636246   470.137390
L   234.428406   468.323883
L   233.303848   466.393372
L   232.262589   464.345886
L   231.304657   462.181396
L   230.429993   459.899902
L   229.638641   457.501404
L   228.930603   454.985931
L   228.305847   452.353424
L   227.764404   449.603943
L   227.306259   446.737427
L   226.931396   443.753937
L   226.639847   440.653442
L   226.431595   437.435974
L   226.306641   434.101471
L   226.264999   430.649994 z
M    50.000000   567.000000
L    48.361130   566.969971
L    46.777771   566.880005
L    45.250015   566.729980
L    43.777756   566.520020
L    42.361099   566.250000
L    41.000000   565.919983
L    39.694458   565.530029
L    38.444427   565.080017
L    37.250000   564.569946
L    36.111130   564.000000
L    35.027771   563.369995
L    34.000000   562.679993
L    33.027771   561.929993
L    32.111115   561.119995
L    31.250000   560.250000
L    30.444427   559.320007
L    29.694427   558.329956
L    29.000000   557.280029
L    28.361115   556.169983
L    27.777771   555.000000
L    27.250000   553.770020
L    26.777771   552.479980
L    26.361115   551.130005
L    26.000000   549.719971
L    25.694427   548.250000
L    25.444458   546.719971
L    25.250000   545.130005
L    25.111115   543.479980
L    25.027786   541.770020
L    25.000000   540.000000
L    25.000000    54.000000
L    25.027786    52.230026
L    25.111115    50.520004
L    25.250015    48.870010
L    25.444427    47.279984
L    25.694458    45.750000
L    26.000000    44.279999
L    26.361115    42.870010
L    26.777771    41.519989
L    27.250000    40.230011
L    27.777802    39.000031
L    28.361115    37.830017
L    29.000000    36.720001
L    29.694458    35.670013
L    30.444427    34.679993
L    31.250000    33.750000
L    32.111115    32.880005
L    33.027771    32.070007
L    34.000000    31.320007
L    35.027786    30.630005
L    36.111115    30.000000
L    37.250000    29.429993
L    38.444443    28.920013
L    39.694443    28.469971
L    41.000000    28.080017
L    42.361115    27.750000
L    43.777802    27.480011
L    45.250000    27.270020
L    46.777771    27.119995
L    48.361115    27.029999
L    50.000000    27.000000
L   500.000000    27.000000
L   501.638855    27.030029
L   503.222229    27.120026
L   504.750000    27.270020
L   506.222229    27.479980
L   507.638916    27.750000
L   509.000000    28.080017
L   510.305542    28.470001
L   511.555573    28.919983
L   512.750000    29.430023
L   513.888855    30.000031
L   514.972229    30.630005
L   516.000000    31.320007
L   516.972229    32.070007
L   517.888916    32.879974
L   518.750000    33.750000
L   519.555542    34.679993
L   520.305542    35.670013
L   521.000000    36.720001
L   521.638916    37.830017
L   522.222229    39.000000
L   522.750000    40.230011
L   523.222229    41.519989
L   523.638916    42.869995
L   524.000000    44.280014
L   524.305542    45.750000
L   524.555542    47.280014
L   524.750000    48.869995
L   524.888916    50.520004
L   524.972229    52.230011
L   525.000000    54.000000
L   525.000000   540.000000
L   524.972229   541.769958
L   524.888916   543.479980
L   524.750000   545.130005
L   524.555542   546.720032
L   524.305542   548.250000
L   524.000000   549.719971
L   523.638916   551.130005
L   523.222229   552.479980
L   522.750000   553.770020
L   522.222168   555.000000
L   521.638916   556.169983
L   521.000000   557.280029
L   520.305542   558.329956
L   519.555542   559.320007
L   518.750000   560.250000
L   517.888916   561.119995
L   516.972229   561.929993
L   516.000000   562.679993
L   514.972229   563.369995
L   513.888916   564.000000
L   512.750000   564.570007
L   511.555542   565.079956
L   510.305542   565.530029
L   509.000000   565.919983
L   507.638885   566.250000
L   506.222198   566.520020
L   504.750000   566.729980
L   503.222229   566.880005
L   501.638885   566.969971
L   500.000000   567.000000 z
"
/>
<circle
fill="none"
stroke="#ca9b3d"
cx="132.485001"
cy="540.000000"
r="5.000000"
/>
<text
x="132.485001"
y="540.000000"
text-anchor="middle"
alignment-baseline="central"
fill="#ca9b3d"
font-size="0"
font-family="Arial"
>
1
</text>
<circle
fill="none"
stroke="#ca9b3d"
cx="50.000000"
cy="540.000000"
r="5.000000"
/>
<text
x="50.000000"
y="540.000000"
text-anchor="middle"
alignment-baseline="central"
fill="#ca9b3d"
font-size="0"
font-family="Arial"
>
2
</text>
<circle
fill="none"
stroke="#ca9b3d"
cx="50.000000"
cy="483.299835"
r="5.000000"
/>
<text
x="50.000000"
y="483.299835"
text-anchor="middle"
alignment-baseline="central"
fill="#ca9b3d"
font-size="0"
font-family="Arial"
>
3
</text>
<circle
fill="none"
stroke="#ca9b3d"
cx="95.000000"
cy="483.299835"
r="5.000000"
/>
<text
x="95.000000"
y="483.299835"
text-anchor="middle"
alignment-baseline="central"
fill="#ca9b3d"
font-size="0"
font-family="Arial"
>
4
</text>
<circle
fill="none"
stroke="#ca9b3d"
cx="132.485001"
cy="483.299835"
r="5.000000"
/>
<text
x="132.485001"
y="483.299835"
text-anchor="middle"
alignment-baseline="central"
fill="#ca9b3d"
font-size="0"
font-family="Arial"
>
5
</text>
<circle
fill="none"
stroke="#ca9b3d"
cx="132.485001"
cy="430.649994"
r="5.000000"
/>
<text
x="132.485001"
y="430.649994"
text-anchor="middle"
alignment-baseline="central"
fill="#ca9b3d"
font-size="0"
font-family="Arial"
>
6
</text>
<circle
fill="none"
stroke="#ca9b3d"
cx="500.000000"
cy="54.000000"
r="5.000000"
/>
<text
x="500.000000"
y="54.000000"
text-anchor="middle"
alignment-baseline="central"
fill="#ca9b3d"
font-size="0"
font-family="Arial"
>
7
</text>
<circle
fill="none"
stroke="#ca9b3d"
cx="500.000000"
cy="248.399994"
r="5.000000"
/>
<text
x="500.000000"
y="248.399994"
text-anchor="middle"
alignment-baseline="central"
fill="#ca9b3d"
font-size="0"
font-family="Arial"
>
8
</text>
<circle
fill="none"
stroke="#ca9b3d"
cx="443.750000"
cy="248.399994"
r="5.000000"
/>
<text
x="443.750000"
y="248.399994"
text-anchor="middle"
alignment-baseline="central"
fill="#ca9b3d"
font-size="0"
font-family="Arial"
>
9
</text>
<circle
fill="none"
stroke="#ca9b3d"
cx="443.750000"
cy="110.700134"
r="5.000000"
/>
<text
x="443.750000"
y="110.700134"
text-anchor="middle"
alignment-baseline="central"
fill="#ca9b3d"
font-size="0"
font-family="Arial"
>
10
</text>
<circle
fill="none"
stroke="#ca9b3d"
cx="374.000000"
cy="110.700134"
r="5.000000"
/>
<text
x="374.000000"
y="110.700134"
text-anchor="middle"
alignment-baseline="central"
fill="#ca9b3d"
font-size="0"
font-family="Arial"
>
11
</text>
<circle
fill="none"
stroke="#ca9b3d"
cx="226.264999"
cy="110.700134"
r="5.000000"
/>
<text
x="226.264999"
y="110.700134"
text-anchor="middle"
alignment-baseline="central"
fill="#ca9b3d"
font-size="0"
font-family="Arial"
>
12
</text>
<circle
fill="none"
stroke="#ca9b3d"
cx="226.264999"
cy="258.848999"
r="5.000000"
/>
<text
x="226.264999"
y="258.848999"
text-anchor="middle"
alignment-baseline="central"
fill="#ca9b3d"
font-size="0"
font-family="Arial"
>
13
</text>
<circle
fill="none"
stroke="#ca9b3d"
cx="268.250000"
cy="258.848999"
r="5.000000"
/>
<text
x="268.250000"
y="258.848999"
text-anchor="middle"
alignment-baseline="central"
fill="#ca9b3d"
font-size="0"
font-family="Arial"
>
14
</text>
<circle
fill="none"
stroke="#ca9b3d"
cx="317.750000"
cy="258.848999"
r="5.000000"
/>
<text
x="317.750000"
y="258.848999"
text-anchor="middle"
alignment-baseline="central"
fill="#ca9b3d"
font-size="0"
font-family="Arial"
>
15
</text>
<circle
fill="none"
stroke="#ca9b3d"
cx="317.750000"
cy="185.220001"
r="5.000000"
/>
<text
x="317.750000"
y="185.220001"
text-anchor="middle"
alignment-baseline="central"
fill="#ca9b3d"
font-size="0"
font-family="Arial"
>
16
</text>
<circle
fill="none"
stroke="#ca9b3d"
cx="317.750000"
cy="155.250092"
r="5.000000"
/>
<text
x="317.750000"
y="155.250092"
text-anchor="middle"
alignment-baseline="central"
fill="#ca9b3d"
font-size="0"
font-family="Arial"
>
17
</text>
<circle
fill="none"
stroke="#ca9b3d"
cx="368.375000"
cy="155.250092"
r="5.000000"
/>
<text
x="368.375000"
y="155.250092"
text-anchor="middle"
alignment-baseline="central"
fill="#ca9b3d"
font-size="0"
font-family="Arial"
>
18
</text>
<circle
fill="none"
stroke="#ca9b3d"
cx="50.000000"
cy="567.000000"
r="5.000000"
/>
<text
x="50.000000"
y="567.000000"
text-anchor="middle"
alignment-baseline="central"
fill="#ca9b3d"
font-size="0"
font-family="Arial"
>
A
</text>
<circle
fill="none"
stroke="#ca9b3d"
cx="25.000000"
cy="567.000000"
r="5.000000"
/>
<text
x="25.000000"
y="567.000000"
text-anchor="middle"
alignment-baseline="central"
fill="#ca9b3d"
font-size="0"
font-family="Arial"
>
B
</text>
<circle
fill="none"
stroke="#ca9b3d"
cx="25.000000"
cy="540.000000"
r="5.000000"
/>
<text
x="25.000000"
y="540.000000"
text-anchor="middle"
alignment-baseline="central"
fill="#ca9b3d"
font-size="0"
font-family="Arial"
>
C
</text>
<circle
fill="none"
stroke="#ca9b3d"
cx="25.000000"
cy="54.000000"
r="5.000000"
/>
<text
x="25.000000"
y="54.000000"
text-anchor="middle"
alignment-baseline="central"
fill="#ca9b3d"
font-size="0"
font-family="Arial"
>
D
</text>
<circle
fill="none"
stroke="#ca9b3d"
cx="25.000000"
cy="27.000000"
r="5.000000"
/>
<text
x="25.000000"
y="27.000000"
text-anchor="middle"
alignment-baseline="central"
fill="#ca9b3d"
font-size="0"
font-family="Arial"
>
E
</text>
<circle
fill="none"
stroke="#ca9b3d"
cx="50.000000"
cy="27.000000"
r="5.000000"
/>
<text
x="50.000000"
y="27.000000"
text-anchor="middle"
alignment-baseline="central"
fill="#ca9b3d"
font-size="0"
font-family="Arial"
>
F
</text>
<circle
fill="none"
stroke="#ca9b3d"
cx="500.000000"
cy="27.000000"
r="5.000000"
/>
<text
x="500.000000"
y="27.000000"
text-anchor="middle"
alignment-baseline="central"
fill="#ca9b3d"
font-size="0"
font-family="Arial"
>
G
</text>
<circle
fill="none"
stroke="#ca9b3d"
cx="525.000000"
cy="27.000000"
r="5.000000"
/>
<text
x="525.000000"
y="27.000000"
text-anchor="middle"
alignment-baseline="central"
fill="#ca9b3d"
font-size="0"
font-family="Arial"
>
H
</text>
<circle
fill="none"
stroke="#ca9b3d"
cx="525.000000"
cy="54.000000"
r="5.000000"
/>
<text
x="525.000000"
y="54.000000"
text-anchor="middle"
alignment-baseline="central"
fill="#ca9b3d"
font-size="0"
font-family="Arial"
>
I
</text>
<circle
fill="none"
stroke="#ca9b3d"
cx="525.000000"
cy="540.000000"
r="5.000000"
/>
<text
x="525.000000"
y="540.000000"
text-anchor="middle"
alignment-baseline="central"
fill="#ca9b3d"
font-size="0"
font-family="Arial"
>
J
</text>
<circle
fill="none"
stroke="#ca9b3d"
cx="525.000000"
cy="567.000000"
r="5.000000"
/>
<text
x="525.000000"
y="567.000000"
text-anchor="middle"
alignment-baseline="central"
fill="#ca9b3d"
font-size="0"
font-family="Arial"
>
K
</text>
<circle
fill="none"
stroke="#ca9b3d"
cx="500.000000"
cy="567.000000"
r="5.000000"
/>
<text
x="500.000000"
y="567.000000"
text-anchor="middle"
alignment-baseline="central"
fill="#ca9b3d"
font-size="0"
font-family="Arial"
>
L
</text>
<circle
fill="none"
stroke="#ca9b3d"
cx="179.375000"
cy="285.578979"
r="5.000000"
/>
<text
x="179.375000"
y="285.578979"
text-anchor="middle"
alignment-baseline="central"
fill="#ca9b3d"
font-size="0"
font-family="Arial"
>
R
</text>
</svg>
