<?xml version="1.0" encoding="utf-8" standalone="no" ?>
<svg xmlns="http://www.w3.org/2000/svg" width="720.000000" height="770.400024" > 
<title>Fortran Logo</title>
<desc>Generated by Fortran Logo Generator</desc>
<pattern
id="diagonalFill"
width="2"
height="2"
patternUnits="userSpaceOnUse"
patternTransform="rotate(45)"
>
<rect
x=".000000"
y=".000000"
width="1.000000"
height="1.000000"
fill="#6d5192"
/>
</pattern>
<line
stroke="#6d5192"
x1="99.085083"
y1="706.200012"
x2="99.085083"
y2="64.200012"
stroke-dasharray="2 2"
stroke-width=".500000"
/>
<line
stroke="#6d5192"
x1="60.000000"
y1="666.778931"
x2="660.000000"
y2="666.778931"
stroke-dasharray="2 2"
stroke-width=".500000"
/>
<line
stroke="#6d5192"
x1="151.268066"
y1="706.200012"
x2="151.268066"
y2="64.200012"
stroke-dasharray="2 2"
stroke-width=".500000"
/>
<line
stroke="#6d5192"
x1="60.000000"
y1="601.077026"
x2="660.000000"
y2="601.077026"
stroke-dasharray="2 2"
stroke-width=".500000"
/>
<line
stroke="#6d5192"
x1="194.753967"
y1="706.200012"
x2="194.753967"
y2="64.200012"
stroke-dasharray="2 2"
stroke-width=".500000"
/>
<line
stroke="#6d5192"
x1="60.000000"
y1="554.147400"
x2="660.000000"
y2="554.147400"
stroke-dasharray="2 2"
stroke-width=".500000"
/>
<line
stroke="#6d5192"
x1="620.914917"
y1="706.200012"
x2="620.914917"
y2="64.200012"
stroke-dasharray="2 2"
stroke-width=".500000"
/>
<line
stroke="#6d5192"
x1="60.000000"
y1="103.621063"
x2="660.000000"
y2="103.621063"
stroke-dasharray="2 2"
stroke-width=".500000"
/>
<line
stroke="#6d5192"
x1="560.034607"
y1="706.200012"
x2="560.034607"
y2="64.200012"
stroke-dasharray="2 2"
stroke-width=".500000"
/>
<line
stroke="#6d5192"
x1="60.000000"
y1="328.884216"
x2="660.000000"
y2="328.884216"
stroke-dasharray="2 2"
stroke-width=".500000"
/>
<line
stroke="#6d5192"
x1="468.714386"
y1="706.200012"
x2="468.714386"
y2="64.200012"
stroke-dasharray="2 2"
stroke-width=".500000"
/>
<line
stroke="#6d5192"
x1="60.000000"
y1="169.323013"
x2="660.000000"
y2="169.323013"
stroke-dasharray="2 2"
stroke-width=".500000"
/>
<line
stroke="#6d5192"
x1="360.000000"
y1="706.200012"
x2="360.000000"
y2="64.200012"
stroke-dasharray="2 2"
stroke-width=".500000"
/>
<line
stroke="#6d5192"
x1="60.000000"
y1="342.963165"
x2="660.000000"
y2="342.963165"
stroke-dasharray="2 2"
stroke-width=".500000"
/>
<line
stroke="#6d5192"
x1="412.182983"
y1="706.200012"
x2="412.182983"
y2="64.200012"
stroke-dasharray="2 2"
stroke-width=".500000"
/>
<line
stroke="#6d5192"
x1="60.000000"
y1="244.410538"
x2="660.000000"
y2="244.410538"
stroke-dasharray="2 2"
stroke-width=".500000"
/>
<line
stroke="#6d5192"
x1="477.411713"
y1="706.200012"
x2="477.411713"
y2="64.200012"
stroke-dasharray="2 2"
stroke-width=".500000"
/>
<line
stroke="#6d5192"
x1="60.000000"
y1="220.945709"
x2="660.000000"
y2="220.945709"
stroke-dasharray="2 2"
stroke-width=".500000"
/>
<line
stroke="#6d5192"
x1="247.806580"
y1="706.200012"
x2="247.806580"
y2="64.200012"
stroke-dasharray="2 2"
stroke-width=".500000"
/>
<line
stroke="#6d5192"
x1="60.000000"
y1="373.936859"
x2="660.000000"
y2="373.936859"
stroke-dasharray="2 2"
stroke-width=".500000"
/>
<line
stroke="#6d5192"
x1="60.000000"
y1="706.200012"
x2="60.000000"
y2="64.200012"
stroke-dasharray="2 2"
stroke-width=".500000"
/>
<line
stroke="#6d5192"
x1="60.000000"
y1="64.200012"
x2="660.000000"
y2="64.200012"
stroke-dasharray="2 2"
stroke-width=".500000"
/>
<line
stroke="#6d5192"
x1="660.000000"
y1="64.200012"
x2="660.000000"
y2="706.200012"
stroke-dasharray="2 2"
stroke-width=".500000"
/>
<line
stroke="#6d5192"
x1="660.000000"
y1="706.200012"
x2="60.000000"
y2="706.200012"
stroke-dasharray="2 2"
stroke-width=".500000"
/>
<path
fill="url(#diagonalFill)"
stroke="#6d5192"
stroke-width="2.000000"
d="
M   300.859192   554.147400
L   300.859192   410.910553
L   300.919220   409.770538
L   301.099213   408.750549
L   301.399200   407.850525
L   301.819214   407.070557
L   302.359192   406.410553
L   303.019226   405.870544
L   303.799194   405.450531
L   304.699219   405.150543
L   305.719208   404.970551
L   306.859192   404.910553
L   360.000000   404.910553
L   363.420898   405.020050
L   366.725800   405.348572
L   369.914764   405.896057
L   372.987762   406.662598
L   375.944794   407.648132
L   378.785889   408.852661
L   381.510986   410.276184
L   384.120148   411.918732
L   386.613312   413.780273
L   388.990540   415.860840
L   391.251801   418.160400
L   393.397095   420.678955
L   395.426453   423.416534
L   397.339844   426.373108
L   399.137238   429.548706
L   400.818695   432.943298
L   402.384186   436.556885
L   403.833710   440.389465
L   405.167267   444.441101
L   406.384888   448.711700
L   407.486511   453.201324
L   408.472198   457.909943
L   409.341919   462.837585
L   410.095673   467.984222
L   410.733459   473.349884
L   411.255280   478.934509
L   411.661163   484.738159
L   411.951050   490.760834
L   412.125000   497.002502
L   412.182983   503.463196
L   412.182983   520.927979
L   412.242981   522.067993
L   412.422974   523.088013
L   412.722992   523.987976
L   413.142975   524.768005
L   413.682983   525.427979
L   414.342987   525.968018
L   415.122986   526.388000
L   416.022980   526.687988
L   417.042969   526.868042
L   418.182983   526.927979
L   471.411713   526.927979
L   472.551697   526.868042
L   473.571716   526.687988
L   474.471710   526.388000
L   475.251709   525.968018
L   475.911713   525.427979
L   476.451721   524.768005
L   476.871704   523.988037
L   477.171722   523.088013
L   477.351715   522.067993
L   477.411713   520.927979
L   477.411713   238.208862
L   477.351715   237.068863
L   477.171722   236.048859
L   476.871704   235.148865
L   476.451721   234.368866
L   475.911713   233.708862
L   475.251709   233.168854
L   474.471710   232.748871
L   473.571716   232.448853
L   472.551697   232.268860
L   471.411713   232.208862
L   418.182983   232.208862
L   417.042969   232.268860
L   416.022980   232.448853
L   415.122986   232.748871
L   414.342987   233.168869
L   413.682983   233.708862
L   413.142975   234.368851
L   412.722992   235.148880
L   412.422974   236.048843
L   412.242981   237.068878
L   412.182983   238.208862
L   412.182983   244.410538
L   412.125000   250.871201
L   411.951050   257.112854
L   411.661163   263.135529
L   411.255280   268.939178
L   410.733459   274.523834
L   410.095673   279.889465
L   409.341919   285.036102
L   408.472198   289.963745
L   407.486511   294.672363
L   406.384888   299.161987
L   405.167267   303.432617
L   403.833710   307.484222
L   402.384186   311.316833
L   400.818695   314.930420
L   399.137238   318.325012
L   397.339844   321.500610
L   395.426453   324.457184
L   393.397095   327.194763
L   391.251801   329.713318
L   388.990540   332.012878
L   386.613312   334.093445
L   384.120148   335.954987
L   381.510986   337.597534
L   378.785889   339.021057
L   375.944794   340.225586
L   372.987762   341.211121
L   369.914764   341.977661
L   366.725800   342.525146
L   363.420898   342.853668
L   360.000000   342.963165
L   306.859192   342.963165
L   305.719208   342.903168
L   304.699219   342.723175
L   303.799194   342.423157
L   303.019226   342.003174
L   302.359192   341.463165
L   301.819214   340.803162
L   301.399200   340.023163
L   301.099213   339.123169
L   300.919220   338.103180
L   300.859192   336.963165
L   300.859192   175.323013
L   300.919220   174.183014
L   301.099213   173.163010
L   301.399200   172.263016
L   301.819214   171.483017
L   302.359192   170.823013
L   303.019196   170.283005
L   303.799194   169.863022
L   304.699219   169.563004
L   305.719208   169.383041
L   306.859192   169.323013
L   468.714386   169.323013
L   474.700928   169.493652
L   480.484528   170.005508
L   486.065216   170.858627
L   491.442932   172.052994
L   496.617798   173.588593
L   501.589661   175.465454
L   506.358582   177.683563
L   510.924622   180.242920
L   515.287659   183.143524
L   519.447815   186.385376
L   523.405029   189.968460
L   527.159302   193.892807
L   530.710693   198.158386
L   534.059082   202.765228
L   537.204529   207.713318
L   540.147095   213.002640
L   542.886719   218.633224
L   545.423340   224.605042
L   547.757080   230.918106
L   549.887878   237.572449
L   551.815796   244.568008
L   553.540710   251.904816
L   555.062744   259.582886
L   556.381775   267.602173
L   557.497925   275.962738
L   558.411133   284.664551
L   559.121399   293.707581
L   559.628723   303.091888
L   559.933105   312.817444
L   560.034607   322.884216
L   560.034607   322.884216
L   560.094604   324.024231
L   560.274597   325.044220
L   560.574585   325.944214
L   560.994629   326.724213
L   561.534607   327.384216
L   562.194580   327.924225
L   562.974609   328.344238
L   563.874634   328.644226
L   564.894592   328.824219
L   566.034607   328.884216
L   614.914917   328.884216
L   616.054932   328.824219
L   617.074951   328.644226
L   617.974915   328.344238
L   618.754883   327.924225
L   619.414917   327.384216
L   619.954956   326.724213
L   620.374878   325.944214
L   620.674927   325.044220
L   620.854919   324.024231
L   620.914917   322.884216
L   620.914917   109.621063
L   620.854919   108.481079
L   620.674927   107.461060
L   620.374878   106.561066
L   619.954956   105.781067
L   619.414917   105.121063
L   618.754944   104.581055
L   617.974915   104.161072
L   617.074951   103.861053
L   616.054932   103.681061
L   614.914917   103.621063
L   194.753967   103.621063
L   105.085083   103.621063
L   103.945099   103.681061
L   102.925079   103.861053
L   102.025085   104.161072
L   101.245056   104.581055
L   100.585083   105.121063
L   100.045074   105.781067
L    99.625092   106.561066
L    99.325073   107.461060
L    99.145081   108.481079
L    99.085083   109.621063
L    99.085083   163.323013
L    99.145081   164.463028
L    99.325043   165.483002
L    99.625092   166.383026
L   100.045074   167.162994
L   100.585083   167.823013
L   101.245087   168.363007
L   102.025085   168.783020
L   102.925079   169.083008
L   103.945099   169.263016
L   105.085083   169.323013
L   151.268066   169.323013
L   154.118820   169.375168
L   156.872925   169.531586
L   159.530380   169.792328
L   162.091202   170.157318
L   164.555435   170.626617
L   166.922989   171.200211
L   169.193924   171.878082
L   171.368225   172.660217
L   173.445877   173.546692
L   175.426910   174.537430
L   177.311295   175.632431
L   179.099060   176.831757
L   180.790161   178.135361
L   182.384628   179.543243
L   183.882492   181.055420
L   185.283707   182.671875
L   186.588287   184.392639
L   187.796234   186.217682
L   188.907532   188.147003
L   189.922195   190.180634
L   190.840240   192.318542
L   191.661636   194.560730
L   192.386398   196.907211
L   193.014526   199.357986
L   193.546021   201.913025
L   193.980896   204.572388
L   194.319092   207.336014
L   194.560699   210.203934
L   194.705658   213.176147
L   194.753967   216.252640
L   194.753967   554.147400
L   194.705658   557.223877
L   194.560699   560.196106
L   194.319092   563.064026
L   193.980896   565.827637
L   193.546021   568.487000
L   193.014526   571.042053
L   192.386398   573.492798
L   191.661636   575.839294
L   190.840240   578.081482
L   189.922195   580.219360
L   188.907532   582.253052
L   187.796234   584.182373
L   186.588287   586.007385
L   185.283707   587.728149
L   183.882492   589.344604
L   182.384628   590.856812
L   180.790161   592.264648
L   179.099060   593.568237
L   177.311295   594.767578
L   175.426910   595.862610
L   173.445877   596.853333
L   171.368225   597.739807
L   169.193924   598.521973
L   166.922989   599.199829
L   164.555435   599.773438
L   162.091202   600.242676
L   159.530380   600.607666
L   156.872925   600.868408
L   154.118820   601.024841
L   151.268066   601.077026
L   105.085083   601.077026
L   103.945099   601.137024
L   102.925079   601.317017
L   102.025085   601.617004
L   101.245087   602.036987
L   100.585083   602.577026
L   100.045074   603.237061
L    99.625092   604.016968
L    99.325043   604.916992
L    99.145081   605.937012
L    99.085083   607.077026
L    99.085083   660.778931
L    99.145081   661.918945
L    99.325073   662.938965
L    99.625092   663.838989
L   100.045074   664.618958
L   100.585083   665.278931
L   101.245056   665.818970
L   102.025085   666.238953
L   102.925079   666.538940
L   103.945099   666.718994
L   105.085083   666.778931
L   194.753967   666.778931
L   300.859192   666.778931
L   390.528076   666.778931
L   391.668060   666.718994
L   392.688080   666.538940
L   393.588074   666.238953
L   394.368103   665.818970
L   395.028076   665.278931
L   395.568085   664.618958
L   395.988068   663.838989
L   396.288086   662.938965
L   396.468079   661.918945
L   396.528076   660.778931
L   396.528076   607.077026
L   396.468079   605.937012
L   396.288116   604.916992
L   395.988068   604.016968
L   395.568085   603.237061
L   395.028076   602.577026
L   394.368073   602.036987
L   393.588074   601.617004
L   392.688080   601.317017
L   391.668060   601.137024
L   390.528076   601.077026
L   344.345093   601.077026
L   341.494354   601.024841
L   338.740234   600.868408
L   336.082794   600.607666
L   333.521973   600.242676
L   331.057739   599.773438
L   328.690186   599.199829
L   326.419250   598.521973
L   324.244934   597.739807
L   322.167297   596.853333
L   320.186279   595.862610
L   318.301880   594.767578
L   316.514099   593.568237
L   314.822998   592.264648
L   313.228546   590.856812
L   311.730682   589.344604
L   310.329468   587.728149
L   309.024902   586.007385
L   307.816956   584.182373
L   306.705627   582.253052
L   305.690979   580.219360
L   304.772949   578.081482
L   303.951538   575.839294
L   303.226776   573.492798
L   302.598633   571.042053
L   302.067139   568.487000
L   301.632263   565.827637
L   301.294067   563.064026
L   301.052490   560.196106
L   300.907532   557.223877
L   300.859192   554.147400 z
M    99.085052   706.200012
L    96.522827   706.156189
L    94.047424   706.024780
L    91.658905   705.805786
L    89.357208   705.499207
L    87.142395   705.104980
L    85.014435   704.623169
L    82.973297   704.053711
L    81.019073   703.396729
L    79.151672   702.652100
L    77.371155   701.819885
L    75.677429   700.900024
L    74.070618   699.892639
L    72.550659   698.797607
L    71.117493   697.614990
L    69.771271   696.344727
L    68.511841   694.986938
L    67.339294   693.541504
L    66.253601   692.008423
L    65.254761   690.387817
L    64.342773   688.679565
L    63.517639   686.883728
L    62.779388   685.000244
L    62.127960   683.029175
L    61.563416   680.970520
L    61.085693   678.824280
L    60.694855   676.590393
L    60.390869   674.268921
L    60.173706   671.859863
L    60.043427   669.363220
L    60.000000   666.778931
L    60.000000   103.621063
L    60.043427   101.036804
L    60.173706    98.540131
L    60.390839    96.131073
L    60.694824    93.809601
L    61.085693    91.575775
L    61.563416    89.429504
L    62.127960    87.370850
L    62.779358    85.399780
L    63.517639    83.516296
L    64.342834    81.720520
L    65.254761    80.012207
L    66.253601    78.391602
L    67.339325    76.858551
L    68.511841    75.413116
L    69.771271    74.055267
L    71.117523    72.785034
L    72.550659    71.602417
L    74.070618    70.507385
L    75.677429    69.499969
L    77.371155    68.580139
L    79.151672    67.747894
L    81.019104    67.003296
L    82.973328    66.346252
L    85.014435    65.776855
L    87.142395    65.295044
L    89.357239    64.900818
L    91.658875    64.594238
L    94.047424    64.375214
L    96.522827    64.243805
L    99.085052    64.200012
L   620.914917    64.200012
L   623.477173    64.243835
L   625.952576    64.375244
L   628.341064    64.594238
L   630.642822    64.900818
L   632.857605    65.295074
L   634.985596    65.776886
L   637.026733    66.346283
L   638.980957    67.003265
L   640.848328    67.747925
L   642.628845    68.580139
L   644.322571    69.499969
L   645.929382    70.507385
L   647.449341    71.602417
L   648.882507    72.785034
L   650.228760    74.055267
L   651.488159    75.413116
L   652.660706    76.858551
L   653.746399    78.391602
L   654.745239    80.012238
L   655.657227    81.720490
L   656.482361    83.516296
L   657.220581    85.399780
L   657.872070    87.370819
L   658.436584    89.429504
L   658.914307    91.575745
L   659.305176    93.809631
L   659.609131    96.131073
L   659.826294    98.540131
L   659.956543   101.036804
L   660.000000   103.621063
L   660.000000   666.778931
L   659.956543   669.363220
L   659.826294   671.859863
L   659.609131   674.268921
L   659.305176   676.590454
L   658.914307   678.824219
L   658.436584   680.970520
L   657.872070   683.029175
L   657.220642   685.000244
L   656.482361   686.883728
L   655.657166   688.679504
L   654.745239   690.387817
L   653.746399   692.008423
L   652.660645   693.541504
L   651.488159   694.986938
L   650.228760   696.344727
L   648.882446   697.614990
L   647.449341   698.797607
L   645.929382   699.892639
L   644.322571   700.900024
L   642.628845   701.819885
L   640.848328   702.652100
L   638.980896   703.396729
L   637.026672   704.053772
L   634.985596   704.623169
L   632.857605   705.104980
L   630.642761   705.499207
L   628.341125   705.805786
L   625.952576   706.024780
L   623.477173   706.156250
L   620.914917   706.200012
L    99.085052   706.200012 z
"
/>
<circle
fill="none"
stroke="#6d5192"
cx="194.753967"
cy="666.778931"
r="5.000000"
/>
<text
x="194.753967"
y="666.778931"
text-anchor="middle"
alignment-baseline="central"
fill="#6d5192"
font-size="0"
font-family="Arial"
>
1
</text>
<circle
fill="none"
stroke="#6d5192"
cx="99.085083"
cy="666.778931"
r="5.000000"
/>
<text
x="99.085083"
y="666.778931"
text-anchor="middle"
alignment-baseline="central"
fill="#6d5192"
font-size="0"
font-family="Arial"
>
2
</text>
<circle
fill="none"
stroke="#6d5192"
cx="99.085083"
cy="601.077026"
r="5.000000"
/>
<text
x="99.085083"
y="601.077026"
text-anchor="middle"
alignment-baseline="central"
fill="#6d5192"
font-size="0"
font-family="Arial"
>
3
</text>
<circle
fill="none"
stroke="#6d5192"
cx="151.268066"
cy="601.077026"
r="5.000000"
/>
<text
x="151.268066"
y="601.077026"
text-anchor="middle"
alignment-baseline="central"
fill="#6d5192"
font-size="0"
font-family="Arial"
>
4
</text>
<circle
fill="none"
stroke="#6d5192"
cx="194.753967"
cy="601.077026"
r="5.000000"
/>
<text
x="194.753967"
y="601.077026"
text-anchor="middle"
alignment-baseline="central"
fill="#6d5192"
font-size="0"
font-family="Arial"
>
5
</text>
<circle
fill="none"
stroke="#6d5192"
cx="194.753967"
cy="554.147400"
r="5.000000"
/>
<text
x="194.753967"
y="554.147400"
text-anchor="middle"
alignment-baseline="central"
fill="#6d5192"
font-size="0"
font-family="Arial"
>
6
</text>
<circle
fill="none"
stroke="#6d5192"
cx="620.914917"
cy="103.621063"
r="5.000000"
/>
<text
x="620.914917"
y="103.621063"
text-anchor="middle"
alignment-baseline="central"
fill="#6d5192"
font-size="0"
font-family="Arial"
>
7
</text>
<circle
fill="none"
stroke="#6d5192"
cx="620.914917"
cy="328.884216"
r="5.000000"
/>
<text
x="620.914917"
y="328.884216"
text-anchor="middle"
alignment-baseline="central"
fill="#6d5192"
font-size="0"
font-family="Arial"
>
8
</text>
<circle
fill="none"
stroke="#6d5192"
cx="560.034607"
cy="328.884216"
r="5.000000"
/>
<text
x="560.034607"
y="328.884216"
text-anchor="middle"
alignment-baseline="central"
fill="#6d5192"
font-size="0"
font-family="Arial"
>
9
</text>
<circle
fill="none"
stroke="#6d5192"
cx="560.034607"
cy="169.323013"
r="5.000000"
/>
<text
x="560.034607"
y="169.323013"
text-anchor="middle"
alignment-baseline="central"
fill="#6d5192"
font-size="0"
font-family="Arial"
>
10
</text>
<circle
fill="none"
stroke="#6d5192"
cx="468.714386"
cy="169.323013"
r="5.000000"
/>
<text
x="468.714386"
y="169.323013"
text-anchor="middle"
alignment-baseline="central"
fill="#6d5192"
font-size="0"
font-family="Arial"
>
11
</text>
<circle
fill="none"
stroke="#6d5192"
cx="300.859192"
cy="169.323013"
r="5.000000"
/>
<text
x="300.859192"
y="169.323013"
text-anchor="middle"
alignment-baseline="central"
fill="#6d5192"
font-size="0"
font-family="Arial"
>
12
</text>
<circle
fill="none"
stroke="#6d5192"
cx="300.859192"
cy="342.963165"
r="5.000000"
/>
<text
x="300.859192"
y="342.963165"
text-anchor="middle"
alignment-baseline="central"
fill="#6d5192"
font-size="0"
font-family="Arial"
>
13
</text>
<circle
fill="none"
stroke="#6d5192"
cx="360.000000"
cy="342.963165"
r="5.000000"
/>
<text
x="360.000000"
y="342.963165"
text-anchor="middle"
alignment-baseline="central"
fill="#6d5192"
font-size="0"
font-family="Arial"
>
14
</text>
<circle
fill="none"
stroke="#6d5192"
cx="412.182983"
cy="342.963165"
r="5.000000"
/>
<text
x="412.182983"
y="342.963165"
text-anchor="middle"
alignment-baseline="central"
fill="#6d5192"
font-size="0"
font-family="Arial"
>
15
</text>
<circle
fill="none"
stroke="#6d5192"
cx="412.182983"
cy="244.410538"
r="5.000000"
/>
<text
x="412.182983"
y="244.410538"
text-anchor="middle"
alignment-baseline="central"
fill="#6d5192"
font-size="0"
font-family="Arial"
>
16
</text>
<circle
fill="none"
stroke="#6d5192"
cx="412.182983"
cy="220.945709"
r="5.000000"
/>
<text
x="412.182983"
y="220.945709"
text-anchor="middle"
alignment-baseline="central"
fill="#6d5192"
font-size="0"
font-family="Arial"
>
17
</text>
<circle
fill="none"
stroke="#6d5192"
cx="477.411713"
cy="220.945709"
r="5.000000"
/>
<text
x="477.411713"
y="220.945709"
text-anchor="middle"
alignment-baseline="central"
fill="#6d5192"
font-size="0"
font-family="Arial"
>
18
</text>
<circle
fill="none"
stroke="#6d5192"
cx="99.085052"
cy="706.200012"
r="5.000000"
/>
<text
x="99.085052"
y="706.200012"
text-anchor="middle"
alignment-baseline="central"
fill="#6d5192"
font-size="0"
font-family="Arial"
>
A
</text>
<circle
fill="none"
stroke="#6d5192"
cx="60.000000"
cy="706.200012"
r="5.000000"
/>
<text
x="60.000000"
y="706.200012"
text-anchor="middle"
alignment-baseline="central"
fill="#6d5192"
font-size="0"
font-family="Arial"
>
B
</text>
<circle
fill="none"
stroke="#6d5192"
cx="60.000000"
cy="666.778931"
r="5.000000"
/>
<text
x="60.000000"
y="666.778931"
text-anchor="middle"
alignment-baseline="central"
fill="#6d5192"
font-size="0"
font-family="Arial"
>
C
</text>
<circle
fill="none"
stroke="#6d5192"
cx="60.000000"
cy="103.621063"
r="5.000000"
/>
<text
x="60.000000"
y="103.621063"
text-anchor="middle"
alignment-baseline="central"
fill="#6d5192"
font-size="0"
font-family="Arial"
>
D
</text>
<circle
fill="none"
stroke="#6d5192"
cx="60.000000"
cy="64.200012"
r="5.000000"
/>
<text
x="60.000000"
y="64.200012"
text-anchor="middle"
alignment-baseline="central"
fill="#6d5192"
font-size="0"
font-family="Arial"
>
E
</text>
<circle
fill="none"
stroke="#6d5192"
cx="99.085052"
cy="64.200012"
r="5.000000"
/>
<text
x="99.085052"
y="64.200012"
text-anchor="middle"
alignment-baseline="central"
fill="#6d5192"
font-size="0"
font-family="Arial"
>
F
</text>
<circle
fill="none"
stroke="#6d5192"
cx="620.914917"
cy="64.200012"
r="5.000000"
/>
<text
x="620.914917"
y="64.200012"
text-anchor="middle"
alignment-baseline="central"
fill="#6d5192"
font-size="0"
font-family="Arial"
>
G
</text>
<circle
fill="none"
stroke="#6d5192"
cx="660.000000"
cy="64.200012"
r="5.000000"
/>
<text
x="660.000000"
y="64.200012"
text-anchor="middle"
alignment-baseline="central"
fill="#6d5192"
font-size="0"
font-family="Arial"
>
H
</text>
<circle
fill="none"
stroke="#6d5192"
cx="660.000000"
cy="103.621063"
r="5.000000"
/>
<text
x="660.000000"
y="103.621063"
text-anchor="middle"
alignment-baseline="central"
fill="#6d5192"
font-size="0"
font-family="Arial"
>
I
</text>
<circle
fill="none"
stroke="#6d5192"
cx="660.000000"
cy="666.778931"
r="5.000000"
/>
<text
x="660.000000"
y="666.778931"
text-anchor="middle"
alignment-baseline="central"
fill="#6d5192"
font-size="0"
font-family="Arial"
>
J
</text>
<circle
fill="none"
stroke="#6d5192"
cx="660.000000"
cy="706.200012"
r="5.000000"
/>
<text
x="660.000000"
y="706.200012"
text-anchor="middle"
alignment-baseline="central"
fill="#6d5192"
font-size="0"
font-family="Arial"
>
K
</text>
<circle
fill="none"
stroke="#6d5192"
cx="620.914917"
cy="706.200012"
r="5.000000"
/>
<text
x="620.914917"
y="706.200012"
text-anchor="middle"
alignment-baseline="central"
fill="#6d5192"
font-size="0"
font-family="Arial"
>
L
</text>
<circle
fill="none"
stroke="#6d5192"
cx="247.806580"
cy="373.936859"
r="5.000000"
/>
<text
x="247.806580"
y="373.936859"
text-anchor="middle"
alignment-baseline="central"
fill="#6d5192"
font-size="0"
font-family="Arial"
>
R
</text>
</svg>
