<?xml version="1.0" encoding="utf-8" standalone="no" ?>
<svg xmlns="http://www.w3.org/2000/svg" width="600.000000" height="642.000000" > 
<title>Fortran Logo</title>
<desc>Generated by Fortran Logo Generator</desc>
<pattern
id="diagonalFill"
width="9"
height="2"
patternUnits="userSpaceOnUse"
patternTransform="rotate(45)"
>
<rect
x=".000000"
y=".000000"
width="1.000000"
height="1.000000"
fill="#6d5192"
/>
</pattern>
<line
stroke="#6d5192"
x1="94.069183"
y1="588.500000"
x2="94.069183"
y2="53.500000"
stroke-dasharray="2 2"
stroke-width="1.200000"
/>
<line
stroke="#6d5192"
x1="50.000000"
y1="543.916626"
x2="550.000000"
y2="543.916626"
stroke-dasharray="2 2"
stroke-width="1.200000"
/>
<line
stroke="#6d5192"
x1="135.255341"
y1="588.500000"
x2="135.255341"
y2="53.500000"
stroke-dasharray="2 2"
stroke-width="1.200000"
/>
<line
stroke="#6d5192"
x1="50.000000"
y1="491.902618"
x2="550.000000"
y2="491.902618"
stroke-dasharray="2 2"
stroke-width="1.200000"
/>
<line
stroke="#6d5192"
x1="169.577209"
y1="588.500000"
x2="169.577209"
y2="53.500000"
stroke-dasharray="2 2"
stroke-width="1.200000"
/>
<line
stroke="#6d5192"
x1="50.000000"
y1="454.750000"
x2="550.000000"
y2="454.750000"
stroke-dasharray="2 2"
stroke-width="1.200000"
/>
<line
stroke="#6d5192"
x1="505.930817"
y1="588.500000"
x2="505.930817"
y2="53.500000"
stroke-dasharray="2 2"
stroke-width="1.200000"
/>
<line
stroke="#6d5192"
x1="50.000000"
y1="98.083344"
x2="550.000000"
y2="98.083344"
stroke-dasharray="2 2"
stroke-width="1.200000"
/>
<line
stroke="#6d5192"
x1="457.880157"
y1="588.500000"
x2="457.880157"
y2="53.500000"
stroke-dasharray="2 2"
stroke-width="1.200000"
/>
<line
stroke="#6d5192"
x1="50.000000"
y1="276.416656"
x2="550.000000"
y2="276.416656"
stroke-dasharray="2 2"
stroke-width="1.200000"
/>
<line
stroke="#6d5192"
x1="385.804382"
y1="588.500000"
x2="385.804382"
y2="53.500000"
stroke-dasharray="2 2"
stroke-width="1.200000"
/>
<line
stroke="#6d5192"
x1="50.000000"
y1="150.097382"
x2="550.000000"
y2="150.097382"
stroke-dasharray="2 2"
stroke-width="1.200000"
/>
<line
stroke="#6d5192"
x1="300.000000"
y1="588.500000"
x2="300.000000"
y2="53.500000"
stroke-dasharray="2 2"
stroke-width="1.200000"
/>
<line
stroke="#6d5192"
x1="50.000000"
y1="287.562500"
x2="550.000000"
y2="287.562500"
stroke-dasharray="2 2"
stroke-width="1.200000"
/>
<line
stroke="#6d5192"
x1="341.186157"
y1="588.500000"
x2="341.186157"
y2="53.500000"
stroke-dasharray="2 2"
stroke-width="1.200000"
/>
<line
stroke="#6d5192"
x1="50.000000"
y1="209.541672"
x2="550.000000"
y2="209.541672"
stroke-dasharray="2 2"
stroke-width="1.200000"
/>
<line
stroke="#6d5192"
x1="385.804382"
y1="588.500000"
x2="385.804382"
y2="53.500000"
stroke-dasharray="2 2"
stroke-width="1.200000"
/>
<line
stroke="#6d5192"
x1="50.000000"
y1="190.965347"
x2="550.000000"
y2="190.965347"
stroke-dasharray="2 2"
stroke-width="1.200000"
/>
<line
stroke="#6d5192"
x1="211.449738"
y1="588.500000"
x2="211.449738"
y2="53.500000"
stroke-dasharray="2 2"
stroke-width="1.200000"
/>
<line
stroke="#6d5192"
x1="50.000000"
y1="312.083344"
x2="550.000000"
y2="312.083344"
stroke-dasharray="2 2"
stroke-width="1.200000"
/>
<line
stroke="#6d5192"
x1="50.000000"
y1="588.500000"
x2="50.000000"
y2="53.500000"
stroke-dasharray="2 2"
stroke-width="1.200000"
/>
<line
stroke="#6d5192"
x1="50.000000"
y1="53.500000"
x2="550.000000"
y2="53.500000"
stroke-dasharray="2 2"
stroke-width="1.200000"
/>
<line
stroke="#6d5192"
x1="550.000000"
y1="53.500000"
x2="550.000000"
y2="588.500000"
stroke-dasharray="2 2"
stroke-width="1.200000"
/>
<line
stroke="#6d5192"
x1="550.000000"
y1="588.500000"
x2="50.000000"
y2="588.500000"
stroke-dasharray="2 2"
stroke-width="1.200000"
/>
<path
fill="url(#diagonalFill)"
stroke="#6d5192"
stroke-width="2.000000"
d="
M   253.322281   454.750000
L   253.322281   341.104156
L   253.367279   340.249176
L   253.502274   339.484161
L   253.727280   338.809174
L   254.042282   338.224182
L   254.447281   337.729156
L   254.942291   337.324158
L   255.527283   337.009155
L   256.202271   336.784180
L   256.967285   336.649170
L   257.822266   336.604156
L   300.000000   336.604156
L   304.015656   336.799225
L   307.825378   337.384369
L   311.429169   338.359650
L   314.827026   339.725006
L   318.018951   341.480469
L   321.004944   343.626038
L   323.785004   346.161713
L   326.359131   349.087524
L   328.727356   352.403381
L   330.889618   356.109375
L   332.845978   360.205475
L   334.596375   364.691650
L   336.140869   369.567993
L   337.479401   374.834381
L   338.612030   380.490906
L   339.538727   386.537506
L   340.259460   392.974243
L   340.774292   399.801056
L   341.083191   407.017975
L   341.186157   414.625000
L   341.186157   428.701324
L   341.231171   429.556305
L   341.366180   430.321350
L   341.591156   430.996338
L   341.906158   431.581329
L   342.311157   432.076324
L   342.806152   432.481323
L   343.391174   432.796326
L   344.066162   433.021332
L   344.831177   433.156311
L   345.686157   433.201324
L   381.304382   433.201324
L   382.159363   433.156311
L   382.924377   433.021332
L   383.599365   432.796326
L   384.184387   432.481323
L   384.679382   432.076324
L   385.084351   431.581329
L   385.399353   430.996338
L   385.624390   430.321350
L   385.759369   429.556335
L   385.804382   428.701324
L   385.804382   204.382019
L   385.759369   203.527008
L   385.624390   202.761993
L   385.399353   202.087006
L   385.084351   201.502014
L   384.679382   201.007019
L   384.184387   200.602020
L   383.599365   200.287018
L   382.924377   200.062012
L   382.159363   199.927032
L   381.304382   199.882019
L   345.686157   199.882019
L   344.831177   199.927002
L   344.066162   200.062012
L   343.391174   200.287018
L   342.806152   200.602020
L   342.311157   201.007019
L   341.906158   201.502014
L   341.591156   202.087006
L   341.366180   202.761993
L   341.231171   203.527023
L   341.186157   204.382019
L   341.186157   209.541672
L   341.083191   217.148712
L   340.774292   224.365631
L   340.259460   231.192444
L   339.538727   237.629166
L   338.612030   243.675781
L   337.479401   249.332306
L   336.140869   254.598694
L   334.596375   259.475006
L   332.845978   263.961182
L   330.889618   268.057281
L   328.727356   271.763275
L   326.359131   275.079163
L   323.785004   278.004944
L   321.004944   280.540619
L   318.018951   282.686188
L   314.827026   284.441650
L   311.429169   285.807037
L   307.825378   286.782288
L   304.015656   287.367462
L   300.000000   287.562500
L   257.822266   287.562500
L   256.967285   287.517517
L   256.202271   287.382507
L   255.527283   287.157501
L   254.942291   286.842499
L   254.447281   286.437500
L   254.042282   285.942505
L   253.727280   285.357483
L   253.502274   284.682495
L   253.367279   283.917511
L   253.322281   283.062500
L   253.322281   154.597382
L   253.367279   153.742371
L   253.502289   152.977386
L   253.727280   152.302383
L   254.042282   151.717377
L   254.447281   151.222382
L   254.942276   150.817383
L   255.527283   150.502365
L   256.202271   150.277374
L   256.967285   150.142395
L   257.822266   150.097382
L   385.804382   150.097382
L   392.831757   150.401932
L   399.498779   151.315567
L   405.805389   152.838318
L   411.751648   154.970154
L   417.337524   157.711090
L   422.563019   161.061111
L   427.428131   165.020233
L   431.932861   169.588470
L   436.077240   174.765778
L   439.861206   180.552200
L   443.284790   186.947708
L   446.348022   193.952332
L   449.050842   201.566040
L   451.393341   209.788818
L   453.375427   218.620728
L   454.997131   228.061722
L   456.258484   238.111816
L   457.159393   248.771011
L   457.699951   260.039276
L   457.880157   271.916656
L   457.880157   271.916656
L   457.925171   272.771667
L   458.060150   273.536682
L   458.285156   274.211670
L   458.600159   274.796661
L   459.005157   275.291656
L   459.500153   275.696655
L   460.085144   276.011658
L   460.760162   276.236664
L   461.525146   276.371674
L   462.380157   276.416656
L   501.430817   276.416656
L   502.285828   276.371674
L   503.050812   276.236664
L   503.725830   276.011658
L   504.310822   275.696655
L   504.805817   275.291656
L   505.210815   274.796661
L   505.525818   274.211670
L   505.750854   273.536682
L   505.885803   272.771667
L   505.930817   271.916656
L   505.930817   102.583344
L   505.885803   101.728333
L   505.750824   100.963348
L   505.525818   100.288345
L   505.210815    99.703339
L   504.805817    99.208344
L   504.310822    98.803329
L   503.725830    98.488342
L   503.050842    98.263336
L   502.285828    98.128342
L   501.430817    98.083344
L   169.577209    98.083344
L    98.569183    98.083344
L    97.714188    98.128342
L    96.949173    98.263336
L    96.274185    98.488342
L    95.689178    98.803329
L    95.194183    99.208344
L    94.789185    99.703339
L    94.474182   100.288345
L    94.249176   100.963348
L    94.114197   101.728333
L    94.069183   102.583344
L    94.069183   145.597382
L    94.114182   146.452393
L    94.249161   147.217361
L    94.474197   147.892380
L    94.789185   148.477386
L    95.194183   148.972382
L    95.689178   149.377380
L    96.274185   149.692383
L    96.949188   149.917374
L    97.714172   150.052368
L    98.569183   150.097382
L   135.255341   150.097382
L   138.601730   150.190262
L   141.776505   150.468933
L   144.779648   150.933304
L   147.611191   151.583466
L   150.271149   152.419418
L   152.759506   153.441101
L   155.076218   154.648590
L   157.221329   156.041809
L   159.194855   157.620789
L   160.996735   159.385529
L   162.627029   161.336044
L   164.085709   163.472321
L   165.372772   165.794357
L   166.488251   168.302155
L   167.432098   170.995728
L   168.204330   173.875061
L   168.804962   176.940155
L   169.233994   180.191010
L   169.491409   183.627625
L   169.577209   187.250000
L   169.577209   454.750000
L   169.491409   458.372375
L   169.233994   461.808990
L   168.804962   465.059845
L   168.204330   468.124939
L   167.432098   471.004272
L   166.488251   473.697845
L   165.372772   476.205627
L   164.085709   478.527679
L   162.627029   480.663940
L   160.996735   482.614471
L   159.194855   484.379211
L   157.221329   485.958191
L   155.076218   487.351410
L   152.759506   488.558899
L   150.271149   489.580566
L   147.611191   490.416534
L   144.779648   491.066711
L   141.776505   491.531067
L   138.601730   491.809753
L   135.255341   491.902618
L    98.569183   491.902618
L    97.714172   491.947632
L    96.949188   492.082642
L    96.274185   492.307617
L    95.689178   492.622620
L    95.194183   493.027618
L    94.789185   493.522614
L    94.474197   494.107605
L    94.249161   494.782654
L    94.114182   495.547607
L    94.069183   496.402618
L    94.069183   539.416626
L    94.114197   540.271667
L    94.249176   541.036621
L    94.474182   541.711670
L    94.789185   542.296631
L    95.194183   542.791626
L    95.689178   543.196655
L    96.274185   543.511658
L    96.949173   543.736694
L    97.714188   543.871643
L    98.569183   543.916626
L   169.577209   543.916626
L   253.322281   543.916626
L   324.330322   543.916626
L   325.185303   543.871643
L   325.950317   543.736694
L   326.625305   543.511658
L   327.210327   543.196655
L   327.705322   542.791626
L   328.110291   542.296631
L   328.425293   541.711670
L   328.650330   541.036621
L   328.785278   540.271667
L   328.830322   539.416626
L   328.830322   496.402618
L   328.785309   495.547607
L   328.650330   494.782654
L   328.425293   494.107605
L   328.110291   493.522614
L   327.705322   493.027618
L   327.210327   492.622620
L   326.625305   492.307617
L   325.950317   492.082642
L   325.185303   491.947632
L   324.330322   491.902618
L   287.644165   491.902618
L   284.297760   491.809753
L   281.122986   491.531067
L   278.119843   491.066711
L   275.288300   490.416534
L   272.628357   489.580566
L   270.139984   488.558899
L   267.823273   487.351410
L   265.678162   485.958191
L   263.704651   484.379211
L   261.902771   482.614471
L   260.272461   480.663940
L   258.813782   478.527679
L   257.526733   476.205627
L   256.411255   473.697845
L   255.467392   471.004272
L   254.695160   468.124939
L   254.094528   465.059845
L   253.665497   461.808990
L   253.408081   458.372375
L   253.322281   454.750000 z
M    94.069199   588.500000
L    89.772461   588.388550
L    85.696060   588.054138
L    81.839996   587.496887
L    78.204285   586.716675
L    74.788925   585.713501
L    71.593903   584.487549
L    68.619263   583.038513
L    65.864899   581.366699
L    63.330948   579.471863
L    61.017303   577.354126
L    58.924011   575.013550
L    57.051071   572.449951
L    55.398499   569.663574
L    53.966217   566.654175
L    52.754333   563.421875
L    51.762756   559.966675
L    50.991577   556.288574
L    50.440689   552.387512
L    50.110168   548.263550
L    50.000000   543.916687
L    50.000000    98.083328
L    50.110168    93.736450
L    50.440704    89.612518
L    50.991562    85.711441
L    51.762741    82.033310
L    52.754318    78.578125
L    53.966232    75.345840
L    55.398499    72.336472
L    57.051071    69.549973
L    58.924042    66.986481
L    61.017303    64.645813
L    63.330933    62.528107
L    65.864899    60.633362
L    68.619232    58.961456
L    71.593903    57.512512
L    74.788925    56.286469
L    78.204285    55.283325
L    81.839996    54.503113
L    85.696060    53.945831
L    89.772461    53.611450
L    94.069199    53.500000
L   505.930786    53.500000
L   510.227539    53.611481
L   514.303955    53.945862
L   518.160034    54.503113
L   521.795715    55.283325
L   525.211060    56.286469
L   528.406128    57.512482
L   531.380737    58.961487
L   534.135132    60.633301
L   536.669067    62.528137
L   538.982666    64.645844
L   541.075989    66.986450
L   542.948914    69.550018
L   544.601501    72.336456
L   546.033813    75.345825
L   547.245667    78.578125
L   548.237244    82.033325
L   549.008423    85.711456
L   549.559326    89.612503
L   549.889832    93.736450
L   550.000000    98.083328
L   550.000000   543.916687
L   549.889832   548.263550
L   549.559326   552.387451
L   549.008423   556.288574
L   548.237244   559.966675
L   547.245667   563.421875
L   546.033752   566.654175
L   544.601501   569.663513
L   542.948914   572.450012
L   541.075928   575.013550
L   538.982666   577.354187
L   536.669067   579.471924
L   534.135132   581.366638
L   531.380737   583.038574
L   528.406128   584.487488
L   525.211060   585.713501
L   521.795715   586.716675
L   518.160034   587.496887
L   514.303955   588.054199
L   510.227539   588.388550
L   505.930786   588.500000
L    94.069199   588.500000 z
"
/>
<circle
fill="white"
stroke="#6d5192"
cx="169.577209"
cy="543.916626"
r="8.000000"
/>
<text
x="169.577209"
y="543.916626"
text-anchor="middle"
alignment-baseline="central"
fill="#6d5192"
font-size="60%"
font-family="Cascadia Mono"
>
1
</text>
<circle
fill="white"
stroke="#6d5192"
cx="94.069183"
cy="543.916626"
r="8.000000"
/>
<text
x="94.069183"
y="543.916626"
text-anchor="middle"
alignment-baseline="central"
fill="#6d5192"
font-size="60%"
font-family="Cascadia Mono"
>
2
</text>
<circle
fill="white"
stroke="#6d5192"
cx="94.069183"
cy="491.902618"
r="8.000000"
/>
<text
x="94.069183"
y="491.902618"
text-anchor="middle"
alignment-baseline="central"
fill="#6d5192"
font-size="60%"
font-family="Cascadia Mono"
>
3
</text>
<circle
fill="white"
stroke="#6d5192"
cx="135.255341"
cy="491.902618"
r="8.000000"
/>
<text
x="135.255341"
y="491.902618"
text-anchor="middle"
alignment-baseline="central"
fill="#6d5192"
font-size="60%"
font-family="Cascadia Mono"
>
4
</text>
<circle
fill="white"
stroke="#6d5192"
cx="169.577209"
cy="491.902618"
r="8.000000"
/>
<text
x="169.577209"
y="491.902618"
text-anchor="middle"
alignment-baseline="central"
fill="#6d5192"
font-size="60%"
font-family="Cascadia Mono"
>
5
</text>
<circle
fill="white"
stroke="#6d5192"
cx="169.577209"
cy="454.750000"
r="8.000000"
/>
<text
x="169.577209"
y="454.750000"
text-anchor="middle"
alignment-baseline="central"
fill="#6d5192"
font-size="60%"
font-family="Cascadia Mono"
>
6
</text>
<circle
fill="white"
stroke="#6d5192"
cx="505.930817"
cy="98.083344"
r="8.000000"
/>
<text
x="505.930817"
y="98.083344"
text-anchor="middle"
alignment-baseline="central"
fill="#6d5192"
font-size="60%"
font-family="Cascadia Mono"
>
7
</text>
<circle
fill="white"
stroke="#6d5192"
cx="505.930817"
cy="276.416656"
r="8.000000"
/>
<text
x="505.930817"
y="276.416656"
text-anchor="middle"
alignment-baseline="central"
fill="#6d5192"
font-size="60%"
font-family="Cascadia Mono"
>
8
</text>
<circle
fill="white"
stroke="#6d5192"
cx="457.880157"
cy="276.416656"
r="8.000000"
/>
<text
x="457.880157"
y="276.416656"
text-anchor="middle"
alignment-baseline="central"
fill="#6d5192"
font-size="60%"
font-family="Cascadia Mono"
>
9
</text>
<circle
fill="white"
stroke="#6d5192"
cx="457.880157"
cy="150.097382"
r="8.000000"
/>
<text
x="457.880157"
y="150.097382"
text-anchor="middle"
alignment-baseline="central"
fill="#6d5192"
font-size="60%"
font-family="Cascadia Mono"
>
10
</text>
<circle
fill="white"
stroke="#6d5192"
cx="385.804382"
cy="150.097382"
r="8.000000"
/>
<text
x="385.804382"
y="150.097382"
text-anchor="middle"
alignment-baseline="central"
fill="#6d5192"
font-size="60%"
font-family="Cascadia Mono"
>
11
</text>
<circle
fill="white"
stroke="#6d5192"
cx="253.322281"
cy="150.097382"
r="8.000000"
/>
<text
x="253.322281"
y="150.097382"
text-anchor="middle"
alignment-baseline="central"
fill="#6d5192"
font-size="60%"
font-family="Cascadia Mono"
>
12
</text>
<circle
fill="white"
stroke="#6d5192"
cx="253.322281"
cy="287.562500"
r="8.000000"
/>
<text
x="253.322281"
y="287.562500"
text-anchor="middle"
alignment-baseline="central"
fill="#6d5192"
font-size="60%"
font-family="Cascadia Mono"
>
13
</text>
<circle
fill="white"
stroke="#6d5192"
cx="300.000000"
cy="287.562500"
r="8.000000"
/>
<text
x="300.000000"
y="287.562500"
text-anchor="middle"
alignment-baseline="central"
fill="#6d5192"
font-size="60%"
font-family="Cascadia Mono"
>
14
</text>
<circle
fill="white"
stroke="#6d5192"
cx="341.186157"
cy="287.562500"
r="8.000000"
/>
<text
x="341.186157"
y="287.562500"
text-anchor="middle"
alignment-baseline="central"
fill="#6d5192"
font-size="60%"
font-family="Cascadia Mono"
>
15
</text>
<circle
fill="white"
stroke="#6d5192"
cx="341.186157"
cy="209.541672"
r="8.000000"
/>
<text
x="341.186157"
y="209.541672"
text-anchor="middle"
alignment-baseline="central"
fill="#6d5192"
font-size="60%"
font-family="Cascadia Mono"
>
16
</text>
<circle
fill="white"
stroke="#6d5192"
cx="341.186157"
cy="190.965347"
r="8.000000"
/>
<text
x="341.186157"
y="190.965347"
text-anchor="middle"
alignment-baseline="central"
fill="#6d5192"
font-size="60%"
font-family="Cascadia Mono"
>
17
</text>
<circle
fill="white"
stroke="#6d5192"
cx="385.804382"
cy="190.965347"
r="8.000000"
/>
<text
x="385.804382"
y="190.965347"
text-anchor="middle"
alignment-baseline="central"
fill="#6d5192"
font-size="60%"
font-family="Cascadia Mono"
>
18
</text>
<circle
fill="white"
stroke="#6d5192"
cx="94.069199"
cy="588.500000"
r="8.000000"
/>
<text
x="94.069199"
y="588.500000"
text-anchor="middle"
alignment-baseline="central"
fill="#6d5192"
font-size="60%"
font-family="Cascadia Mono"
>
A
</text>
<circle
fill="white"
stroke="#6d5192"
cx="50.000000"
cy="588.500000"
r="8.000000"
/>
<text
x="50.000000"
y="588.500000"
text-anchor="middle"
alignment-baseline="central"
fill="#6d5192"
font-size="60%"
font-family="Cascadia Mono"
>
B
</text>
<circle
fill="white"
stroke="#6d5192"
cx="50.000000"
cy="543.916687"
r="8.000000"
/>
<text
x="50.000000"
y="543.916687"
text-anchor="middle"
alignment-baseline="central"
fill="#6d5192"
font-size="60%"
font-family="Cascadia Mono"
>
C
</text>
<circle
fill="white"
stroke="#6d5192"
cx="50.000000"
cy="98.083328"
r="8.000000"
/>
<text
x="50.000000"
y="98.083328"
text-anchor="middle"
alignment-baseline="central"
fill="#6d5192"
font-size="60%"
font-family="Cascadia Mono"
>
D
</text>
<circle
fill="white"
stroke="#6d5192"
cx="50.000000"
cy="53.500000"
r="8.000000"
/>
<text
x="50.000000"
y="53.500000"
text-anchor="middle"
alignment-baseline="central"
fill="#6d5192"
font-size="60%"
font-family="Cascadia Mono"
>
E
</text>
<circle
fill="white"
stroke="#6d5192"
cx="94.069199"
cy="53.500000"
r="8.000000"
/>
<text
x="94.069199"
y="53.500000"
text-anchor="middle"
alignment-baseline="central"
fill="#6d5192"
font-size="60%"
font-family="Cascadia Mono"
>
F
</text>
<circle
fill="white"
stroke="#6d5192"
cx="505.930786"
cy="53.500000"
r="8.000000"
/>
<text
x="505.930786"
y="53.500000"
text-anchor="middle"
alignment-baseline="central"
fill="#6d5192"
font-size="60%"
font-family="Cascadia Mono"
>
G
</text>
<circle
fill="white"
stroke="#6d5192"
cx="550.000000"
cy="53.500000"
r="8.000000"
/>
<text
x="550.000000"
y="53.500000"
text-anchor="middle"
alignment-baseline="central"
fill="#6d5192"
font-size="60%"
font-family="Cascadia Mono"
>
H
</text>
<circle
fill="white"
stroke="#6d5192"
cx="550.000000"
cy="98.083328"
r="8.000000"
/>
<text
x="550.000000"
y="98.083328"
text-anchor="middle"
alignment-baseline="central"
fill="#6d5192"
font-size="60%"
font-family="Cascadia Mono"
>
I
</text>
<circle
fill="white"
stroke="#6d5192"
cx="550.000000"
cy="543.916687"
r="8.000000"
/>
<text
x="550.000000"
y="543.916687"
text-anchor="middle"
alignment-baseline="central"
fill="#6d5192"
font-size="60%"
font-family="Cascadia Mono"
>
J
</text>
<circle
fill="white"
stroke="#6d5192"
cx="550.000000"
cy="588.500000"
r="8.000000"
/>
<text
x="550.000000"
y="588.500000"
text-anchor="middle"
alignment-baseline="central"
fill="#6d5192"
font-size="60%"
font-family="Cascadia Mono"
>
K
</text>
<circle
fill="white"
stroke="#6d5192"
cx="505.930786"
cy="588.500000"
r="8.000000"
/>
<text
x="505.930786"
y="588.500000"
text-anchor="middle"
alignment-baseline="central"
fill="#6d5192"
font-size="60%"
font-family="Cascadia Mono"
>
L
</text>
<circle
fill="white"
stroke="#6d5192"
cx="211.449738"
cy="312.083344"
r="8.000000"
/>
<text
x="211.449738"
y="312.083344"
text-anchor="middle"
alignment-baseline="central"
fill="#6d5192"
font-size="60%"
font-family="Cascadia Mono"
>
R
</text>
</svg>
