<?xml version="1.0" encoding="utf-8" standalone="no" ?>
<svg
xmlns="http://www.w3.org/2000/svg"
width="550.000000"
height="594.000000"
>
<title>Fortran Logo</title>
<desc>Generated by Fortran Logo Generator</desc>
<pattern
id="diagonalFill"
width="9"
height="2"
patternUnits="userSpaceOnUse"
patternTransform="rotate(45)"
>
<rect
x=".000000"
y=".000000"
width="1.000000"
height="1.000000"
fill="#ca9b3d"
/>
</pattern>
<line
stroke="#ca9b3d"
x1="69.407883"
y1="567.000000"
x2="69.407883"
y2="27.000000"
stroke-dasharray="2 2"
stroke-width="1.000000"
/>
<line
stroke="#ca9b3d"
x1="25.000000"
y1="522.000000"
x2="525.000000"
y2="522.000000"
stroke-dasharray="2 2"
stroke-width="1.000000"
/>
<line
stroke="#ca9b3d"
x1="110.526306"
y1="567.000000"
x2="110.526306"
y2="27.000000"
stroke-dasharray="2 2"
stroke-width="1.000000"
/>
<line
stroke="#ca9b3d"
x1="25.000000"
y1="469.499817"
x2="525.000000"
y2="469.499817"
stroke-dasharray="2 2"
stroke-width="1.000000"
/>
<line
stroke="#ca9b3d"
x1="144.777954"
y1="567.000000"
x2="144.777954"
y2="27.000000"
stroke-dasharray="2 2"
stroke-width="1.000000"
/>
<line
stroke="#ca9b3d"
x1="25.000000"
y1="420.750000"
x2="525.000000"
y2="420.750000"
stroke-dasharray="2 2"
stroke-width="1.000000"
/>
<line
stroke="#ca9b3d"
x1="480.592102"
y1="567.000000"
x2="480.592102"
y2="27.000000"
stroke-dasharray="2 2"
stroke-width="1.000000"
/>
<line
stroke="#ca9b3d"
x1="25.000000"
y1="72.000015"
x2="525.000000"
y2="72.000015"
stroke-dasharray="2 2"
stroke-width="1.000000"
/>
<line
stroke="#ca9b3d"
x1="429.194092"
y1="567.000000"
x2="429.194092"
y2="27.000000"
stroke-dasharray="2 2"
stroke-width="1.000000"
/>
<line
stroke="#ca9b3d"
x1="25.000000"
y1="252.000000"
x2="525.000000"
y2="252.000000"
stroke-dasharray="2 2"
stroke-width="1.000000"
/>
<line
stroke="#ca9b3d"
x1="365.460541"
y1="567.000000"
x2="365.460541"
y2="27.000000"
stroke-dasharray="2 2"
stroke-width="1.000000"
/>
<line
stroke="#ca9b3d"
x1="25.000000"
y1="124.500153"
x2="525.000000"
y2="124.500153"
stroke-dasharray="2 2"
stroke-width="1.000000"
/>
<line
stroke="#ca9b3d"
x1="268.832245"
y1="567.000000"
x2="268.832245"
y2="27.000000"
stroke-dasharray="2 2"
stroke-width="1.000000"
/>
<line
stroke="#ca9b3d"
x1="25.000000"
y1="261.675018"
x2="525.000000"
y2="261.675018"
stroke-dasharray="2 2"
stroke-width="1.000000"
/>
<line
stroke="#ca9b3d"
x1="314.062500"
y1="567.000000"
x2="314.062500"
y2="27.000000"
stroke-dasharray="2 2"
stroke-width="1.000000"
/>
<line
stroke="#ca9b3d"
x1="25.000000"
y1="193.500000"
x2="525.000000"
y2="193.500000"
stroke-dasharray="2 2"
stroke-width="1.000000"
/>
<line
stroke="#ca9b3d"
x1="360.320740"
y1="567.000000"
x2="360.320740"
y2="27.000000"
stroke-dasharray="2 2"
stroke-width="1.000000"
/>
<line
stroke="#ca9b3d"
x1="25.000000"
y1="165.750076"
x2="525.000000"
y2="165.750076"
stroke-dasharray="2 2"
stroke-width="1.000000"
/>
<line
stroke="#ca9b3d"
x1="187.623352"
y1="567.000000"
x2="187.623352"
y2="27.000000"
stroke-dasharray="2 2"
stroke-width="1.000000"
/>
<line
stroke="#ca9b3d"
x1="25.000000"
y1="286.424988"
x2="525.000000"
y2="286.424988"
stroke-dasharray="2 2"
stroke-width="1.000000"
/>
<line
stroke="#ca9b3d"
x1="25.000000"
y1="567.000000"
x2="25.000000"
y2="27.000000"
stroke-dasharray="2 2"
stroke-width="1.000000"
/>
<line
stroke="#ca9b3d"
x1="25.000000"
y1="27.000000"
x2="525.000000"
y2="27.000000"
stroke-dasharray="2 2"
stroke-width="1.000000"
/>
<line
stroke="#ca9b3d"
x1="525.000000"
y1="27.000000"
x2="525.000000"
y2="567.000000"
stroke-dasharray="2 2"
stroke-width="1.000000"
/>
<line
stroke="#ca9b3d"
x1="525.000000"
y1="567.000000"
x2="25.000000"
y2="567.000000"
stroke-dasharray="2 2"
stroke-width="1.000000"
/>
<path
fill="url(#diagonalFill)"
stroke="#ca9b3d"
stroke-width="3.000000"
d="
M   230.468735   420.750000
L   230.468735   315.480896
L   230.511795   314.662750
L   230.640976   313.930756
L   230.856262   313.284851
L   231.157684   312.725098
L   231.545212   312.251434
L   232.018860   311.863922
L   232.578644   311.562500
L   233.224518   311.347198
L   233.956528   311.218018
L   234.774658   311.174957
L   268.832245   311.174957
L   271.797333   311.250732
L   274.661926   311.477966
L   277.425995   311.856720
L   280.089569   312.386963
L   282.652618   313.068726
L   285.115143   313.901978
L   287.477173   314.886719
L   289.738678   316.022980
L   291.899689   317.310730
L   293.960175   318.749969
L   295.920166   320.340698
L   297.779633   322.082977
L   299.538574   323.976715
L   301.197021   326.021973
L   302.754944   328.218719
L   304.212372   330.566956
L   305.569275   333.066711
L   306.825684   335.717957
L   307.981567   338.520721
L   309.036926   341.474976
L   309.991791   344.580719
L   310.846130   347.837952
L   311.599976   351.246735
L   312.253296   354.806976
L   312.806122   358.518738
L   313.258423   362.381989
L   313.610229   366.396729
L   313.861481   370.562988
L   314.012268   374.880737
L   314.062500   379.349976
L   314.062500   402.793976
L   314.105560   403.612091
L   314.234741   404.344116
L   314.450043   404.989990
L   314.751465   405.549774
L   315.139008   406.023438
L   315.612640   406.410950
L   316.172424   406.712372
L   316.818298   406.927673
L   317.550293   407.056824
L   318.368439   407.099915
L   356.014801   407.099915
L   356.832916   407.056824
L   357.564941   406.927673
L   358.210815   406.712372
L   358.770599   406.410950
L   359.244263   406.023407
L   359.631775   405.549744
L   359.933197   404.989990
L   360.148499   404.344116
L   360.277649   403.612091
L   360.320740   402.793976
L   360.320740   188.056000
L   360.277649   187.237885
L   360.148499   186.505859
L   359.933197   185.859985
L   359.631775   185.300217
L   359.244263   184.826569
L   358.770599   184.439026
L   358.210815   184.137604
L   357.564941   183.922302
L   356.832916   183.793152
L   356.014801   183.750076
L   318.368439   183.750076
L   317.550293   183.793137
L   316.818298   183.922318
L   316.172424   184.137604
L   315.612640   184.439026
L   315.139008   184.826553
L   314.751465   185.300201
L   314.450043   185.859970
L   314.234741   186.505859
L   314.105560   187.237885
L   314.062500   188.056000
L   314.062500   193.500000
L   314.012268   197.969238
L   313.861481   202.286987
L   313.610229   206.453247
L   313.258423   210.467987
L   312.806122   214.331253
L   312.253296   218.042999
L   311.599976   221.603241
L   310.846130   225.012009
L   309.991791   228.269257
L   309.036926   231.375000
L   307.981567   234.329254
L   306.825684   237.132019
L   305.569275   239.783264
L   304.212372   242.283005
L   302.754944   244.631256
L   301.197021   246.828003
L   299.538574   248.873260
L   297.779633   250.767014
L   295.920166   252.509262
L   293.960175   254.100021
L   291.899689   255.539261
L   289.738678   256.827026
L   287.477173   257.963257
L   285.115143   258.948029
L   282.652618   259.781250
L   280.089569   260.463013
L   277.425995   260.993256
L   274.661926   261.372009
L   271.797333   261.599274
L   268.832245   261.675018
L   234.774658   261.675018
L   233.956528   261.631958
L   233.224518   261.502777
L   232.578644   261.287476
L   232.018860   260.986084
L   231.545212   260.598541
L   231.157684   260.124878
L   230.856262   259.565125
L   230.640976   258.919220
L   230.511795   258.187225
L   230.468735   257.369080
L   230.468735   128.806076
L   230.511795   127.987946
L   230.640961   127.255936
L   230.856262   126.610062
L   231.157684   126.050278
L   231.545212   125.576645
L   232.018860   125.189102
L   232.578644   124.887695
L   233.224518   124.672379
L   233.956528   124.543213
L   234.774658   124.500153
L   365.460541   124.500153
L   369.638611   124.637039
L   373.675079   125.047684
L   377.569916   125.732086
L   381.323120   126.690262
L   384.934692   127.922195
L   388.404602   129.427917
L   391.732910   131.207367
L   394.919617   133.260605
L   397.964661   135.587601
L   400.868073   138.188354
L   403.629852   141.062881
L   406.250000   144.211182
L   408.728546   147.633224
L   411.065430   151.329056
L   413.260712   155.298630
L   415.314331   159.541977
L   417.226349   164.059082
L   418.996735   168.849960
L   420.625488   173.914597
L   422.112579   179.253021
L   423.458069   184.865173
L   424.661926   190.751099
L   425.724152   196.910797
L   426.644745   203.344269
L   427.423706   210.051483
L   428.061066   217.032471
L   428.556763   224.287231
L   428.910828   231.815750
L   429.123260   239.618027
L   429.194092   247.694077
L   429.194092   247.694077
L   429.237152   248.512192
L   429.366333   249.244202
L   429.581604   249.890091
L   429.883057   250.449860
L   430.270569   250.923508
L   430.744232   251.311035
L   431.303986   251.612457
L   431.949890   251.827759
L   432.681885   251.956940
L   433.500000   252.000000
L   476.286194   252.000000
L   477.104309   251.956940
L   477.836334   251.827759
L   478.482239   251.612457
L   479.041992   251.311050
L   479.515625   250.923523
L   479.903198   250.449860
L   480.204590   249.890091
L   480.419891   249.244202
L   480.549042   248.512207
L   480.592102   247.694077
L   480.592102    76.305939
L   480.549072    75.487808
L   480.419891    74.755798
L   480.204590    74.109924
L   479.903168    73.550140
L   479.515625    73.076508
L   479.041992    72.688950
L   478.482239    72.387543
L   477.836304    72.172241
L   477.104309    72.043091
L   476.286194    72.000015
L   144.777954    72.000015
L    73.713806    72.000015
L    72.895691    72.043091
L    72.163681    72.172241
L    71.517776    72.387543
L    70.958008    72.688950
L    70.484360    73.076508
L    70.096832    73.550140
L    69.795410    74.109924
L    69.580109    74.755798
L    69.450943    75.487808
L    69.407883    76.305939
L    69.407883   120.194244
L    69.450958   121.012390
L    69.580109   121.744354
L    69.795410   122.390274
L    70.096817   122.950027
L    70.484360   123.423691
L    70.958008   123.811218
L    71.517776   124.112625
L    72.163666   124.327927
L    72.895691   124.457123
L    73.713806   124.500168
L   110.526306   124.500168
L   112.771713   124.554352
L   114.940964   124.716827
L   117.034134   124.987671
L   119.051147   125.366837
L   120.992096   125.854340
L   122.856918   126.450180
L   124.645599   127.154327
L   126.358170   127.966812
L   127.994644   128.887650
L   129.555008   129.916840
L   131.039246   131.054306
L   132.447372   132.300140
L   133.779388   133.654312
L   135.035263   135.116806
L   136.215042   136.687622
L   137.318710   138.366791
L   138.346252   140.154282
L   139.297684   142.050110
L   140.173004   144.054276
L   140.972214   146.166763
L   141.695312   148.387604
L   142.342285   150.716751
L   142.913147   153.154236
L   143.407898   155.700073
L   143.826508   158.354218
L   144.169037   161.116730
L   144.435440   163.987534
L   144.625732   166.966705
L   144.739899   170.054199
L   144.777954   173.250000
L   144.777954   420.750000
L   144.739899   423.945801
L   144.625732   427.033295
L   144.435440   430.012451
L   144.169037   432.883270
L   143.826508   435.645782
L   143.407898   438.299927
L   142.913147   440.845764
L   142.342285   443.283264
L   141.695312   445.612396
L   140.972214   447.833252
L   140.173004   449.945740
L   139.297684   451.949890
L   138.346252   453.845703
L   137.318710   455.633209
L   136.215042   457.312378
L   135.035263   458.883179
L   133.779388   460.345703
L   132.447372   461.699860
L   131.039246   462.945679
L   129.555008   464.083160
L   127.994644   465.112366
L   126.358170   466.033203
L   124.645599   466.845673
L   122.856918   467.549805
L   120.992096   468.145660
L   119.051147   468.633179
L   117.034134   469.012329
L   114.940964   469.283173
L   112.771713   469.445648
L   110.526306   469.499817
L    73.713806   469.499817
L    72.895691   469.542877
L    72.163666   469.672058
L    71.517776   469.887390
L    70.958008   470.188782
L    70.484360   470.576294
L    70.096817   471.049988
L    69.795410   471.609741
L    69.580109   472.255646
L    69.450958   472.987610
L    69.407883   473.805756
L    69.407883   517.694092
L    69.450943   518.512207
L    69.580109   519.244202
L    69.795410   519.890076
L    70.096832   520.449829
L    70.484360   520.923462
L    70.958008   521.311035
L    71.517776   521.612427
L    72.163681   521.827759
L    72.895691   521.956909
L    73.713806   522.000000
L   144.777954   522.000000
L   230.468735   522.000000
L   301.532898   522.000000
L   302.351013   521.956909
L   303.083008   521.827759
L   303.728912   521.612427
L   304.288696   521.311035
L   304.762329   520.923462
L   305.149841   520.449829
L   305.451294   519.890076
L   305.666565   519.244202
L   305.795746   518.512207
L   305.838806   517.694092
L   305.838806   473.805756
L   305.795715   472.987610
L   305.666565   472.255646
L   305.451294   471.609741
L   305.149872   471.049988
L   304.762329   470.576294
L   304.288696   470.188782
L   303.728912   469.887390
L   303.083008   469.672058
L   302.351013   469.542877
L   301.532898   469.499817
L   264.720398   469.499817
L   262.474976   469.445648
L   260.305725   469.283173
L   258.212555   469.012329
L   256.195557   468.633179
L   254.254593   468.145660
L   252.389771   467.549805
L   250.601089   466.845673
L   248.888519   466.033203
L   247.252045   465.112366
L   245.691681   464.083160
L   244.207443   462.945679
L   242.799316   461.699860
L   241.467300   460.345703
L   240.211426   458.883179
L   239.031647   457.312378
L   237.927979   455.633209
L   236.900436   453.845703
L   235.949005   451.949890
L   235.073685   449.945740
L   234.274475   447.833252
L   233.551376   445.612396
L   232.904404   443.283264
L   232.333542   440.845764
L   231.838791   438.299927
L   231.420181   435.645782
L   231.077652   432.883270
L   230.811249   430.012451
L   230.620956   427.033295
L   230.506790   423.945801
L   230.468735   420.750000 z
M    69.407898   567.000000
L    66.496735   566.949951
L    63.684204   566.799988
L    60.970413   566.549988
L    58.355255   566.200012
L    55.838821   565.750000
L    53.421051   565.199951
L    51.101974   564.549988
L    48.881561   563.800049
L    46.759857   562.949951
L    44.736862   562.000000
L    42.812500   560.950012
L    40.986847   559.799988
L    39.259857   558.549988
L    37.631561   557.200012
L    36.101974   555.750000
L    34.671051   554.199951
L    33.338806   552.549988
L    32.105270   550.799988
L    30.970398   548.950012
L    29.934204   547.000000
L    28.996704   544.950012
L    28.157898   542.799988
L    27.417755   540.549988
L    26.776306   538.200012
L    26.233551   535.750000
L    25.789474   533.199951
L    25.444077   530.549988
L    25.197372   527.799988
L    25.049347   524.950012
L    25.000000   522.000000
L    25.000000    72.000000
L    25.049347    69.050018
L    25.197372    66.199997
L    25.444092    63.450012
L    25.789459    60.799973
L    26.233566    58.250000
L    26.776321    55.800003
L    27.417770    53.450012
L    28.157883    51.199997
L    28.996704    49.050003
L    29.934235    47.000031
L    30.970398    45.050003
L    32.105255    43.199982
L    33.338821    41.450012
L    34.671051    39.799988
L    36.101974    38.250000
L    37.631577    36.799988
L    39.259857    35.450012
L    40.986847    34.200012
L    42.812500    33.049988
L    44.736847    32.000000
L    46.759872    31.049988
L    48.881577    30.200012
L    51.101974    29.449982
L    53.421066    28.799988
L    55.838806    28.250000
L    58.355286    27.799988
L    60.970398    27.450012
L    63.684219    27.200012
L    66.496719    27.049988
L    69.407898    27.000000
L   480.592102    27.000000
L   483.503265    27.050018
L   486.315796    27.200012
L   489.029602    27.450012
L   491.644745    27.799988
L   494.161194    28.250000
L   496.578949    28.800018
L   498.898010    29.450012
L   501.118439    30.199982
L   503.240143    31.050018
L   505.263123    32.000031
L   507.187500    33.049988
L   509.013153    34.200012
L   510.740143    35.450012
L   512.368408    36.799988
L   513.898010    38.250000
L   515.328979    39.800018
L   516.661194    41.450012
L   517.894714    43.200012
L   519.029602    45.050003
L   520.065796    47.000000
L   521.003296    49.050003
L   521.842102    51.200012
L   522.582275    53.449997
L   523.223694    55.800003
L   523.766479    58.250000
L   524.210510    60.800018
L   524.555908    63.449997
L   524.802612    66.199997
L   524.950684    69.050003
L   525.000000    72.000000
L   525.000000   522.000000
L   524.950684   524.949951
L   524.802612   527.799988
L   524.555908   530.549988
L   524.210571   533.200012
L   523.766418   535.750000
L   523.223694   538.200012
L   522.582214   540.549988
L   521.842102   542.799988
L   521.003296   544.950012
L   520.065796   547.000000
L   519.029602   548.950012
L   517.894775   550.800049
L   516.661194   552.549988
L   515.328979   554.200012
L   513.898010   555.750000
L   512.368408   557.200012
L   510.740143   558.549988
L   509.013153   559.799988
L   507.187500   560.950012
L   505.263153   562.000000
L   503.240112   562.950012
L   501.118408   563.799988
L   498.898010   564.550049
L   496.578918   565.200012
L   494.161194   565.750000
L   491.644714   566.200012
L   489.029602   566.549988
L   486.315796   566.799988
L   483.503296   566.950012
L   480.592102   567.000000
L    69.407898   567.000000 z
"
/>
<circle
fill="none"
stroke="#ca9b3d"
cx="144.777954"
cy="522.000000"
r="5.000000"
/>
<text
x="144.777954"
y="522.000000"
text-anchor="middle"
alignment-baseline="central"
fill="#ca9b3d"
font-size="0"
font-family="Arial"
>
1
</text>
<circle
fill="none"
stroke="#ca9b3d"
cx="69.407883"
cy="522.000000"
r="5.000000"
/>
<text
x="69.407883"
y="522.000000"
text-anchor="middle"
alignment-baseline="central"
fill="#ca9b3d"
font-size="0"
font-family="Arial"
>
2
</text>
<circle
fill="none"
stroke="#ca9b3d"
cx="69.407883"
cy="469.499817"
r="5.000000"
/>
<text
x="69.407883"
y="469.499817"
text-anchor="middle"
alignment-baseline="central"
fill="#ca9b3d"
font-size="0"
font-family="Arial"
>
3
</text>
<circle
fill="none"
stroke="#ca9b3d"
cx="110.526306"
cy="469.499817"
r="5.000000"
/>
<text
x="110.526306"
y="469.499817"
text-anchor="middle"
alignment-baseline="central"
fill="#ca9b3d"
font-size="0"
font-family="Arial"
>
4
</text>
<circle
fill="none"
stroke="#ca9b3d"
cx="144.777954"
cy="469.499817"
r="5.000000"
/>
<text
x="144.777954"
y="469.499817"
text-anchor="middle"
alignment-baseline="central"
fill="#ca9b3d"
font-size="0"
font-family="Arial"
>
5
</text>
<circle
fill="none"
stroke="#ca9b3d"
cx="144.777954"
cy="420.750000"
r="5.000000"
/>
<text
x="144.777954"
y="420.750000"
text-anchor="middle"
alignment-baseline="central"
fill="#ca9b3d"
font-size="0"
font-family="Arial"
>
6
</text>
<circle
fill="none"
stroke="#ca9b3d"
cx="480.592102"
cy="72.000015"
r="5.000000"
/>
<text
x="480.592102"
y="72.000015"
text-anchor="middle"
alignment-baseline="central"
fill="#ca9b3d"
font-size="0"
font-family="Arial"
>
7
</text>
<circle
fill="none"
stroke="#ca9b3d"
cx="480.592102"
cy="252.000000"
r="5.000000"
/>
<text
x="480.592102"
y="252.000000"
text-anchor="middle"
alignment-baseline="central"
fill="#ca9b3d"
font-size="0"
font-family="Arial"
>
8
</text>
<circle
fill="none"
stroke="#ca9b3d"
cx="429.194092"
cy="252.000000"
r="5.000000"
/>
<text
x="429.194092"
y="252.000000"
text-anchor="middle"
alignment-baseline="central"
fill="#ca9b3d"
font-size="0"
font-family="Arial"
>
9
</text>
<circle
fill="none"
stroke="#ca9b3d"
cx="429.194092"
cy="124.500153"
r="5.000000"
/>
<text
x="429.194092"
y="124.500153"
text-anchor="middle"
alignment-baseline="central"
fill="#ca9b3d"
font-size="0"
font-family="Arial"
>
10
</text>
<circle
fill="none"
stroke="#ca9b3d"
cx="365.460541"
cy="124.500153"
r="5.000000"
/>
<text
x="365.460541"
y="124.500153"
text-anchor="middle"
alignment-baseline="central"
fill="#ca9b3d"
font-size="0"
font-family="Arial"
>
11
</text>
<circle
fill="none"
stroke="#ca9b3d"
cx="230.468735"
cy="124.500153"
r="5.000000"
/>
<text
x="230.468735"
y="124.500153"
text-anchor="middle"
alignment-baseline="central"
fill="#ca9b3d"
font-size="0"
font-family="Arial"
>
12
</text>
<circle
fill="none"
stroke="#ca9b3d"
cx="230.468735"
cy="261.675018"
r="5.000000"
/>
<text
x="230.468735"
y="261.675018"
text-anchor="middle"
alignment-baseline="central"
fill="#ca9b3d"
font-size="0"
font-family="Arial"
>
13
</text>
<circle
fill="none"
stroke="#ca9b3d"
cx="268.832245"
cy="261.675018"
r="5.000000"
/>
<text
x="268.832245"
y="261.675018"
text-anchor="middle"
alignment-baseline="central"
fill="#ca9b3d"
font-size="0"
font-family="Arial"
>
14
</text>
<circle
fill="none"
stroke="#ca9b3d"
cx="314.062500"
cy="261.675018"
r="5.000000"
/>
<text
x="314.062500"
y="261.675018"
text-anchor="middle"
alignment-baseline="central"
fill="#ca9b3d"
font-size="0"
font-family="Arial"
>
15
</text>
<circle
fill="none"
stroke="#ca9b3d"
cx="314.062500"
cy="193.500000"
r="5.000000"
/>
<text
x="314.062500"
y="193.500000"
text-anchor="middle"
alignment-baseline="central"
fill="#ca9b3d"
font-size="0"
font-family="Arial"
>
16
</text>
<circle
fill="none"
stroke="#ca9b3d"
cx="314.062500"
cy="165.750076"
r="5.000000"
/>
<text
x="314.062500"
y="165.750076"
text-anchor="middle"
alignment-baseline="central"
fill="#ca9b3d"
font-size="0"
font-family="Arial"
>
17
</text>
<circle
fill="none"
stroke="#ca9b3d"
cx="360.320740"
cy="165.750076"
r="5.000000"
/>
<text
x="360.320740"
y="165.750076"
text-anchor="middle"
alignment-baseline="central"
fill="#ca9b3d"
font-size="0"
font-family="Arial"
>
18
</text>
<circle
fill="none"
stroke="#ca9b3d"
cx="69.407898"
cy="567.000000"
r="5.000000"
/>
<text
x="69.407898"
y="567.000000"
text-anchor="middle"
alignment-baseline="central"
fill="#ca9b3d"
font-size="0"
font-family="Arial"
>
A
</text>
<circle
fill="none"
stroke="#ca9b3d"
cx="25.000000"
cy="567.000000"
r="5.000000"
/>
<text
x="25.000000"
y="567.000000"
text-anchor="middle"
alignment-baseline="central"
fill="#ca9b3d"
font-size="0"
font-family="Arial"
>
B
</text>
<circle
fill="none"
stroke="#ca9b3d"
cx="25.000000"
cy="522.000000"
r="5.000000"
/>
<text
x="25.000000"
y="522.000000"
text-anchor="middle"
alignment-baseline="central"
fill="#ca9b3d"
font-size="0"
font-family="Arial"
>
C
</text>
<circle
fill="none"
stroke="#ca9b3d"
cx="25.000000"
cy="72.000000"
r="5.000000"
/>
<text
x="25.000000"
y="72.000000"
text-anchor="middle"
alignment-baseline="central"
fill="#ca9b3d"
font-size="0"
font-family="Arial"
>
D
</text>
<circle
fill="none"
stroke="#ca9b3d"
cx="25.000000"
cy="27.000000"
r="5.000000"
/>
<text
x="25.000000"
y="27.000000"
text-anchor="middle"
alignment-baseline="central"
fill="#ca9b3d"
font-size="0"
font-family="Arial"
>
E
</text>
<circle
fill="none"
stroke="#ca9b3d"
cx="69.407898"
cy="27.000000"
r="5.000000"
/>
<text
x="69.407898"
y="27.000000"
text-anchor="middle"
alignment-baseline="central"
fill="#ca9b3d"
font-size="0"
font-family="Arial"
>
F
</text>
<circle
fill="none"
stroke="#ca9b3d"
cx="480.592102"
cy="27.000000"
r="5.000000"
/>
<text
x="480.592102"
y="27.000000"
text-anchor="middle"
alignment-baseline="central"
fill="#ca9b3d"
font-size="0"
font-family="Arial"
>
G
</text>
<circle
fill="none"
stroke="#ca9b3d"
cx="525.000000"
cy="27.000000"
r="5.000000"
/>
<text
x="525.000000"
y="27.000000"
text-anchor="middle"
alignment-baseline="central"
fill="#ca9b3d"
font-size="0"
font-family="Arial"
>
H
</text>
<circle
fill="none"
stroke="#ca9b3d"
cx="525.000000"
cy="72.000000"
r="5.000000"
/>
<text
x="525.000000"
y="72.000000"
text-anchor="middle"
alignment-baseline="central"
fill="#ca9b3d"
font-size="0"
font-family="Arial"
>
I
</text>
<circle
fill="none"
stroke="#ca9b3d"
cx="525.000000"
cy="522.000000"
r="5.000000"
/>
<text
x="525.000000"
y="522.000000"
text-anchor="middle"
alignment-baseline="central"
fill="#ca9b3d"
font-size="0"
font-family="Arial"
>
J
</text>
<circle
fill="none"
stroke="#ca9b3d"
cx="525.000000"
cy="567.000000"
r="5.000000"
/>
<text
x="525.000000"
y="567.000000"
text-anchor="middle"
alignment-baseline="central"
fill="#ca9b3d"
font-size="0"
font-family="Arial"
>
K
</text>
<circle
fill="none"
stroke="#ca9b3d"
cx="480.592102"
cy="567.000000"
r="5.000000"
/>
<text
x="480.592102"
y="567.000000"
text-anchor="middle"
alignment-baseline="central"
fill="#ca9b3d"
font-size="0"
font-family="Arial"
>
L
</text>
<circle
fill="none"
stroke="#ca9b3d"
cx="187.623352"
cy="286.424988"
r="5.000000"
/>
<text
x="187.623352"
y="286.424988"
text-anchor="middle"
alignment-baseline="central"
fill="#ca9b3d"
font-size="0"
font-family="Arial"
>
R
</text>
</svg>
