<?xml version="1.0" ?><svg viewBox="0 0 2050 2050" xmlns="http://www.w3.org/2000/svg"><defs><style>.cls-1{fill:#2aa3ef;}.cls-2{fill:#ff4f75;}.cls-3{fill:#fadfaa;}.cls-4{fill:#ffa71e;}.cls-5{fill:#fff;opacity:0.5;}.cls-6{opacity:0.1;}.cls-7{fill:#ffd528;}.cls-8{fill:#dbdbdb;}.cls-9{fill:#231f20;}</style></defs><title/><g data-name="Layer 3" id="Layer_3"><polygon class="cls-1" points="762.2 1765.3 775.7 1940.1 866.5 1804.3 1144.7 765.9 1053.4 678.1 762.2 1765.3"/><polygon class="cls-2" points="970.8 1414.9 863.7 1386.2 762.2 1765.3 762.7 1772.8 867.4 1800.8 970.8 1414.9"/><polygon class="cls-3" points="861 1812.5 763.4 1781.1 775.7 1940.1 861 1812.5"/><circle class="cls-4" cx="1242.7" cy="550.4" r="215.5"/><path class="cls-5" d="M1050.2,585.4c0-119.1,96.5-215.5,215.5-215.5a215,215,0,0,1,167.9,80.3,215.5,215.5,0,0,0-190.9-115.3c-119,0-215.5,96.5-215.5,215.5a214.8,214.8,0,0,0,47.7,135.2A214.1,214.1,0,0,1,1050.2,585.4Z"/><path class="cls-6" d="M1429,441.9a216.2,216.2,0,0,1,7.8,57.8c0,119.1-96.5,215.6-215.5,215.6a215.2,215.2,0,0,1-186.2-107,215.4,215.4,0,0,0,207.6,157.6c119.1,0,215.6-96.5,215.6-215.5A214.6,214.6,0,0,0,1429,441.9Z"/><rect class="cls-7" height="1632.46" transform="translate(283.1 -122.6) rotate(15)" width="388.2" x="412.9" y="197.8"/><rect class="cls-4" height="83.59" transform="translate(-458.6 1509.3) rotate(-75)" width="1632.5" x="-62.1" y="1011.7"/><polygon class="cls-5" points="720.4 1340.8 764.4 1176.5 588.6 520.2 677.6 187.9 630.8 175.4 563.5 426.6 563.5 426.6 519.5 590.8 519.5 590.8 503.5 650.5 503.5 650.5 417.8 970.5 417.8 970.5 208.3 1752.3 583.3 1852.7 591.6 1821.7 263.4 1733.8 442.8 1064.1 618.7 1720.5 704.5 1400.4 528.6 744.1 544.6 684.4 720.4 1340.8"/><circle class="cls-7" cx="1242.7" cy="547" r="64.8"/><rect class="cls-1" height="107.92" width="107.9" x="1188.8" y="204"/><polygon class="cls-1" points="1723.3 1765.3 1651.3 1924.8 1340.8 765.9 1432 678.1 1723.3 1765.3"/><path class="cls-6" d="M1673.7,1875.1,1387.9,808.5a294.8,294.8,0,0,0,65.6-50.1L1432,678.1l-62.8,60.5h0l-28.4,27.3,15.5,58.1h0l295,1100.8Z"/><path class="cls-6" d="M831.6,1800.9l265.9-992.4a299.4,299.4,0,0,1-65.6-50.1l21.5-80.3,62.9,60.5h0l28.4,27.3L1129.2,824h0L879.8,1812.4,775.7,1917.3Z"/><rect class="cls-8" height="158.5" transform="matrix(0.97, -0.26, 0.26, 0.97, -304.98, 507.2)" width="103.4" x="1722.1" y="1332.6"/></g><g data-name="Layer 2" id="Layer_2"><path class="cls-9" d="M1862.6,1482.5l-47.2-176.3a20,20,0,0,0-24.5-14.1l-91.8,24.6a19.9,19.9,0,0,0-14.1,24.5l18.4,68.8-41.2,11.1L1459.5,664.8a247,247,0,0,0-130.7-349.1V195.4a20.1,20.1,0,0,0-20-20H1176.7a20,20,0,0,0-20,20V315.7a246.8,246.8,0,0,0-129.6,351.2L836,1379.9,732,1768.1h0v.4h0a22,22,0,0,0-.6,3.7v.3a5.4,5.4,0,0,0,0,1.8v.3c0,.5.1,1,.1,1.5a.4.4,0,0,0,.1.3v.2l24.8,160.2a20.1,20.1,0,0,0,14.6,16.3,22.4,22.4,0,0,0,5.1.7,19.9,19.9,0,0,0,15.6-7.5L893.2,1820l.2-.2.2-.3.9-1.3c0-.1.1-.1.1-.2a5.3,5.3,0,0,0,.8-1.5l.2-.3a11.1,11.1,0,0,0,.7-1.6h.1c.1-.6.3-1.1.4-1.6v-.2l104-388a4.3,4.3,0,0,0,.1-.5l171.7-640.6a247.7,247.7,0,0,0,141.7-.5L1624.1,1939a20.2,20.2,0,0,0,17.3,14.8h2a19.9,19.9,0,0,0,17.9-11.2l88-177.1a19.4,19.4,0,0,0,1.4-14l-78.2-291.9,41.3-11.1,18.4,68.9a20,20,0,0,0,19.3,14.8,18.6,18.6,0,0,0,5.2-.7l91.8-24.6a20,20,0,0,0,14.1-24.5ZM1196.7,215.4h92.1v89.2a248.7,248.7,0,0,0-92.1,0ZM869.5,1409.6l87.7,23.5L863.5,1783l-87.8-23.5ZM788.9,1886l-13.2-85.1,67.1,18Zm178.7-491.5L879.8,1371l177.3-661.6.5.6,3,3.3.8.9,3.9,4.1,1,1.1,3,2.9,1.4,1.4,2.8,2.7,1.4,1.3,3.1,2.8,1.1,1,4.3,3.8a2.7,2.7,0,0,1,.8.7l3.6,2.9,1.5,1.2,3,2.4,1.6,1.2,3.2,2.4,1.4,1,4.6,3.3h.3l4.4,3,1.5,1,3.4,2.1,1.7,1,3.3,2.1,1.6.9,4.4,2.5.5.3,5,2.7,1.5.7,3.6,1.8.8.4Zm198.7-655.4-3.9-1.6c-5.3-2.2-10.6-4.7-15.7-7.4l-7.7-4.3c-3.1-1.9-6.2-3.7-9.2-5.7l-.6-.4-7.5-5.2a211.3,211.3,0,0,1-49.2-50.2l-1-1.5-1.3-2c-1.6-2.3-3.1-4.7-4.5-7.1h0A206.3,206.3,0,0,1,1036,547c0-114,92.8-206.7,206.7-206.7S1449.4,433,1449.4,547a207,207,0,0,1-28.5,104.9c-2.9,4.9-6,9.6-9.2,14.2a208,208,0,0,1-91.1,72.4h0a207.2,207.2,0,0,1-154.3.6Zm482.8,1138.5L1351.8,768.3l.9-.4,3.5-1.8,1.6-.9c1.7-.8,3.3-1.7,4.9-2.6h.1l4.9-2.8,1.5-.9,3.5-2.1,1.7-1.1,3.2-2.1,1.6-1,3.9-2.7.8-.5,4.6-3.3,1.3-1,3.3-2.5,1.6-1.2,3-2.4,1.5-1.3,3.3-2.7,1.1-.9,4.2-3.8,1-.8,3.2-3,1.4-1.4,2.8-2.7a18.5,18.5,0,0,0,1.4-1.4l2.8-2.8,1.2-1.3,3.9-4.2.5-.5,3.3-3.7.4-.5,199,742.8,81.4,303.9Zm116.6-389.8-36.9-137.7,53.1-14.2,36.9,137.7Z"/><path class="cls-9" d="M1338,547a95.3,95.3,0,1,0-95.3,95.2A95.4,95.4,0,0,0,1338,547Zm-95.3,55.2A55.2,55.2,0,1,1,1298,547,55.2,55.2,0,0,1,1242.7,602.2Z"/><path class="cls-9" d="M1008.8,257.3,633.4,156.7a20.1,20.1,0,0,0-24.5,14.2L580.6,276.6h0L535,446.9h0L489.4,617.1h0L443.8,787.3h0l-91.3,340.4h0l-45.6,170.2h0l-45.6,170.2h0l-45.6,170.3h0l-28.3,105.7a20,20,0,0,0,14.1,24.5l375.4,100.6a17.9,17.9,0,0,0,5.1.7,19.5,19.5,0,0,0,10-2.7,19.8,19.8,0,0,0,9.3-12.1L1022.9,281.8A20,20,0,0,0,1008.8,257.3ZM249.2,1668l63.1,16.9a19.1,19.1,0,0,0,5.2.7,20,20,0,0,0,5.2-39.3l-63.2-16.9,35.3-131.6,26,7a22.5,22.5,0,0,0,5.2.7,20,20,0,0,0,5.1-39.4l-26-6.9,35.3-131.6,26,7a23.2,23.2,0,0,0,5.2.7,20,20,0,0,0,5.1-39.4l-25.9-6.9L386,1157.4l26,7a23.1,23.1,0,0,0,5.2.6,20,20,0,0,0,5.1-39.3l-25.9-6.9,35.2-131.6,63.2,16.9a17.9,17.9,0,0,0,5.1.7,20,20,0,0,0,5.2-39.3l-63.1-17L477.2,817l26,6.9a18.6,18.6,0,0,0,5.2.7,20,20,0,0,0,5.2-39.3l-26-7,35.2-131.6,26,7a19.1,19.1,0,0,0,5.2.7,20,20,0,0,0,5.2-39.3l-26-7,35.2-131.6,26,7a19.1,19.1,0,0,0,5.2.7,20,20,0,0,0,5.2-39.3l-26-7,35.3-131.6,63.1,16.9a18.6,18.6,0,0,0,5.2.7,20,20,0,0,0,5.1-39.3l-63.1-16.9,18-67.2,250.7,67.2L481.9,1802.3l-250.7-67.1Zm318.7,157.4-47.4-12.7L931.7,278.1l47.4,12.7Z"/><path class="cls-9" d="M1242.7,1330.9a686.7,686.7,0,0,1-224.2-37.4,20,20,0,0,1,13-37.8,651.1,651.1,0,0,0,428.1-2,20,20,0,0,1,13.3,37.7A685.6,685.6,0,0,1,1242.7,1330.9Z"/></g></svg>