<?xml version="1.0" encoding="utf-8" standalone="no" ?>
<svg
xmlns="http://www.w3.org/2000/svg"
x=".000000"
y=".000000"
width="257.549988"
height="257.549988"
>
<title>Fortran Logo</title>
<desc>Generated by Fortran Logo Generator</desc>
<pattern
id="diagonalFill"
width="9.000000"
height="1.000000"
patternUnits="userSpaceOnUse"
patternTransform="rotate(45)"
>
<rect
x=".000000"
y=".000000"
width="4.000000"
height="1.000000"
fill="#BF616A"
/>
</pattern>
<path
fill="url(#diagonalFill)"
stroke="#BF616A"
stroke-width="4.000000"
d="
M   109.534996   145.339996
L   109.918991   141.883987
L   111.070999   139.195984
L   112.990997   137.275986
L   115.678993   136.123993
L   119.134995   135.739990
L   122.299995   135.739990
L   124.554680   135.817108
L   126.693741   136.048431
L   128.717178   136.434006
L   130.625000   136.973785
L   132.417175   137.667801
L   134.093735   138.516037
L   135.654678   139.518494
L   137.099991   140.675186
L   138.429672   141.986099
L   139.643738   143.451233
L   140.742172   145.070602
L   141.724991   146.844193
L   142.592178   148.772003
L   143.343735   150.854034
L   143.979675   153.090302
L   144.499985   155.480789
L   144.904678   158.025497
L   145.193741   160.724442
L   145.367172   163.577606
L   145.424988   166.584991
L   145.424988   166.934998
L   145.808990   170.391006
L   146.960983   173.079010
L   148.880981   174.998993
L   151.568985   176.151001
L   155.024994   176.535004
L   158.949982   176.535004
L   162.405991   176.151001
L   165.093994   174.999008
L   167.013992   173.079010
L   168.165985   170.391006
L   168.549988   166.934998
L   168.549988    86.236984
L   168.165985    82.780983
L   167.013992    80.092987
L   165.093994    78.172989
L   162.405991    77.020981
L   158.949982    76.636986
L   155.024994    76.636986
L   151.568985    77.020981
L   148.880981    78.172989
L   146.960983    80.092987
L   145.808990    82.780983
L   145.424988    86.236984
L   145.424988    81.014999
L   145.367172    84.022385
L   145.193741    86.875549
L   144.904678    89.574493
L   144.499985    92.119202
L   143.979675    94.509689
L   143.343735    96.745949
L   142.592178    98.827988
L   141.724991   100.755798
L   140.742172   102.529388
L   139.643738   104.148750
L   138.429672   105.613892
L   137.099991   106.924797
L   135.654678   108.081490
L   134.093735   109.083954
L   132.417175   109.932190
L   130.625000   110.626198
L   128.717178   111.165985
L   126.693741   111.551552
L   124.554680   111.782890
L   122.299995   111.860001
L   119.134995   111.860001
L   115.678993   111.475998
L   112.990997   110.324005
L   111.070999   108.403999
L   109.918991   105.716003
L   109.534996   102.260002
L   109.534996    61.759987
L   109.918991    58.303986
L   111.070999    55.615982
L   112.990997    53.695984
L   115.678993    52.543976
L   119.134995    52.159988
L   164.849991    52.159988
L   168.096741    52.285240
L   171.176987    52.660988
L   174.090744    53.287239
L   176.837982    54.163986
L   179.418747    55.291245
L   181.832993    56.668991
L   184.080750    58.297241
L   186.161987    60.175987
L   188.076752    62.305237
L   189.824997    64.684990
L   191.406738    67.315239
L   192.821991    70.195992
L   194.070740    73.327248
L   195.152985    76.708992
L   196.068741    80.341248
L   196.817993    84.223991
L   197.400742    88.357239
L   197.816986    92.740997
L   198.066742    97.375252
L   198.149994   102.260002
L   198.149994   102.260002
L   198.533997   105.716003
L   199.685989   108.403999
L   201.605988   110.323997
L   204.294006   111.475998
L   207.750000   111.860001
L   211.674988   111.860001
L   215.130997   111.475998
L   217.819000   110.324005
L   219.738998   108.403999
L   220.890991   105.716003
L   221.274994   102.260002
L   221.274994    38.874992
L   220.890991    35.418991
L   219.738998    32.730995
L   217.819000    30.810989
L   215.130997    29.658989
L   211.674988    29.274994
L    65.874992    29.274994
L    45.874992    29.274994
L    42.418991    29.658989
L    39.730988    30.810989
L    37.810989    32.730995
L    36.658997    35.418991
L    36.274994    38.874992
L    36.274994    42.559998
L    36.658989    46.015991
L    37.810989    48.703995
L    39.730995    50.624001
L    42.418991    51.775993
L    45.874992    52.159996
L    54.774994    52.159996
L    55.857246    52.184868
L    56.884003    52.259499
L    57.855240    52.383865
L    58.770988    52.557983
L    59.631241    52.781868
L    60.435989    53.055496
L    61.185242    53.378876
L    61.878990    53.751999
L    62.517242    54.174873
L    63.099991    54.647491
L    63.627243    55.169876
L    64.098999    55.741997
L    64.515244    56.363876
L    64.875992    57.035500
L    65.181244    57.756874
L    65.430992    58.528000
L    65.625244    59.348877
L    65.763992    60.219498
L    65.847244    61.139877
L    65.874992    62.110001
L    65.874992   195.439987
L    65.847244   196.410110
L    65.763992   197.330490
L    65.625244   198.201111
L    65.430992   199.021988
L    65.181244   199.793121
L    64.875992   200.514496
L    64.515244   201.186111
L    64.098999   201.807983
L    63.627243   202.380112
L    63.099991   202.902496
L    62.517242   203.375122
L    61.878990   203.797989
L    61.185242   204.171112
L    60.435989   204.494492
L    59.631241   204.768127
L    58.770988   204.992004
L    57.855240   205.166122
L    56.884003   205.290497
L    55.857246   205.365112
L    54.774994   205.389984
L    45.874992   205.389984
L    42.418991   205.773987
L    39.730995   206.925995
L    37.810989   208.845993
L    36.658989   211.533997
L    36.274994   214.989990
L    36.274994   218.674988
L    36.658997   222.130997
L    37.810989   224.819000
L    39.730988   226.738998
L    42.418991   227.890991
L    45.874992   228.274994
L    65.874992   228.274994
L   109.534996   228.274994
L   132.718994   228.274994
L   136.174988   227.890991
L   138.863007   226.738998
L   140.782990   224.819000
L   141.934998   222.130997
L   142.319000   218.674988
L   142.319000   214.989990
L   141.934998   211.533997
L   140.782990   208.845993
L   138.862991   206.925995
L   136.174988   205.773987
L   132.718994   205.389984
L   120.634995   205.389984
L   119.552742   205.365112
L   118.525986   205.290497
L   117.554749   205.166122
L   116.639000   204.992004
L   115.778748   204.768127
L   114.973999   204.494492
L   114.224747   204.171112
L   113.530998   203.797989
L   112.892746   203.375122
L   112.309998   202.902496
L   111.782745   202.380112
L   111.310989   201.807983
L   110.894745   201.186111
L   110.533997   200.514496
L   110.228745   199.793121
L   109.978996   199.021988
L   109.784744   198.201111
L   109.645996   197.330490
L   109.562744   196.410110
L   109.534996   195.439987 z
M    56.274994   256.274994
L    50.912491   256.137512
L    45.824997   255.724976
L    41.012489   255.037506
L    36.474991   254.075012
L    32.212494   252.837494
L    28.224998   251.324997
L    24.512497   249.537476
L    21.074989   247.475006
L    17.912506   245.137482
L    15.024994   242.524994
L    12.412491   239.637482
L    10.074997   236.474976
L     8.012497   233.037491
L     6.224991   229.324997
L     4.712494   225.337494
L     3.474991   221.074997
L     2.512497   216.537491
L     1.824989   211.724991
L     1.412491   206.637497
L     1.274994   201.274994
L     1.274994    56.274994
L     1.412491    50.912491
L     1.825005    45.824997
L     2.512489    41.012489
L     3.474983    36.474991
L     4.712494    32.212494
L     6.224991    28.224998
L     8.012505    24.512497
L    10.074989    21.074989
L    12.412498    17.912506
L    15.024994    15.024994
L    17.912498    12.412491
L    21.075005    10.074997
L    24.512497     8.012497
L    28.224991     6.224991
L    32.212494     4.712494
L    36.474991     3.474991
L    41.012497     2.512497
L    45.824997     1.824989
L    50.912491     1.412491
L    56.274994     1.274994
L   201.274994     1.274994
L   206.637497     1.412491
L   211.724991     1.825005
L   216.537506     2.512489
L   221.074997     3.474983
L   225.337494     4.712494
L   229.324982     6.224991
L   233.037491     8.012505
L   236.475006    10.074989
L   239.637482    12.412498
L   242.524994    15.024994
L   245.137497    17.912498
L   247.474991    21.075005
L   249.537491    24.512497
L   251.324997    28.224991
L   252.837494    32.212494
L   254.074997    36.474991
L   255.037491    41.012497
L   255.725006    45.824997
L   256.137512    50.912491
L   256.274994    56.274994
L   256.274994   201.274994
L   256.137512   206.637497
L   255.724976   211.724991
L   255.037506   216.537506
L   254.075012   221.074997
L   252.837494   225.337494
L   251.324997   229.324982
L   249.537476   233.037491
L   247.475006   236.475006
L   245.137482   239.637482
L   242.524994   242.524994
L   239.637482   245.137497
L   236.474976   247.474991
L   233.037491   249.537491
L   229.324997   251.324997
L   225.337494   252.837494
L   221.074997   254.074997
L   216.537491   255.037491
L   211.724991   255.725006
L   206.637497   256.137512
L   201.274994   256.274994 z
"
/>
</svg>
