<?xml version="1.0" encoding="utf-8" standalone="no" ?>
<svg
xmlns="http://www.w3.org/2000/svg"
x=".000000"
y=".000000"
width="257.549988"
height="257.549988"
>
<title>Fortran Logo</title>
<desc>Generated by Fortran Logo Generator</desc>
<pattern
id="diagonalFill"
width="1.000000"
height="1.000000"
patternUnits="userSpaceOnUse"
patternTransform="rotate(45)"
>
<rect
x=".000000"
y=".000000"
width="4.000000"
height="1.000000"
fill="#6d5192"
/>
</pattern>
<path
fill="url(#diagonalFill)"
stroke="#6d5192"
stroke-width="1.000000"
d="
M   109.534996   137.659988
L   109.611794   136.968796
L   109.842194   136.431183
L   110.226196   136.047195
L   110.763794   135.816788
L   111.454994   135.739990
L   122.299995   135.739990
L   124.554680   135.817108
L   126.693741   136.048431
L   128.717178   136.434006
L   130.625000   136.973785
L   132.417175   137.667801
L   134.093735   138.516037
L   135.654678   139.518494
L   137.099991   140.675186
L   138.429672   141.986099
L   139.643738   143.451233
L   140.742172   145.070602
L   141.724991   146.844193
L   142.592178   148.772003
L   143.343735   150.854034
L   143.979675   153.090302
L   144.499985   155.480789
L   144.904678   158.025497
L   145.193741   160.724442
L   145.367172   163.577606
L   145.424988   166.584991
L   145.424988   174.615005
L   145.501785   175.306213
L   145.732193   175.843811
L   146.116180   176.227798
L   146.653793   176.458206
L   147.344986   176.535004
L   166.629990   176.535004
L   167.321198   176.458206
L   167.858795   176.227814
L   168.242798   175.843811
L   168.473190   175.306213
L   168.549988   174.615005
L   168.549988    78.556984
L   168.473190    77.865784
L   168.242798    77.328186
L   167.858795    76.944183
L   167.321198    76.713776
L   166.629990    76.636986
L   147.344986    76.636986
L   146.653793    76.713783
L   146.116180    76.944191
L   145.732193    77.328186
L   145.501785    77.865784
L   145.424988    78.556984
L   145.424988    81.014999
L   145.367172    84.022385
L   145.193741    86.875549
L   144.904678    89.574493
L   144.499985    92.119202
L   143.979675    94.509689
L   143.343735    96.745949
L   142.592178    98.827988
L   141.724991   100.755798
L   140.742172   102.529388
L   139.643738   104.148750
L   138.429672   105.613892
L   137.099991   106.924797
L   135.654678   108.081490
L   134.093735   109.083954
L   132.417175   109.932190
L   130.625000   110.626198
L   128.717178   111.165985
L   126.693741   111.551552
L   124.554680   111.782890
L   122.299995   111.860001
L   111.454994   111.860001
L   110.763794   111.783203
L   110.226196   111.552803
L   109.842194   111.168800
L   109.611794   110.631195
L   109.534996   109.940002
L   109.534996    54.079987
L   109.611794    53.388779
L   109.842194    52.851189
L   110.226196    52.467186
L   110.763794    52.236778
L   111.454994    52.159988
L   164.849991    52.159988
L   168.096741    52.304436
L   171.176987    52.737785
L   174.090744    53.460037
L   176.837982    54.471184
L   179.418747    55.771240
L   181.832993    57.360191
L   184.080750    59.238037
L   186.161987    61.404785
L   188.076752    63.860443
L   189.824997    66.604996
L   191.406738    69.638443
L   192.821991    72.960793
L   194.070740    76.572052
L   195.152985    80.472198
L   196.068741    84.661247
L   196.817993    89.139191
L   197.400742    93.906044
L   197.816986    98.961800
L   198.066742   104.306450
L   198.149994   109.940002
L   198.149994   109.940002
L   198.226791   110.631195
L   198.457184   111.168800
L   198.841187   111.552795
L   199.378799   111.783203
L   200.069992   111.860001
L   219.354996   111.860001
L   220.046204   111.783203
L   220.583801   111.552803
L   220.967804   111.168800
L   221.198196   110.631195
L   221.274994   109.940002
L   221.274994    31.194992
L   221.198196    30.503784
L   220.967789    29.966194
L   220.583801    29.582191
L   220.046204    29.351791
L   219.354996    29.274994
L    65.874992    29.274994
L    38.194992    29.274994
L    37.503784    29.351791
L    36.966187    29.582191
L    36.582199    29.966194
L    36.351791    30.503784
L    36.274994    31.194992
L    36.274994    50.239998
L    36.351791    50.931190
L    36.582184    51.468796
L    36.966194    51.852798
L    37.503784    52.083191
L    38.194992    52.159996
L    54.774994    52.159996
L    55.857246    52.184868
L    56.884003    52.259499
L    57.855240    52.383865
L    58.770988    52.557983
L    59.631241    52.781868
L    60.435989    53.055496
L    61.185242    53.378876
L    61.878990    53.751999
L    62.517242    54.174873
L    63.099991    54.647491
L    63.627243    55.169876
L    64.098999    55.741997
L    64.515244    56.363876
L    64.875992    57.035500
L    65.181244    57.756874
L    65.430992    58.528000
L    65.625244    59.348877
L    65.763992    60.219498
L    65.847244    61.139877
L    65.874992    62.110001
L    65.874992   195.439987
L    65.847244   196.410110
L    65.763992   197.330490
L    65.625244   198.201111
L    65.430992   199.021988
L    65.181244   199.793121
L    64.875992   200.514496
L    64.515244   201.186111
L    64.098999   201.807983
L    63.627243   202.380112
L    63.099991   202.902496
L    62.517242   203.375122
L    61.878990   203.797989
L    61.185242   204.171112
L    60.435989   204.494492
L    59.631241   204.768127
L    58.770988   204.992004
L    57.855240   205.166122
L    56.884003   205.290497
L    55.857246   205.365112
L    54.774994   205.389984
L    38.194992   205.389984
L    37.503784   205.466797
L    36.966194   205.697189
L    36.582184   206.081192
L    36.351791   206.618805
L    36.274994   207.309998
L    36.274994   226.354996
L    36.351791   227.046204
L    36.582199   227.583801
L    36.966187   227.967804
L    37.503784   228.198196
L    38.194992   228.274994
L    65.874992   228.274994
L   109.534996   228.274994
L   140.398987   228.274994
L   141.090210   228.198196
L   141.627808   227.967804
L   142.011780   227.583801
L   142.242188   227.046204
L   142.319000   226.354996
L   142.319000   207.309998
L   142.242188   206.618805
L   142.011810   206.081192
L   141.627792   205.697189
L   141.090210   205.466797
L   140.398987   205.389984
L   120.634995   205.389984
L   119.552742   205.365112
L   118.525986   205.290497
L   117.554749   205.166122
L   116.639000   204.992004
L   115.778748   204.768127
L   114.973999   204.494492
L   114.224747   204.171112
L   113.530998   203.797989
L   112.892746   203.375122
L   112.309998   202.902496
L   111.782745   202.380112
L   111.310989   201.807983
L   110.894745   201.186111
L   110.533997   200.514496
L   110.228745   199.793121
L   109.978996   199.021988
L   109.784744   198.201111
L   109.645996   197.330490
L   109.562744   196.410110
L   109.534996   195.439987 z
"
/>
</svg>
