<?xml version="1.0" encoding="utf-8" standalone="no" ?>
<svg
xmlns="http://www.w3.org/2000/svg"
x=".000000"
y=".000000"
width="255.000000"
height="255.000000"
>
<title>Fortran Logo</title>
<desc>Generated by Fortran Logo Generator</desc>
<pattern
id="diagonalFill"
width="1.000000"
height="1.000000"
patternUnits="userSpaceOnUse"
patternTransform="rotate(45)"
>
<rect
x=".000000"
y=".000000"
width="1.000000"
height="1.000000"
fill="#BF616A"
/>
</pattern>
<path
fill="url(#diagonalFill)"
stroke="#BF616A"
stroke-width="1.000000"
d="
M   108.260002   144.065002
L   108.643997   140.608994
L   109.796005   137.920990
L   111.716003   136.000992
L   114.403999   134.848999
L   117.860001   134.464996
L   121.025002   134.464996
L   123.279686   134.542114
L   125.418747   134.773438
L   127.442184   135.159012
L   129.350006   135.698792
L   131.142181   136.392807
L   132.818741   137.241043
L   134.379684   138.243500
L   135.824997   139.400192
L   137.154678   140.711105
L   138.368744   142.176239
L   139.467178   143.795609
L   140.449997   145.569199
L   141.317184   147.497009
L   142.068741   149.579041
L   142.704681   151.815308
L   143.224991   154.205795
L   143.629684   156.750504
L   143.918747   159.449448
L   144.092178   162.302612
L   144.149994   165.309998
L   144.149994   165.660004
L   144.533997   169.116013
L   145.685989   171.804016
L   147.605988   173.723999
L   150.293991   174.876007
L   153.750000   175.260010
L   157.674988   175.260010
L   161.130997   174.876007
L   163.819000   173.724014
L   165.738998   171.804016
L   166.890991   169.116013
L   167.274994   165.660004
L   167.274994    84.961990
L   166.890991    81.505989
L   165.738998    78.817993
L   163.819000    76.897995
L   161.130997    75.745987
L   157.674988    75.361992
L   153.750000    75.361992
L   150.293991    75.745987
L   147.605988    76.897995
L   145.685989    78.817993
L   144.533997    81.505989
L   144.149994    84.961990
L   144.149994    79.740005
L   144.092178    82.747391
L   143.918747    85.600555
L   143.629684    88.299500
L   143.224991    90.844208
L   142.704681    93.234695
L   142.068741    95.470955
L   141.317184    97.552994
L   140.449997    99.480804
L   139.467178   101.254395
L   138.368744   102.873756
L   137.154678   104.338898
L   135.824997   105.649803
L   134.379684   106.806496
L   132.818741   107.808960
L   131.142181   108.657196
L   129.350006   109.351204
L   127.442184   109.890991
L   125.418747   110.276558
L   123.279686   110.507896
L   121.025002   110.585007
L   117.860001   110.585007
L   114.403999   110.201004
L   111.716003   109.049011
L   109.796005   107.129005
L   108.643997   104.441010
L   108.260002   100.985008
L   108.260002    60.484993
L   108.643997    57.028992
L   109.796005    54.340988
L   111.716003    52.420990
L   114.403999    51.268982
L   117.860001    50.884995
L   163.574997    50.884995
L   166.821747    51.010246
L   169.901993    51.385994
L   172.815750    52.012245
L   175.562988    52.888992
L   178.143753    54.016251
L   180.557999    55.393997
L   182.805756    57.022247
L   184.886993    58.900993
L   186.801758    61.030243
L   188.550003    63.409996
L   190.131744    66.040245
L   191.546997    68.920998
L   192.795746    72.052254
L   193.877991    75.433998
L   194.793747    79.066254
L   195.542999    82.948997
L   196.125748    87.082245
L   196.541992    91.466003
L   196.791748    96.100258
L   196.875000   100.985008
L   196.875000   100.985008
L   197.259003   104.441010
L   198.410995   107.129005
L   200.330994   109.049004
L   203.019012   110.201004
L   206.475006   110.585007
L   210.399994   110.585007
L   213.856003   110.201004
L   216.544006   109.049011
L   218.464005   107.129005
L   219.615997   104.441010
L   220.000000   100.985008
L   220.000000    37.599998
L   219.615997    34.143997
L   218.464005    31.456001
L   216.544006    29.535995
L   213.856003    28.383995
L   210.399994    28.000000
L    64.599998    28.000000
L    44.599998    28.000000
L    41.143997    28.383995
L    38.455994    29.535995
L    36.535995    31.456001
L    35.384003    34.143997
L    35.000000    37.599998
L    35.000000    41.285004
L    35.383995    44.740997
L    36.535995    47.429001
L    38.456001    49.349007
L    41.143997    50.500999
L    44.599998    50.885002
L    53.500000    50.885002
L    54.582253    50.909874
L    55.609009    50.984505
L    56.580246    51.108871
L    57.495995    51.282990
L    58.356247    51.506874
L    59.160995    51.780502
L    59.910248    52.103882
L    60.603996    52.477005
L    61.242249    52.899879
L    61.824997    53.372498
L    62.352249    53.894882
L    62.824005    54.467003
L    63.240250    55.088882
L    63.600998    55.760506
L    63.906246    56.481880
L    64.155998    57.253006
L    64.350250    58.073883
L    64.488998    58.944504
L    64.572250    59.864883
L    64.599998    60.835007
L    64.599998   194.164993
L    64.572250   195.135117
L    64.488998   196.055496
L    64.350250   196.926117
L    64.155998   197.746994
L    63.906246   198.518127
L    63.600998   199.239502
L    63.240250   199.911118
L    62.824005   200.532990
L    62.352249   201.105118
L    61.824997   201.627502
L    61.242249   202.100128
L    60.603996   202.522995
L    59.910248   202.896118
L    59.160995   203.219498
L    58.356247   203.493134
L    57.495995   203.717010
L    56.580246   203.891129
L    55.609009   204.015503
L    54.582253   204.090118
L    53.500000   204.114990
L    44.599998   204.114990
L    41.143997   204.498993
L    38.456001   205.651001
L    36.535995   207.570999
L    35.383995   210.259003
L    35.000000   213.714996
L    35.000000   217.399994
L    35.384003   220.856003
L    36.535995   223.544006
L    38.455994   225.464005
L    41.143997   226.615997
L    44.599998   227.000000
L    64.599998   227.000000
L   108.260002   227.000000
L   131.444000   227.000000
L   134.899994   226.615997
L   137.588013   225.464005
L   139.507996   223.544006
L   140.660004   220.856003
L   141.044006   217.399994
L   141.044006   213.714996
L   140.660004   210.259003
L   139.507996   207.570999
L   137.587997   205.651001
L   134.899994   204.498993
L   131.444000   204.114990
L   119.360001   204.114990
L   118.277748   204.090118
L   117.250992   204.015503
L   116.279755   203.891129
L   115.364006   203.717010
L   114.503754   203.493134
L   113.699005   203.219498
L   112.949753   202.896118
L   112.256004   202.522995
L   111.617752   202.100128
L   111.035004   201.627502
L   110.507751   201.105118
L   110.035995   200.532990
L   109.619751   199.911118
L   109.259003   199.239502
L   108.953751   198.518127
L   108.704002   197.746994
L   108.509750   196.926117
L   108.371002   196.055496
L   108.287750   195.135117
L   108.260002   194.164993 z
M    55.000000   255.000000
L    49.637497   254.862503
L    44.550003   254.449982
L    39.737495   253.762512
L    35.199997   252.800018
L    30.937500   251.562500
L    26.950005   250.050003
L    23.237503   248.262482
L    19.799995   246.200012
L    16.637512   243.862488
L    13.750000   241.250000
L    11.137497   238.362488
L     8.800003   235.199982
L     6.737503   231.762497
L     4.949997   228.050003
L     3.437500   224.062500
L     2.199997   219.800003
L     1.237503   215.262497
L     0.549995   210.449997
L     0.137497   205.362503
L     0.000000   200.000000
L     0.000000    55.000000
L     0.137497    49.637497
L     0.550011    44.550003
L     1.237495    39.737495
L     2.199989    35.199997
L     3.437500    30.937500
L     4.949997    26.950005
L     6.737511    23.237503
L     8.799995    19.799995
L    11.137505    16.637512
L    13.750000    13.750000
L    16.637505    11.137497
L    19.800011     8.800003
L    23.237503     6.737503
L    26.949997     4.949997
L    30.937500     3.437500
L    35.199997     2.199997
L    39.737503     1.237503
L    44.550003     0.549995
L    49.637497     0.137497
L    55.000000     0.000000
L   200.000000     0.000000
L   205.362503     0.137497
L   210.449997     0.550011
L   215.262512     1.237495
L   219.800003     2.199989
L   224.062500     3.437500
L   228.049988     4.949997
L   231.762497     6.737511
L   235.200012     8.799995
L   238.362488    11.137505
L   241.250000    13.750000
L   243.862503    16.637505
L   246.199997    19.800011
L   248.262497    23.237503
L   250.050003    26.949997
L   251.562500    30.937500
L   252.800003    35.199997
L   253.762497    39.737503
L   254.450012    44.550003
L   254.862503    49.637497
L   255.000000    55.000000
L   255.000000   200.000000
L   254.862503   205.362503
L   254.449982   210.449997
L   253.762512   215.262512
L   252.800018   219.800003
L   251.562500   224.062500
L   250.050003   228.049988
L   248.262482   231.762497
L   246.200012   235.200012
L   243.862488   238.362488
L   241.250000   241.250000
L   238.362488   243.862503
L   235.199982   246.199997
L   231.762497   248.262497
L   228.050003   250.050003
L   224.062500   251.562500
L   219.800003   252.800003
L   215.262497   253.762497
L   210.449997   254.450012
L   205.362503   254.862503
L   200.000000   255.000000 z
"
/>
</svg>
