<?xml version="1.0" encoding="utf-8" standalone="no" ?>
<svg
xmlns="http://www.w3.org/2000/svg"
x=".000000"
y=".000000"
width="306.000000"
height="306.000000"
>
<title>Fortran Logo</title>
<desc>Generated by Fortran Logo Generator</desc>
<pattern
id="diagonalFill"
width="9.000000"
height="1.000000"
patternUnits="userSpaceOnUse"
patternTransform="rotate(45)"
>
<rect
x=".000000"
y=".000000"
width=".250000"
height=".250000"
fill="#6d5192"
/>
</pattern>
<line
stroke="#6d5192"
x1="60.500000"
y1="280.500000"
x2="60.500000"
y2="25.500000"
stroke-dasharray="2 2"
stroke-width=".250000"
/>
<line
stroke="#6d5192"
x1="25.500000"
y1="252.500000"
x2="280.500000"
y2="252.500000"
stroke-dasharray="2 2"
stroke-width=".250000"
/>
<line
stroke="#6d5192"
x1="79.000000"
y1="280.500000"
x2="79.000000"
y2="25.500000"
stroke-dasharray="2 2"
stroke-width=".250000"
/>
<line
stroke="#6d5192"
x1="25.500000"
y1="229.614990"
x2="280.500000"
y2="229.614990"
stroke-dasharray="2 2"
stroke-width=".250000"
/>
<line
stroke="#6d5192"
x1="90.099998"
y1="280.500000"
x2="90.099998"
y2="25.500000"
stroke-dasharray="2 2"
stroke-width=".250000"
/>
<line
stroke="#6d5192"
x1="25.500000"
y1="219.664993"
x2="280.500000"
y2="219.664993"
stroke-dasharray="2 2"
stroke-width=".250000"
/>
<line
stroke="#6d5192"
x1="245.500000"
y1="280.500000"
x2="245.500000"
y2="25.500000"
stroke-dasharray="2 2"
stroke-width=".250000"
/>
<line
stroke="#6d5192"
x1="25.500000"
y1="53.500000"
x2="280.500000"
y2="53.500000"
stroke-dasharray="2 2"
stroke-width=".250000"
/>
<line
stroke="#6d5192"
x1="222.375000"
y1="280.500000"
x2="222.375000"
y2="25.500000"
stroke-dasharray="2 2"
stroke-width=".250000"
/>
<line
stroke="#6d5192"
x1="25.500000"
y1="136.085007"
x2="280.500000"
y2="136.085007"
stroke-dasharray="2 2"
stroke-width=".250000"
/>
<line
stroke="#6d5192"
x1="189.074997"
y1="280.500000"
x2="189.074997"
y2="25.500000"
stroke-dasharray="2 2"
stroke-width=".250000"
/>
<line
stroke="#6d5192"
x1="25.500000"
y1="76.384995"
x2="280.500000"
y2="76.384995"
stroke-dasharray="2 2"
stroke-width=".250000"
/>
<line
stroke="#6d5192"
x1="146.524994"
y1="280.500000"
x2="146.524994"
y2="25.500000"
stroke-dasharray="2 2"
stroke-width=".250000"
/>
<line
stroke="#6d5192"
x1="25.500000"
y1="136.085007"
x2="280.500000"
y2="136.085007"
stroke-dasharray="2 2"
stroke-width=".250000"
/>
<line
stroke="#6d5192"
x1="169.649994"
y1="280.500000"
x2="169.649994"
y2="25.500000"
stroke-dasharray="2 2"
stroke-width=".250000"
/>
<line
stroke="#6d5192"
x1="25.500000"
y1="105.240005"
x2="280.500000"
y2="105.240005"
stroke-dasharray="2 2"
stroke-width=".250000"
/>
<line
stroke="#6d5192"
x1="192.774994"
y1="280.500000"
x2="192.774994"
y2="25.500000"
stroke-dasharray="2 2"
stroke-width=".250000"
/>
<line
stroke="#6d5192"
x1="25.500000"
y1="95.289993"
x2="280.500000"
y2="95.289993"
stroke-dasharray="2 2"
stroke-width=".250000"
/>
<line
stroke="#6d5192"
x1="111.930000"
y1="280.500000"
x2="111.930000"
y2="25.500000"
stroke-dasharray="2 2"
stroke-width=".250000"
/>
<line
stroke="#6d5192"
x1="25.500000"
y1="148.024994"
x2="280.500000"
y2="148.024994"
stroke-dasharray="2 2"
stroke-width=".250000"
/>
<line
stroke="#6d5192"
x1="25.500000"
y1="280.500000"
x2="25.500000"
y2="25.500000"
stroke-dasharray="2 2"
stroke-width=".250000"
/>
<line
stroke="#6d5192"
x1="25.500000"
y1="25.500000"
x2="280.500000"
y2="25.500000"
stroke-dasharray="2 2"
stroke-width=".250000"
/>
<line
stroke="#6d5192"
x1="280.500000"
y1="25.500000"
x2="280.500000"
y2="280.500000"
stroke-dasharray="2 2"
stroke-width=".250000"
/>
<line
stroke="#6d5192"
x1="280.500000"
y1="280.500000"
x2="25.500000"
y2="280.500000"
stroke-dasharray="2 2"
stroke-width=".250000"
/>
<path
fill="url(#diagonalFill)"
stroke="#6d5192"
stroke-width="1.000000"
d="
M   133.760010   161.884995
L   133.836792   161.193802
L   134.067200   160.656189
L   134.451202   160.272202
L   134.988800   160.041794
L   135.680008   159.964996
L   146.524994   159.964996
L   148.779694   160.042114
L   150.918747   160.273438
L   152.942184   160.659012
L   154.850006   161.198792
L   156.642181   161.892807
L   158.318741   162.741043
L   159.879684   163.743500
L   161.324997   164.900192
L   162.654678   166.211105
L   163.868744   167.676239
L   164.967178   169.295609
L   165.949997   171.069199
L   166.817184   172.997009
L   167.568741   175.079041
L   168.204681   177.315308
L   168.724991   179.705795
L   169.129684   182.250504
L   169.418747   184.949448
L   169.592178   187.802612
L   169.649994   190.809998
L   169.649994   198.840012
L   169.726791   199.531219
L   169.957199   200.068817
L   170.341187   200.452805
L   170.878799   200.683212
L   171.569992   200.760010
L   190.854996   200.760010
L   191.546204   200.683212
L   192.083801   200.452820
L   192.467804   200.068817
L   192.698196   199.531219
L   192.774994   198.840012
L   192.774994   102.781990
L   192.698196   102.090790
L   192.467804   101.553192
L   192.083801   101.169189
L   191.546204   100.938782
L   190.854996   100.861992
L   171.569992   100.861992
L   170.878799   100.938789
L   170.341187   101.169197
L   169.957199   101.553192
L   169.726791   102.090790
L   169.649994   102.781990
L   169.649994   105.240005
L   169.592178   108.247391
L   169.418747   111.100555
L   169.129684   113.799500
L   168.724991   116.344208
L   168.204681   118.734695
L   167.568741   120.970955
L   166.817184   123.052994
L   165.949997   124.980804
L   164.967178   126.754395
L   163.868744   128.373749
L   162.654678   129.838898
L   161.324997   131.149811
L   159.879684   132.306488
L   158.318741   133.308960
L   156.642181   134.157196
L   154.850006   134.851196
L   152.942184   135.390991
L   150.918747   135.776550
L   148.779694   136.007889
L   146.524994   136.085007
L   135.680008   136.085007
L   134.988800   136.008209
L   134.451202   135.777802
L   134.067200   135.393799
L   133.836792   134.856201
L   133.760010   134.165009
L   133.760010    78.304993
L   133.836807    77.613785
L   134.067200    77.076195
L   134.451202    76.692192
L   134.988800    76.461784
L   135.680008    76.384995
L   189.074997    76.384995
L   192.321747    76.529442
L   195.401993    76.962791
L   198.315750    77.685043
L   201.062988    78.696190
L   203.643753    79.996246
L   206.057999    81.585197
L   208.305756    83.463043
L   210.386993    85.629791
L   212.301758    88.085449
L   214.050003    90.830002
L   215.631744    93.863449
L   217.046997    97.185799
L   218.295746   100.797058
L   219.377991   104.697205
L   220.293747   108.886253
L   221.042999   113.364197
L   221.625748   118.131050
L   222.041992   123.186806
L   222.291748   128.531464
L   222.375000   134.165009
L   222.375000   134.165009
L   222.451797   134.856201
L   222.682190   135.393799
L   223.066193   135.777802
L   223.603806   136.008209
L   224.294998   136.085007
L   243.580002   136.085007
L   244.271210   136.008209
L   244.808807   135.777802
L   245.192810   135.393799
L   245.423203   134.856201
L   245.500000   134.165009
L   245.500000    55.419998
L   245.423203    54.728790
L   245.192795    54.191200
L   244.808807    53.807198
L   244.271210    53.576797
L   243.580002    53.500000
L    90.099998    53.500000
L    62.419998    53.500000
L    61.728790    53.576797
L    61.191193    53.807198
L    60.807205    54.191200
L    60.576797    54.728790
L    60.500000    55.419998
L    60.500000    74.465004
L    60.576797    75.156197
L    60.807190    75.693802
L    61.191200    76.077805
L    61.728790    76.308197
L    62.419998    76.385002
L    79.000000    76.385002
L    80.082253    76.409874
L    81.109009    76.484505
L    82.080246    76.608871
L    82.995995    76.782990
L    83.856247    77.006874
L    84.660995    77.280502
L    85.410248    77.603882
L    86.103996    77.977005
L    86.742249    78.399879
L    87.324997    78.872498
L    87.852249    79.394882
L    88.324005    79.967003
L    88.740250    80.588882
L    89.100998    81.260506
L    89.406250    81.981880
L    89.655998    82.753006
L    89.850250    83.573883
L    89.988998    84.444504
L    90.072250    85.364883
L    90.099998    86.335007
L    90.099998   219.664993
L    90.072250   220.635117
L    89.988998   221.555496
L    89.850250   222.426117
L    89.655998   223.246994
L    89.406250   224.018127
L    89.100998   224.739502
L    88.740250   225.411118
L    88.324005   226.032990
L    87.852249   226.605118
L    87.324997   227.127502
L    86.742249   227.600128
L    86.103996   228.022995
L    85.410248   228.396118
L    84.660995   228.719498
L    83.856247   228.993134
L    82.995995   229.217010
L    82.080246   229.391129
L    81.109009   229.515503
L    80.082253   229.590118
L    79.000000   229.614990
L    62.419998   229.614990
L    61.728790   229.691803
L    61.191200   229.922195
L    60.807190   230.306198
L    60.576797   230.843811
L    60.500000   231.535004
L    60.500000   250.580002
L    60.576797   251.271210
L    60.807205   251.808807
L    61.191193   252.192810
L    61.728790   252.423203
L    62.419998   252.500000
L    90.099998   252.500000
L   133.760010   252.500000
L   164.623993   252.500000
L   165.315216   252.423203
L   165.852814   252.192810
L   166.236786   251.808807
L   166.467194   251.271210
L   166.544006   250.580002
L   166.544006   231.535004
L   166.467194   230.843811
L   166.236816   230.306198
L   165.852798   229.922195
L   165.315216   229.691803
L   164.623993   229.614990
L   144.860001   229.614990
L   143.777740   229.590118
L   142.750992   229.515503
L   141.779755   229.391129
L   140.864014   229.217010
L   140.003754   228.993134
L   139.199005   228.719498
L   138.449753   228.396118
L   137.756012   228.022995
L   137.117752   227.600128
L   136.535004   227.127502
L   136.007751   226.605118
L   135.535995   226.032990
L   135.119751   225.411118
L   134.759003   224.739502
L   134.453751   224.018127
L   134.204010   223.246994
L   134.009750   222.426117
L   133.871002   221.555496
L   133.787750   220.635117
L   133.760010   219.664993 z
M    80.500000   280.500000
L    75.137497   280.362488
L    70.050003   279.949982
L    65.237495   279.262512
L    60.699997   278.300018
L    56.437500   277.062500
L    52.450005   275.549988
L    48.737503   273.762482
L    45.299995   271.700012
L    42.137512   269.362488
L    39.250000   266.750000
L    36.637497   263.862488
L    34.300003   260.699982
L    32.237503   257.262512
L    30.449997   253.550003
L    28.937500   249.562500
L    27.699997   245.300003
L    26.737503   240.762497
L    26.049995   235.949997
L    25.637497   230.862503
L    25.500000   225.500000
L    25.500000    80.500000
L    25.637497    75.137497
L    26.050011    70.050003
L    26.737495    65.237495
L    27.699989    60.699997
L    28.937500    56.437500
L    30.449997    52.450005
L    32.237511    48.737503
L    34.299995    45.299995
L    36.637505    42.137512
L    39.250000    39.250000
L    42.137505    36.637497
L    45.300011    34.300003
L    48.737503    32.237503
L    52.449997    30.449997
L    56.437500    28.937500
L    60.699997    27.699997
L    65.237503    26.737503
L    70.050003    26.049995
L    75.137497    25.637497
L    80.500000    25.500000
L   225.500000    25.500000
L   230.862503    25.637497
L   235.949997    26.050011
L   240.762512    26.737495
L   245.300003    27.699989
L   249.562500    28.937500
L   253.549988    30.449997
L   257.262512    32.237511
L   260.700012    34.299995
L   263.862488    36.637505
L   266.750000    39.250000
L   269.362488    42.137505
L   271.700012    45.300011
L   273.762512    48.737503
L   275.549988    52.449997
L   277.062500    56.437500
L   278.299988    60.699997
L   279.262512    65.237503
L   279.950012    70.050003
L   280.362488    75.137497
L   280.500000    80.500000
L   280.500000   225.500000
L   280.362488   230.862503
L   279.949982   235.949997
L   279.262512   240.762512
L   278.300018   245.300003
L   277.062500   249.562500
L   275.549988   253.549988
L   273.762482   257.262512
L   271.700012   260.700012
L   269.362488   263.862488
L   266.750000   266.750000
L   263.862488   269.362488
L   260.699982   271.700012
L   257.262512   273.762512
L   253.550003   275.549988
L   249.562500   277.062500
L   245.300003   278.299988
L   240.762497   279.262512
L   235.949997   279.950012
L   230.862503   280.362488
L   225.500000   280.500000 z
"
/>
<circle
fill="none"
stroke="#6d5192"
cx="90.099998"
cy="252.500000"
r="1.500000"
/>
<circle
fill="none"
stroke="#6d5192"
cx="60.500000"
cy="252.500000"
r="1.500000"
/>
<circle
fill="none"
stroke="#6d5192"
cx="60.500000"
cy="229.614990"
r="1.500000"
/>
<circle
fill="none"
stroke="#6d5192"
cx="79.000000"
cy="229.614990"
r="1.500000"
/>
<circle
fill="none"
stroke="#6d5192"
cx="90.099998"
cy="229.614990"
r="1.500000"
/>
<circle
fill="none"
stroke="#6d5192"
cx="90.099998"
cy="219.664993"
r="1.500000"
/>
<circle
fill="none"
stroke="#6d5192"
cx="245.500000"
cy="53.500000"
r="1.500000"
/>
<circle
fill="none"
stroke="#6d5192"
cx="245.500000"
cy="136.085007"
r="1.500000"
/>
<circle
fill="none"
stroke="#6d5192"
cx="222.375000"
cy="136.085007"
r="1.500000"
/>
<circle
fill="none"
stroke="#6d5192"
cx="222.375000"
cy="76.384995"
r="1.500000"
/>
<circle
fill="none"
stroke="#6d5192"
cx="189.074997"
cy="76.384995"
r="1.500000"
/>
<circle
fill="none"
stroke="#6d5192"
cx="133.760010"
cy="76.384995"
r="1.500000"
/>
<circle
fill="none"
stroke="#6d5192"
cx="133.760010"
cy="136.085007"
r="1.500000"
/>
<circle
fill="none"
stroke="#6d5192"
cx="146.524994"
cy="136.085007"
r="1.500000"
/>
<circle
fill="none"
stroke="#6d5192"
cx="169.649994"
cy="136.085007"
r="1.500000"
/>
<circle
fill="none"
stroke="#6d5192"
cx="169.649994"
cy="105.240005"
r="1.500000"
/>
<circle
fill="none"
stroke="#6d5192"
cx="169.649994"
cy="95.289993"
r="1.500000"
/>
<circle
fill="none"
stroke="#6d5192"
cx="192.774994"
cy="95.289993"
r="1.500000"
/>
<circle
fill="none"
stroke="#6d5192"
cx="80.500000"
cy="280.500000"
r="1.500000"
/>
<circle
fill="none"
stroke="#6d5192"
cx="25.500000"
cy="280.500000"
r="1.500000"
/>
<circle
fill="none"
stroke="#6d5192"
cx="25.500000"
cy="225.500000"
r="1.500000"
/>
<circle
fill="none"
stroke="#6d5192"
cx="25.500000"
cy="80.500000"
r="1.500000"
/>
<circle
fill="none"
stroke="#6d5192"
cx="25.500000"
cy="25.500000"
r="1.500000"
/>
<circle
fill="none"
stroke="#6d5192"
cx="80.500000"
cy="25.500000"
r="1.500000"
/>
<circle
fill="none"
stroke="#6d5192"
cx="225.500000"
cy="25.500000"
r="1.500000"
/>
<circle
fill="none"
stroke="#6d5192"
cx="280.500000"
cy="25.500000"
r="1.500000"
/>
<circle
fill="none"
stroke="#6d5192"
cx="280.500000"
cy="80.500000"
r="1.500000"
/>
<circle
fill="none"
stroke="#6d5192"
cx="280.500000"
cy="225.500000"
r="1.500000"
/>
<circle
fill="none"
stroke="#6d5192"
cx="280.500000"
cy="280.500000"
r="1.500000"
/>
<circle
fill="none"
stroke="#6d5192"
cx="225.500000"
cy="280.500000"
r="1.500000"
/>
<circle
fill="none"
stroke="#6d5192"
cx="111.930000"
cy="148.024994"
r="1.500000"
/>
<defs>
<marker
id="arrow"
fill="#6d5192"
viewBox="0 0 10 12"
refX="10"
refY="5"
markerWidth="6"
markerHeight="6"
orient="auto-start-reverse"
>
<path
d="M 0 2 L 10 4.5 L 10 5.5 L 0 8 z"
/>
<line
x1="10"
x2="10"
y1="0"
y2="10"
stroke="#6d5192"
stroke-width="2.000000"
/>
</marker>
</defs>
<text
x="94.599998"
y="248.000000"
text-anchor="middle"
alignment-baseline="central"
fill="#6d5192"
font-size="40%"
font-family="Cascadia Code"
transform="rotate(.000000,94.599998,248.000000)"
>
1
</text>
<text
x="65.000000"
y="248.000000"
text-anchor="middle"
alignment-baseline="central"
fill="#6d5192"
font-size="40%"
font-family="Cascadia Code"
transform="rotate(.000000,65.000000,248.000000)"
>
2
</text>
<text
x="65.000000"
y="234.114990"
text-anchor="middle"
alignment-baseline="central"
fill="#6d5192"
font-size="40%"
font-family="Cascadia Code"
transform="rotate(.000000,65.000000,234.114990)"
>
3
</text>
<text
x="83.500000"
y="234.114990"
text-anchor="middle"
alignment-baseline="central"
fill="#6d5192"
font-size="40%"
font-family="Cascadia Code"
transform="rotate(.000000,83.500000,234.114990)"
>
4
</text>
<text
x="94.599998"
y="234.114990"
text-anchor="middle"
alignment-baseline="central"
fill="#6d5192"
font-size="40%"
font-family="Cascadia Code"
transform="rotate(.000000,94.599998,234.114990)"
>
5
</text>
<text
x="94.599998"
y="224.164993"
text-anchor="middle"
alignment-baseline="central"
fill="#6d5192"
font-size="40%"
font-family="Cascadia Code"
transform="rotate(.000000,94.599998,224.164993)"
>
6
</text>
<text
x="241.000000"
y="58.000000"
text-anchor="middle"
alignment-baseline="central"
fill="#6d5192"
font-size="40%"
font-family="Cascadia Code"
transform="rotate(.000000,241.000000,58.000000)"
>
7
</text>
<text
x="241.000000"
y="131.585007"
text-anchor="middle"
alignment-baseline="central"
fill="#6d5192"
font-size="40%"
font-family="Cascadia Code"
transform="rotate(.000000,241.000000,131.585007)"
>
8
</text>
<text
x="226.875000"
y="131.585007"
text-anchor="middle"
alignment-baseline="central"
fill="#6d5192"
font-size="40%"
font-family="Cascadia Code"
transform="rotate(.000000,226.875000,131.585007)"
>
9
</text>
<text
x="226.875000"
y="80.884995"
text-anchor="middle"
alignment-baseline="central"
fill="#6d5192"
font-size="40%"
font-family="Cascadia Code"
transform="rotate(.000000,226.875000,80.884995)"
>
10
</text>
<text
x="184.574997"
y="71.884995"
text-anchor="middle"
alignment-baseline="central"
fill="#6d5192"
font-size="40%"
font-family="Cascadia Code"
transform="rotate(.000000,184.574997,71.884995)"
>
11
</text>
<text
x="129.260010"
y="71.884995"
text-anchor="middle"
alignment-baseline="central"
fill="#6d5192"
font-size="40%"
font-family="Cascadia Code"
transform="rotate(.000000,129.260010,71.884995)"
>
12
</text>
<text
x="129.260010"
y="140.585007"
text-anchor="middle"
alignment-baseline="central"
fill="#6d5192"
font-size="40%"
font-family="Cascadia Code"
transform="rotate(.000000,129.260010,140.585007)"
>
13
</text>
<text
x="151.024994"
y="140.585007"
text-anchor="middle"
alignment-baseline="central"
fill="#6d5192"
font-size="40%"
font-family="Cascadia Code"
transform="rotate(.000000,151.024994,140.585007)"
>
14
</text>
<text
x="174.149994"
y="140.585007"
text-anchor="middle"
alignment-baseline="central"
fill="#6d5192"
font-size="40%"
font-family="Cascadia Code"
transform="rotate(.000000,174.149994,140.585007)"
>
15
</text>
<text
x="174.149994"
y="109.740005"
text-anchor="middle"
alignment-baseline="central"
fill="#6d5192"
font-size="40%"
font-family="Cascadia Code"
transform="rotate(.000000,174.149994,109.740005)"
>
16
</text>
<text
x="174.149994"
y="90.789993"
text-anchor="middle"
alignment-baseline="central"
fill="#6d5192"
font-size="40%"
font-family="Cascadia Code"
transform="rotate(.000000,174.149994,90.789993)"
>
17
</text>
<text
x="197.274994"
y="90.789993"
text-anchor="middle"
alignment-baseline="central"
fill="#6d5192"
font-size="40%"
font-family="Cascadia Code"
transform="rotate(.000000,197.274994,90.789993)"
>
18
</text>
<text
x="85.000000"
y="276.000000"
text-anchor="middle"
alignment-baseline="central"
fill="#6d5192"
font-size="40%"
font-family="Cascadia Code"
transform="rotate(.000000,85.000000,276.000000)"
>
A
</text>
<text
x="21.000000"
y="285.000000"
text-anchor="middle"
alignment-baseline="central"
fill="#6d5192"
font-size="40%"
font-family="Cascadia Code"
transform="rotate(.000000,21.000000,285.000000)"
>
B
</text>
<text
x="30.000000"
y="221.000000"
text-anchor="middle"
alignment-baseline="central"
fill="#6d5192"
font-size="40%"
font-family="Cascadia Code"
transform="rotate(.000000,30.000000,221.000000)"
>
C
</text>
<text
x="30.000000"
y="85.000000"
text-anchor="middle"
alignment-baseline="central"
fill="#6d5192"
font-size="40%"
font-family="Cascadia Code"
transform="rotate(.000000,30.000000,85.000000)"
>
D
</text>
<text
x="21.000000"
y="21.000000"
text-anchor="middle"
alignment-baseline="central"
fill="#6d5192"
font-size="40%"
font-family="Cascadia Code"
transform="rotate(.000000,21.000000,21.000000)"
>
E
</text>
<text
x="76.000000"
y="21.000000"
text-anchor="middle"
alignment-baseline="central"
fill="#6d5192"
font-size="40%"
font-family="Cascadia Code"
transform="rotate(.000000,76.000000,21.000000)"
>
F
</text>
<text
x="230.000000"
y="21.000000"
text-anchor="middle"
alignment-baseline="central"
fill="#6d5192"
font-size="40%"
font-family="Cascadia Code"
transform="rotate(.000000,230.000000,21.000000)"
>
G
</text>
<text
x="285.000000"
y="21.000000"
text-anchor="middle"
alignment-baseline="central"
fill="#6d5192"
font-size="40%"
font-family="Cascadia Code"
transform="rotate(.000000,285.000000,21.000000)"
>
H
</text>
<text
x="285.000000"
y="76.000000"
text-anchor="middle"
alignment-baseline="central"
fill="#6d5192"
font-size="40%"
font-family="Cascadia Code"
transform="rotate(.000000,285.000000,76.000000)"
>
I
</text>
<text
x="285.000000"
y="230.000000"
text-anchor="middle"
alignment-baseline="central"
fill="#6d5192"
font-size="40%"
font-family="Cascadia Code"
transform="rotate(.000000,285.000000,230.000000)"
>
J
</text>
<text
x="285.000000"
y="285.000000"
text-anchor="middle"
alignment-baseline="central"
fill="#6d5192"
font-size="40%"
font-family="Cascadia Code"
transform="rotate(.000000,285.000000,285.000000)"
>
K
</text>
<text
x="230.000000"
y="285.000000"
text-anchor="middle"
alignment-baseline="central"
fill="#6d5192"
font-size="40%"
font-family="Cascadia Code"
transform="rotate(.000000,230.000000,285.000000)"
>
L
</text>
<text
x="60.500000"
y="295.000000"
text-anchor="middle"
alignment-baseline="central"
fill="#6d5192"
font-size="40%"
font-family="Cascadia Code"
transform="rotate(-90.000000,60.500000,295.000000)"
>
X(1,1)
</text>
<text
x="11.000000"
y="252.500000"
text-anchor="middle"
alignment-baseline="central"
fill="#6d5192"
font-size="40%"
font-family="Cascadia Code"
transform="rotate(.000000,11.000000,252.500000)"
>
Y(1,1)
</text>
<text
x="79.000000"
y="295.000000"
text-anchor="middle"
alignment-baseline="central"
fill="#6d5192"
font-size="40%"
font-family="Cascadia Code"
transform="rotate(-90.000000,79.000000,295.000000)"
>
X(2,1)
</text>
<text
x="11.000000"
y="229.614990"
text-anchor="middle"
alignment-baseline="central"
fill="#6d5192"
font-size="40%"
font-family="Cascadia Code"
transform="rotate(.000000,11.000000,229.614990)"
>
Y(2,1)
</text>
<text
x="90.099998"
y="295.000000"
text-anchor="middle"
alignment-baseline="central"
fill="#6d5192"
font-size="40%"
font-family="Cascadia Code"
transform="rotate(-90.000000,90.099998,295.000000)"
>
X(3,1)
</text>
<text
x="11.000000"
y="219.664993"
text-anchor="middle"
alignment-baseline="central"
fill="#6d5192"
font-size="40%"
font-family="Cascadia Code"
transform="rotate(.000000,11.000000,219.664993)"
>
Y(3,1)
</text>
<text
x="245.500000"
y="295.000000"
text-anchor="middle"
alignment-baseline="central"
fill="#6d5192"
font-size="40%"
font-family="Cascadia Code"
transform="rotate(-90.000000,245.500000,295.000000)"
>
X(1,2)
</text>
<text
x="11.000000"
y="53.500000"
text-anchor="middle"
alignment-baseline="central"
fill="#6d5192"
font-size="40%"
font-family="Cascadia Code"
transform="rotate(.000000,11.000000,53.500000)"
>
Y(1,2)
</text>
<text
x="222.375000"
y="295.000000"
text-anchor="middle"
alignment-baseline="central"
fill="#6d5192"
font-size="40%"
font-family="Cascadia Code"
transform="rotate(-90.000000,222.375000,295.000000)"
>
X(2,2)
</text>
<text
x="9.000000"
y="136.085007"
text-anchor="middle"
alignment-baseline="central"
fill="#6d5192"
font-size="40%"
font-family="Cascadia Code"
transform="rotate(.000000,9.000000,136.085007)"
>
=Y(2,2)
</text>
<text
x="186.074997"
y="295.000000"
text-anchor="middle"
alignment-baseline="central"
fill="#6d5192"
font-size="40%"
font-family="Cascadia Code"
transform="rotate(-90.000000,186.074997,295.000000)"
>
X(3,2)
</text>
<text
x="11.000000"
y="76.384995"
text-anchor="middle"
alignment-baseline="central"
fill="#6d5192"
font-size="40%"
font-family="Cascadia Code"
transform="rotate(.000000,11.000000,76.384995)"
>
Y(3,2)
</text>
<text
x="146.524994"
y="295.000000"
text-anchor="middle"
alignment-baseline="central"
fill="#6d5192"
font-size="40%"
font-family="Cascadia Code"
transform="rotate(-90.000000,146.524994,295.000000)"
>
X(1,3)
</text>
<text
x="11.000000"
y="128.585007"
text-anchor="middle"
alignment-baseline="central"
fill="#6d5192"
font-size="40%"
font-family="Cascadia Code"
transform="rotate(.000000,11.000000,128.585007)"
>
Y(1,3)
</text>
<text
x="169.649994"
y="295.000000"
text-anchor="middle"
alignment-baseline="central"
fill="#6d5192"
font-size="40%"
font-family="Cascadia Code"
transform="rotate(-90.000000,169.649994,295.000000)"
>
X(2,3)
</text>
<text
x="11.000000"
y="105.240005"
text-anchor="middle"
alignment-baseline="central"
fill="#6d5192"
font-size="40%"
font-family="Cascadia Code"
transform="rotate(.000000,11.000000,105.240005)"
>
Y(2,3)
</text>
<text
x="192.774994"
y="295.000000"
text-anchor="middle"
alignment-baseline="central"
fill="#6d5192"
font-size="40%"
font-family="Cascadia Code"
transform="rotate(-90.000000,192.774994,295.000000)"
>
X(3,3)
</text>
<text
x="11.000000"
y="95.289993"
text-anchor="middle"
alignment-baseline="central"
fill="#6d5192"
font-size="40%"
font-family="Cascadia Code"
transform="rotate(.000000,11.000000,95.289993)"
>
Y(3,3)
</text>
<text
x="119.430000"
y="152.524994"
text-anchor="middle"
alignment-baseline="central"
fill="#6d5192"
font-size="40%"
font-family="Cascadia Code"
transform="rotate(.000000,119.430000,152.524994)"
>
REF
</text>
<line
x1="225.500000"
x2="280.500000"
y1="12.500000"
y2="12.500000"
stroke="#6d5192"
marker-start="url(#arrow)"
marker-end="url(#arrow)"
/>
<text
x="253.000000"
y="6.500000"
text-anchor="middle"
alignment-baseline="central"
fill="#6d5192"
font-size="40%"
font-family="Cascadia Code"
transform="rotate(.000000,253.000000,6.500000)"
>
CORNER(1)
</text>
<line
x1="293.500000"
x2="293.500000"
y1="25.500000"
y2="80.500000"
stroke="#6d5192"
marker-start="url(#arrow)"
marker-end="url(#arrow)"
/>
<text
x="299.500000"
y="53.000000"
text-anchor="middle"
alignment-baseline="central"
fill="#6d5192"
font-size="40%"
font-family="Cascadia Code"
transform="rotate(-90.000000,299.500000,53.000000)"
>
CORNER(2)
</text>
<line
x1="25.500000"
x2="60.500000"
y1="153.000000"
y2="153.000000"
stroke="#6d5192"
marker-start="url(#arrow)"
marker-end="url(#arrow)"
/>
<text
x="43.000000"
y="160.500000"
text-anchor="middle"
alignment-baseline="central"
fill="#6d5192"
font-size="40%"
font-family="Cascadia Code"
transform="rotate(.000000,43.000000,160.500000)"
>
MAR(1)
</text>
<line
x1="280.500000"
x2="245.500000"
y1="153.000000"
y2="153.000000"
stroke="#6d5192"
marker-start="url(#arrow)"
marker-end="url(#arrow)"
/>
<text
x="263.000000"
y="160.500000"
text-anchor="middle"
alignment-baseline="central"
fill="#6d5192"
font-size="40%"
font-family="Cascadia Code"
transform="rotate(.000000,263.000000,160.500000)"
>
MAR(2)
</text>
<line
x1="153.000000"
x2="153.000000"
y1="25.500000"
y2="53.500000"
stroke="#6d5192"
marker-start="url(#arrow)"
marker-end="url(#arrow)"
/>
<text
x="160.500000"
y="39.500000"
text-anchor="middle"
alignment-baseline="central"
fill="#6d5192"
font-size="40%"
font-family="Cascadia Code"
transform="rotate(-90.000000,160.500000,39.500000)"
>
MAR(4)
</text>
<line
x1="153.000000"
x2="153.000000"
y1="280.500000"
y2="252.500000"
stroke="#6d5192"
marker-start="url(#arrow)"
marker-end="url(#arrow)"
/>
<text
x="160.500000"
y="266.500000"
text-anchor="middle"
alignment-baseline="central"
fill="#6d5192"
font-size="40%"
font-family="Cascadia Code"
transform="rotate(-90.000000,160.500000,266.500000)"
>
MAR(3)
</text>
<line
x1="160.500000"
x2="160.500000"
y1="86.289993"
y2="95.289993"
stroke="#6d5192"
marker-end="url(#arrow)"
/>
<line
x1="160.500000"
x2="160.500000"
y1="109.861992"
y2="100.861992"
stroke="#6d5192"
marker-end="url(#arrow)"
/>
<text
x="153.000000"
y="98.075989"
text-anchor="middle"
alignment-baseline="central"
fill="#6d5192"
font-size="40%"
font-family="Cascadia Code"
transform="rotate(-90.000000,153.000000,98.075989)"
>
OFFSET(2)
</text>
<line
x1="154.360001"
x2="163.360001"
y1="219.664993"
y2="219.664993"
stroke="#6d5192"
marker-end="url(#arrow)"
/>
<line
x1="175.544006"
x2="166.544006"
y1="219.664993"
y2="219.664993"
stroke="#6d5192"
marker-end="url(#arrow)"
/>
<text
x="164.951996"
y="212.164993"
text-anchor="middle"
alignment-baseline="central"
fill="#6d5192"
font-size="40%"
font-family="Cascadia Code"
transform="rotate(.000000,164.951996,212.164993)"
>
OFFSET(1)
</text>
</svg>
