<?xml version="1.0" encoding="utf-8" standalone="no" ?>
<svg
xmlns="http://www.w3.org/2000/svg"
x=".000000"
y=".000000"
width="255.000000"
height="255.000000"
>
<title>Fortran Logo</title>
<desc>Generated by Fortran Logo Generator</desc>
<pattern
id="diagonalFill"
width="1.000000"
height="1.000000"
patternUnits="userSpaceOnUse"
patternTransform="rotate(45)"
>
<rect
x=".000000"
y=".000000"
width="1.000000"
height="1.000000"
fill="#5E81AC"
/>
</pattern>
<path
fill="url(#diagonalFill)"
stroke="#5E81AC"
stroke-width="1.000000"
d="
M   116.400009   155.934998
L   116.860809   151.787796
L   118.243210   148.562195
L   120.547211   146.258194
L   123.772812   144.875793
L   127.920006   144.414993
L   121.025002   144.414993
L   123.279686   144.492111
L   125.418747   144.723450
L   127.442184   145.109009
L   129.350006   145.648804
L   131.142181   146.342804
L   132.818741   147.191040
L   134.379684   148.193512
L   135.824997   149.350189
L   137.154678   150.661102
L   138.368744   152.126251
L   139.467178   153.745605
L   140.449997   155.519196
L   141.317184   157.447006
L   142.068741   159.529053
L   142.704681   161.765305
L   143.224991   164.155792
L   143.629684   166.700500
L   143.918747   169.399445
L   144.092178   172.252609
L   144.149994   175.259995
L   144.149994   173.690002
L   144.610794   177.837204
L   145.993195   181.062805
L   148.297195   183.366806
L   151.522797   184.749207
L   155.669998   185.210007
L   162.229996   185.210007
L   166.377197   184.749207
L   169.602798   183.366806
L   171.906799   181.062805
L   173.289200   177.837204
L   173.750000   173.690002
L   173.750000    81.309998
L   173.289200    77.162796
L   171.906799    73.937195
L   169.602798    71.633194
L   166.377197    70.250793
L   162.229996    69.789993
L   155.669998    69.789993
L   151.522797    70.250793
L   148.297195    71.633194
L   145.993195    73.937195
L   144.610794    77.162796
L   144.149994    81.309998
L   144.149994    79.740005
L   144.092178    82.747391
L   143.918747    85.600555
L   143.629684    88.299500
L   143.224991    90.844208
L   142.704681    93.234695
L   142.068741    95.470955
L   141.317184    97.552994
L   140.449997    99.480804
L   139.467178   101.254395
L   138.368744   102.873756
L   137.154678   104.338898
L   135.824997   105.649803
L   134.379684   106.806496
L   132.818741   107.808960
L   131.142181   108.657196
L   129.350006   109.351204
L   127.442184   109.890991
L   125.418747   110.276558
L   123.279686   110.507896
L   121.025002   110.585007
L   127.920006   110.585007
L   123.772812   110.124207
L   120.547211   108.741806
L   118.243210   106.437805
L   116.860809   103.212204
L   116.400009    99.065002
L   116.400009    62.404991
L   116.860809    58.257790
L   118.243210    55.032196
L   120.547211    52.728195
L   123.772812    51.345787
L   127.920006    50.884995
L   163.574997    50.884995
L   166.370804    50.948227
L   169.023254    51.137947
L   171.532318    51.454132
L   173.897995    51.896790
L   176.120316    52.465935
L   178.199249    53.161545
L   180.134811    53.983635
L   181.927002    54.932190
L   183.575806    56.007233
L   185.081253    57.208740
L   186.443298    58.536736
L   187.662003    59.991196
L   188.737305    61.572136
L   189.669250    63.279549
L   190.457809    65.113434
L   191.102997    67.073792
L   191.604813    69.160629
L   191.963242    71.373947
L   192.178314    73.713737
L   192.250000    76.179993
L   192.250000    76.179993
L   192.710800    80.327194
L   194.093201    83.552795
L   196.397202    85.856796
L   199.622803    87.239197
L   203.769989    87.699997
L   208.480011    87.699997
L   212.627197    87.239197
L   215.852798    85.856796
L   218.156799    83.552795
L   219.539200    80.327194
L   220.000000    76.179993
L   220.000000    39.519997
L   219.539200    35.372795
L   218.156799    32.147202
L   215.852814    29.843201
L   212.627197    28.460793
L   208.480011    28.000000
L    64.599998    28.000000
L    46.519997    28.000000
L    42.372795    28.460793
L    39.147194    29.843201
L    36.843201    32.147202
L    35.460800    35.372795
L    35.000000    39.519997
L    35.000000    39.365005
L    35.460800    43.512199
L    36.843193    46.737801
L    39.147202    49.041801
L    42.372795    50.424194
L    46.519997    50.885002
L    53.500000    50.885002
L    54.582253    50.909874
L    55.609009    50.984505
L    56.580246    51.108871
L    57.495995    51.282990
L    58.356247    51.506874
L    59.160995    51.780502
L    59.910248    52.103882
L    60.603996    52.477005
L    61.242249    52.899879
L    61.824997    53.372498
L    62.352249    53.894882
L    62.824005    54.467003
L    63.240250    55.088882
L    63.600998    55.760506
L    63.906246    56.481880
L    64.155998    57.253006
L    64.350250    58.073883
L    64.488998    58.944504
L    64.572250    59.864883
L    64.599998    60.835007
L    64.599998   194.164993
L    64.572250   195.135117
L    64.488998   196.055496
L    64.350250   196.926117
L    64.155998   197.746994
L    63.906246   198.518127
L    63.600998   199.239502
L    63.240250   199.911118
L    62.824005   200.532990
L    62.352249   201.105118
L    61.824997   201.627502
L    61.242249   202.100128
L    60.603996   202.522995
L    59.910248   202.896118
L    59.160995   203.219498
L    58.356247   203.493134
L    57.495995   203.717010
L    56.580246   203.891129
L    55.609009   204.015503
L    54.582253   204.090118
L    53.500000   204.114990
L    46.519997   204.114990
L    42.372795   204.575806
L    39.147202   205.958191
L    36.843193   208.262207
L    35.460800   211.487793
L    35.000000   215.634995
L    35.000000   215.480011
L    35.460800   219.627197
L    36.843201   222.852798
L    39.147194   225.156799
L    42.372795   226.539215
L    46.519997   227.000000
L    64.599998   227.000000
L   116.400009   227.000000
L   134.480011   227.000000
L   138.627213   226.539215
L   141.852814   225.156799
L   144.156799   222.852798
L   145.539215   219.627197
L   146.000000   215.480011
L   146.000000   215.634995
L   145.539215   211.487793
L   144.156815   208.262207
L   141.852814   205.958191
L   138.627213   204.575806
L   134.480011   204.114990
L   127.500008   204.114990
L   126.417755   204.090118
L   125.390999   204.015503
L   124.419762   203.891129
L   123.504013   203.717010
L   122.643761   203.493134
L   121.839012   203.219498
L   121.089760   202.896118
L   120.396011   202.522995
L   119.757759   202.100128
L   119.175011   201.627502
L   118.647758   201.105118
L   118.176003   200.532990
L   117.759758   199.911118
L   117.399010   199.239502
L   117.093765   198.518127
L   116.844009   197.746994
L   116.649757   196.926117
L   116.511009   196.055496
L   116.427757   195.135117
L   116.400009   194.164993 z
"
/>
</svg>
