<?xml version="1.0" encoding="utf-8" standalone="no" ?>
<svg
xmlns="http://www.w3.org/2000/svg"
x=".000000"
y=".000000"
width="257.549988"
height="257.549988"
>
<title>Fortran Logo</title>
<desc>Generated by Fortran Logo Generator</desc>
<pattern
id="diagonalFill"
width="1.000000"
height="1.000000"
patternUnits="userSpaceOnUse"
patternTransform="rotate(45)"
>
<rect
x=".000000"
y=".000000"
width="4.000000"
height="1.000000"
fill="#69604e"
/>
</pattern>
<path
fill="url(#diagonalFill)"
stroke="#69604e"
stroke-width="1.000000"
d="
M   105.224495   136.366501
L   105.301292   135.675293
L   105.531693   135.137695
L   105.915695   134.753693
L   106.453293   134.523300
L   107.144493   134.446503
L   126.000000   134.446503
L   127.984123   134.521866
L   129.866501   134.747986
L   131.647125   135.124832
L   133.326004   135.652435
L   134.903122   136.330780
L   136.378494   137.159866
L   137.752121   138.139679
L   139.024002   139.270264
L   140.194122   140.551575
L   141.262497   141.983627
L   142.229126   143.566422
L   143.093994   145.299957
L   143.857117   147.184235
L   144.518494   149.219269
L   145.078125   151.405029
L   145.535995   153.741547
L   145.892120   156.228790
L   146.146500   158.866791
L   146.299118   161.655518
L   146.350006   164.595001
L   146.350006   174.946640
L   146.426804   175.637848
L   146.657196   176.175446
L   147.041199   176.559433
L   147.578796   176.789841
L   148.270004   176.866638
L   165.242493   176.866638
L   165.933685   176.789841
L   166.471283   176.559448
L   166.855286   176.175446
L   167.085693   175.637848
L   167.162491   174.946640
L   167.162491    78.225349
L   167.085693    77.534149
L   166.855286    76.996552
L   166.471283    76.612549
L   165.933685    76.382149
L   165.242493    76.305351
L   148.270004    76.305351
L   147.578796    76.382149
L   147.041199    76.612556
L   146.657196    76.996552
L   146.426804    77.534149
L   146.350006    78.225349
L   146.350006    83.004990
L   146.299118    85.944473
L   146.146500    88.733200
L   145.892120    91.371201
L   145.535995    93.858452
L   145.078125    96.194962
L   144.518494    98.380730
L   143.857117   100.415749
L   143.093994   102.300034
L   142.229126   104.033569
L   141.262497   105.616371
L   140.194122   107.048424
L   139.024002   108.329735
L   137.752121   109.460304
L   136.378494   110.440132
L   134.903122   111.269211
L   133.326004   111.947556
L   131.647125   112.475159
L   129.866501   112.852013
L   127.984123   113.078125
L   126.000000   113.153496
L   107.144493   113.153496
L   106.453293   113.076691
L   105.915695   112.846298
L   105.531693   112.462296
L   105.301292   111.924698
L   105.224495   111.233498
L   105.224495    54.411713
L   105.301292    53.720512
L   105.531693    53.182915
L   105.915695    52.798912
L   106.453293    52.568512
L   107.144493    52.491714
L   169.475006    52.491714
L   172.270813    52.627876
L   174.923248    53.036346
L   177.432312    53.717140
L   179.798004    54.670242
L   182.020309    55.895668
L   184.099243    57.393410
L   186.034821    59.163467
L   187.826996    61.205841
L   189.475800    63.520531
L   190.981247    66.107529
L   192.343292    68.966858
L   193.561996    72.098495
L   194.637299    75.502457
L   195.569244    79.178726
L   196.357803    83.127304
L   197.002991    87.348213
L   197.504807    91.841431
L   197.863235    96.606972
L   198.078308   101.644821
L   198.149994   106.954994
L   198.149994   106.954994
L   198.226791   107.646194
L   198.457184   108.183792
L   198.841187   108.567795
L   199.378799   108.798187
L   200.069992   108.874992
L   219.354996   108.874992
L   220.046204   108.798187
L   220.583801   108.567795
L   220.967804   108.183792
L   221.198196   107.646194
L   221.274994   106.954994
L   221.274994    31.194992
L   221.198196    30.503784
L   220.967789    29.966194
L   220.583801    29.582191
L   220.046204    29.351791
L   219.354996    29.274994
L    70.185493    29.274994
L    38.194992    29.274994
L    37.503784    29.351791
L    36.966187    29.582191
L    36.582199    29.966194
L    36.351791    30.503784
L    36.274994    31.194992
L    36.274994    50.571732
L    36.351791    51.262924
L    36.582184    51.800529
L    36.966194    52.184532
L    37.503784    52.414925
L    38.194992    52.491730
L    54.774994    52.491730
L    56.277519    52.545631
L    57.702995    52.707321
L    59.051407    52.976784
L    60.322769    53.354050
L    61.517090    53.839119
L    62.634346    54.431976
L    63.674561    55.132622
L    64.637711    55.941055
L    65.523819    56.857285
L    66.332870    57.881294
L    67.064865    59.013107
L    67.719818    60.252701
L    68.297707    61.600098
L    68.798546    63.055283
L    69.222336    64.618256
L    69.569069    66.289017
L    69.838760    68.067574
L    70.031387    69.953918
L    70.146973    71.948059
L    70.185493    74.049988
L    70.185493   183.500000
L    70.146973   185.601929
L    70.031387   187.596069
L    69.838760   189.482422
L    69.569069   191.260971
L    69.222336   192.931732
L    68.798546   194.494705
L    68.297707   195.949890
L    67.719818   197.297287
L    67.064865   198.536880
L    66.332870   199.668701
L    65.523819   200.692703
L    64.637711   201.608932
L    63.674561   202.417358
L    62.634346   203.118011
L    61.517090   203.710876
L    60.322769   204.195938
L    59.051407   204.573212
L    57.702995   204.842667
L    56.277519   205.004364
L    54.774994   205.058258
L    38.194992   205.058258
L    37.503784   205.135071
L    36.966194   205.365448
L    36.582184   205.749451
L    36.351791   206.287064
L    36.274994   206.978256
L    36.274994   226.354996
L    36.351791   227.046204
L    36.582199   227.583801
L    36.966187   227.967804
L    37.503784   228.198196
L    38.194992   228.274994
L    70.185493   228.274994
L   105.224495   228.274994
L   140.398987   228.274994
L   141.090210   228.198196
L   141.627808   227.967804
L   142.011780   227.583801
L   142.242188   227.046204
L   142.319000   226.354996
L   142.319000   206.978256
L   142.242188   206.287064
L   142.011810   205.749451
L   141.627792   205.365448
L   141.090210   205.135071
L   140.398987   205.058258
L   120.634995   205.058258
L   119.132469   205.004364
L   117.706993   204.842667
L   116.358582   204.573212
L   115.087219   204.195938
L   113.892899   203.710876
L   112.775642   203.118011
L   111.735428   202.417358
L   110.772278   201.608932
L   109.886169   200.692703
L   109.077118   199.668701
L   108.345123   198.536880
L   107.690170   197.297287
L   107.112282   195.949890
L   106.611443   194.494705
L   106.187653   192.931732
L   105.840919   191.260971
L   105.571228   189.482422
L   105.378601   187.596069
L   105.263016   185.601929
L   105.224495   183.500000 z
M    56.274994   256.274994
L    50.912491   256.137512
L    45.824997   255.724976
L    41.012489   255.037506
L    36.474991   254.075012
L    32.212494   252.837494
L    28.224998   251.324997
L    24.512497   249.537476
L    21.074989   247.475006
L    17.912506   245.137482
L    15.024994   242.524994
L    12.412491   239.637482
L    10.074997   236.474976
L     8.012497   233.037491
L     6.224991   229.324997
L     4.712494   225.337494
L     3.474991   221.074997
L     2.512497   216.537491
L     1.824989   211.724991
L     1.412491   206.637497
L     1.274994   201.274994
L     1.274994    56.274994
L     1.412491    50.912491
L     1.825005    45.824997
L     2.512489    41.012489
L     3.474983    36.474991
L     4.712494    32.212494
L     6.224991    28.224998
L     8.012505    24.512497
L    10.074989    21.074989
L    12.412498    17.912506
L    15.024994    15.024994
L    17.912498    12.412491
L    21.075005    10.074997
L    24.512497     8.012497
L    28.224991     6.224991
L    32.212494     4.712494
L    36.474991     3.474991
L    41.012497     2.512497
L    45.824997     1.824989
L    50.912491     1.412491
L    56.274994     1.274994
L   201.274994     1.274994
L   206.637497     1.412491
L   211.724991     1.825005
L   216.537506     2.512489
L   221.074997     3.474983
L   225.337494     4.712494
L   229.324982     6.224991
L   233.037491     8.012505
L   236.475006    10.074989
L   239.637482    12.412498
L   242.524994    15.024994
L   245.137497    17.912498
L   247.474991    21.075005
L   249.537491    24.512497
L   251.324997    28.224991
L   252.837494    32.212494
L   254.074997    36.474991
L   255.037491    41.012497
L   255.725006    45.824997
L   256.137512    50.912491
L   256.274994    56.274994
L   256.274994   201.274994
L   256.137512   206.637497
L   255.724976   211.724991
L   255.037506   216.537506
L   254.075012   221.074997
L   252.837494   225.337494
L   251.324997   229.324982
L   249.537476   233.037491
L   247.475006   236.475006
L   245.137482   239.637482
L   242.524994   242.524994
L   239.637482   245.137497
L   236.474976   247.474991
L   233.037491   249.537491
L   229.324997   251.324997
L   225.337494   252.837494
L   221.074997   254.074997
L   216.537491   255.037491
L   211.724991   255.725006
L   206.637497   256.137512
L   201.274994   256.274994 z
"
/>
</svg>
