<?xml version="1.0" encoding="utf-8" standalone="no" ?>
<svg
xmlns="http://www.w3.org/2000/svg"
x=".000000"
y=".000000"
width="255.000000"
height="255.000000"
>
<title>Fortran Logo</title>
<desc>Generated by Fortran Logo Generator</desc>
<pattern
id="diagonalFill"
width="1.000000"
height="1.000000"
patternUnits="userSpaceOnUse"
patternTransform="rotate(45)"
>
<rect
x=".000000"
y=".000000"
width="1.000000"
height="1.000000"
fill="#A3BE8C"
/>
</pattern>
<path
fill="url(#diagonalFill)"
stroke="#A3BE8C"
stroke-width="1.000000"
d="
M   108.260002   136.384995
L   108.336800   135.693802
L   108.567200   135.156189
L   108.951202   134.772202
L   109.488800   134.541794
L   110.180000   134.464996
L   121.025002   134.464996
L   123.279686   134.542114
L   125.418747   134.773438
L   127.442184   135.159012
L   129.350006   135.698792
L   131.142181   136.392807
L   132.818741   137.241043
L   134.379684   138.243500
L   135.824997   139.400192
L   137.154678   140.711105
L   138.368744   142.176239
L   139.467178   143.795609
L   140.449997   145.569199
L   141.317184   147.497009
L   142.068741   149.579041
L   142.704681   151.815308
L   143.224991   154.205795
L   143.629684   156.750504
L   143.918747   159.449448
L   144.092178   162.302612
L   144.149994   165.309998
L   144.149994   173.340012
L   144.226791   174.031219
L   144.457199   174.568817
L   144.841187   174.952805
L   145.378799   175.183212
L   146.069992   175.260010
L   165.354996   175.260010
L   166.046204   175.183212
L   166.583801   174.952820
L   166.967804   174.568817
L   167.198196   174.031219
L   167.274994   173.340012
L   167.274994    77.281990
L   167.198196    76.590790
L   166.967804    76.053192
L   166.583801    75.669189
L   166.046204    75.438782
L   165.354996    75.361992
L   146.069992    75.361992
L   145.378799    75.438789
L   144.841187    75.669197
L   144.457199    76.053192
L   144.226791    76.590790
L   144.149994    77.281990
L   144.149994    79.740005
L   144.092178    82.747391
L   143.918747    85.600555
L   143.629684    88.299500
L   143.224991    90.844208
L   142.704681    93.234695
L   142.068741    95.470955
L   141.317184    97.552994
L   140.449997    99.480804
L   139.467178   101.254395
L   138.368744   102.873756
L   137.154678   104.338898
L   135.824997   105.649803
L   134.379684   106.806496
L   132.818741   107.808960
L   131.142181   108.657196
L   129.350006   109.351204
L   127.442184   109.890991
L   125.418747   110.276558
L   123.279686   110.507896
L   121.025002   110.585007
L   110.180000   110.585007
L   109.488800   110.508209
L   108.951202   110.277809
L   108.567200   109.893806
L   108.336800   109.356201
L   108.260002   108.665009
L   108.260002    52.804993
L   108.336800    52.113785
L   108.567200    51.576195
L   108.951202    51.192192
L   109.488800    50.961784
L   110.180000    50.884995
L   163.574997    50.884995
L   166.821747    51.029442
L   169.901993    51.462791
L   172.815750    52.185043
L   175.562988    53.196190
L   178.143753    54.496246
L   180.557999    56.085197
L   182.805756    57.963043
L   184.886993    60.129791
L   186.801758    62.585449
L   188.550003    65.330002
L   190.131744    68.363449
L   191.546997    71.685799
L   192.795746    75.297058
L   193.877991    79.197205
L   194.793747    83.386253
L   195.542999    87.864197
L   196.125748    92.631050
L   196.541992    97.686806
L   196.791748   103.031456
L   196.875000   108.665009
L   196.875000   108.665009
L   196.951797   109.356201
L   197.182190   109.893806
L   197.566193   110.277802
L   198.103806   110.508209
L   198.794998   110.585007
L   218.080002   110.585007
L   218.771210   110.508209
L   219.308807   110.277809
L   219.692810   109.893806
L   219.923203   109.356201
L   220.000000   108.665009
L   220.000000    29.919998
L   219.923203    29.228790
L   219.692795    28.691200
L   219.308807    28.307198
L   218.771210    28.076797
L   218.080002    28.000000
L    64.599998    28.000000
L    36.919998    28.000000
L    36.228790    28.076797
L    35.691193    28.307198
L    35.307205    28.691200
L    35.076797    29.228790
L    35.000000    29.919998
L    35.000000    48.965004
L    35.076797    49.656197
L    35.307190    50.193802
L    35.691200    50.577805
L    36.228790    50.808197
L    36.919998    50.885002
L    53.500000    50.885002
L    54.582253    50.909874
L    55.609009    50.984505
L    56.580246    51.108871
L    57.495995    51.282990
L    58.356247    51.506874
L    59.160995    51.780502
L    59.910248    52.103882
L    60.603996    52.477005
L    61.242249    52.899879
L    61.824997    53.372498
L    62.352249    53.894882
L    62.824005    54.467003
L    63.240250    55.088882
L    63.600998    55.760506
L    63.906246    56.481880
L    64.155998    57.253006
L    64.350250    58.073883
L    64.488998    58.944504
L    64.572250    59.864883
L    64.599998    60.835007
L    64.599998   194.164993
L    64.572250   195.135117
L    64.488998   196.055496
L    64.350250   196.926117
L    64.155998   197.746994
L    63.906246   198.518127
L    63.600998   199.239502
L    63.240250   199.911118
L    62.824005   200.532990
L    62.352249   201.105118
L    61.824997   201.627502
L    61.242249   202.100128
L    60.603996   202.522995
L    59.910248   202.896118
L    59.160995   203.219498
L    58.356247   203.493134
L    57.495995   203.717010
L    56.580246   203.891129
L    55.609009   204.015503
L    54.582253   204.090118
L    53.500000   204.114990
L    36.919998   204.114990
L    36.228790   204.191803
L    35.691200   204.422195
L    35.307190   204.806198
L    35.076797   205.343811
L    35.000000   206.035004
L    35.000000   225.080002
L    35.076797   225.771210
L    35.307205   226.308807
L    35.691193   226.692810
L    36.228790   226.923203
L    36.919998   227.000000
L    64.599998   227.000000
L   108.260002   227.000000
L   139.123993   227.000000
L   139.815216   226.923203
L   140.352814   226.692810
L   140.736786   226.308807
L   140.967194   225.771210
L   141.044006   225.080002
L   141.044006   206.035004
L   140.967194   205.343811
L   140.736816   204.806198
L   140.352798   204.422195
L   139.815216   204.191803
L   139.123993   204.114990
L   119.360001   204.114990
L   118.277748   204.090118
L   117.250992   204.015503
L   116.279755   203.891129
L   115.364006   203.717010
L   114.503754   203.493134
L   113.699005   203.219498
L   112.949753   202.896118
L   112.256004   202.522995
L   111.617752   202.100128
L   111.035004   201.627502
L   110.507751   201.105118
L   110.035995   200.532990
L   109.619751   199.911118
L   109.259003   199.239502
L   108.953751   198.518127
L   108.704002   197.746994
L   108.509750   196.926117
L   108.371002   196.055496
L   108.287750   195.135117
L   108.260002   194.164993 z
"
/>
</svg>
