<?xml version="1.0" encoding="utf-8" standalone="no" ?>
<svg
xmlns="http://www.w3.org/2000/svg"
x=".000000"
y=".000000"
width="280.500000"
height="280.500000"
>
<title>Fortran Logo</title>
<desc>Generated by Fortran Logo Generator</desc>
<pattern
id="diagonalFill"
width="9.000000"
height="1.000000"
patternUnits="userSpaceOnUse"
patternTransform="rotate(45)"
>
<rect
x=".000000"
y=".000000"
width=".500000"
height=".500000"
fill="#6d5192"
/>
</pattern>
<line
stroke="#6d5192"
x1="47.750000"
y1="267.750000"
x2="47.750000"
y2="12.750000"
stroke-dasharray="2 2"
stroke-width=".500000"
/>
<line
stroke="#6d5192"
x1="12.750000"
y1="239.750000"
x2="267.750000"
y2="239.750000"
stroke-dasharray="2 2"
stroke-width=".500000"
/>
<line
stroke="#6d5192"
x1="66.250000"
y1="267.750000"
x2="66.250000"
y2="12.750000"
stroke-dasharray="2 2"
stroke-width=".500000"
/>
<line
stroke="#6d5192"
x1="12.750000"
y1="216.864990"
x2="267.750000"
y2="216.864990"
stroke-dasharray="2 2"
stroke-width=".500000"
/>
<line
stroke="#6d5192"
x1="77.349998"
y1="267.750000"
x2="77.349998"
y2="12.750000"
stroke-dasharray="2 2"
stroke-width=".500000"
/>
<line
stroke="#6d5192"
x1="12.750000"
y1="206.914993"
x2="267.750000"
y2="206.914993"
stroke-dasharray="2 2"
stroke-width=".500000"
/>
<line
stroke="#6d5192"
x1="232.750000"
y1="267.750000"
x2="232.750000"
y2="12.750000"
stroke-dasharray="2 2"
stroke-width=".500000"
/>
<line
stroke="#6d5192"
x1="12.750000"
y1="40.750000"
x2="267.750000"
y2="40.750000"
stroke-dasharray="2 2"
stroke-width=".500000"
/>
<line
stroke="#6d5192"
x1="209.625000"
y1="267.750000"
x2="209.625000"
y2="12.750000"
stroke-dasharray="2 2"
stroke-width=".500000"
/>
<line
stroke="#6d5192"
x1="12.750000"
y1="123.335007"
x2="267.750000"
y2="123.335007"
stroke-dasharray="2 2"
stroke-width=".500000"
/>
<line
stroke="#6d5192"
x1="176.324997"
y1="267.750000"
x2="176.324997"
y2="12.750000"
stroke-dasharray="2 2"
stroke-width=".500000"
/>
<line
stroke="#6d5192"
x1="12.750000"
y1="63.634995"
x2="267.750000"
y2="63.634995"
stroke-dasharray="2 2"
stroke-width=".500000"
/>
<line
stroke="#6d5192"
x1="133.774994"
y1="267.750000"
x2="133.774994"
y2="12.750000"
stroke-dasharray="2 2"
stroke-width=".500000"
/>
<line
stroke="#6d5192"
x1="12.750000"
y1="123.335007"
x2="267.750000"
y2="123.335007"
stroke-dasharray="2 2"
stroke-width=".500000"
/>
<line
stroke="#6d5192"
x1="156.899994"
y1="267.750000"
x2="156.899994"
y2="12.750000"
stroke-dasharray="2 2"
stroke-width=".500000"
/>
<line
stroke="#6d5192"
x1="12.750000"
y1="92.490005"
x2="267.750000"
y2="92.490005"
stroke-dasharray="2 2"
stroke-width=".500000"
/>
<line
stroke="#6d5192"
x1="180.024994"
y1="267.750000"
x2="180.024994"
y2="12.750000"
stroke-dasharray="2 2"
stroke-width=".500000"
/>
<line
stroke="#6d5192"
x1="12.750000"
y1="82.539993"
x2="267.750000"
y2="82.539993"
stroke-dasharray="2 2"
stroke-width=".500000"
/>
<line
stroke="#6d5192"
x1="99.180000"
y1="267.750000"
x2="99.180000"
y2="12.750000"
stroke-dasharray="2 2"
stroke-width=".500000"
/>
<line
stroke="#6d5192"
x1="12.750000"
y1="135.274994"
x2="267.750000"
y2="135.274994"
stroke-dasharray="2 2"
stroke-width=".500000"
/>
<line
stroke="#6d5192"
x1="12.750000"
y1="267.750000"
x2="12.750000"
y2="12.750000"
stroke-dasharray="2 2"
stroke-width=".500000"
/>
<line
stroke="#6d5192"
x1="12.750000"
y1="12.750000"
x2="267.750000"
y2="12.750000"
stroke-dasharray="2 2"
stroke-width=".500000"
/>
<line
stroke="#6d5192"
x1="267.750000"
y1="12.750000"
x2="267.750000"
y2="267.750000"
stroke-dasharray="2 2"
stroke-width=".500000"
/>
<line
stroke="#6d5192"
x1="267.750000"
y1="267.750000"
x2="12.750000"
y2="267.750000"
stroke-dasharray="2 2"
stroke-width=".500000"
/>
<path
fill="url(#diagonalFill)"
stroke="#6d5192"
stroke-width="1.000000"
d="
M   121.010002   149.134995
L   121.086800   148.443802
L   121.317200   147.906189
L   121.701202   147.522202
L   122.238800   147.291794
L   122.930000   147.214996
L   133.774994   147.214996
L   136.029694   147.292114
L   138.168747   147.523438
L   140.192184   147.909012
L   142.100006   148.448792
L   143.892181   149.142807
L   145.568741   149.991043
L   147.129684   150.993500
L   148.574997   152.150192
L   149.904678   153.461105
L   151.118744   154.926239
L   152.217178   156.545609
L   153.199997   158.319199
L   154.067184   160.247009
L   154.818741   162.329041
L   155.454681   164.565308
L   155.974991   166.955795
L   156.379684   169.500504
L   156.668747   172.199448
L   156.842178   175.052612
L   156.899994   178.059998
L   156.899994   186.090012
L   156.976791   186.781219
L   157.207199   187.318817
L   157.591187   187.702805
L   158.128799   187.933212
L   158.819992   188.010010
L   178.104996   188.010010
L   178.796204   187.933212
L   179.333801   187.702820
L   179.717804   187.318817
L   179.948196   186.781219
L   180.024994   186.090012
L   180.024994    90.031990
L   179.948196    89.340790
L   179.717804    88.803192
L   179.333801    88.419189
L   178.796204    88.188782
L   178.104996    88.111992
L   158.819992    88.111992
L   158.128799    88.188789
L   157.591187    88.419197
L   157.207199    88.803192
L   156.976791    89.340790
L   156.899994    90.031990
L   156.899994    92.490005
L   156.842178    95.497391
L   156.668747    98.350555
L   156.379684   101.049500
L   155.974991   103.594208
L   155.454681   105.984695
L   154.818741   108.220955
L   154.067184   110.302994
L   153.199997   112.230804
L   152.217178   114.004395
L   151.118744   115.623756
L   149.904678   117.088898
L   148.574997   118.399803
L   147.129684   119.556496
L   145.568741   120.558960
L   143.892181   121.407196
L   142.100006   122.101204
L   140.192184   122.640991
L   138.168747   123.026558
L   136.029694   123.257896
L   133.774994   123.335007
L   122.930000   123.335007
L   122.238800   123.258209
L   121.701202   123.027809
L   121.317200   122.643806
L   121.086800   122.106201
L   121.010002   121.415009
L   121.010002    65.554993
L   121.086800    64.863785
L   121.317200    64.326195
L   121.701202    63.942192
L   122.238800    63.711784
L   122.930000    63.634995
L   176.324997    63.634995
L   179.571747    63.779442
L   182.651993    64.212791
L   185.565750    64.935043
L   188.312988    65.946190
L   190.893753    67.246246
L   193.307999    68.835197
L   195.555756    70.713043
L   197.636993    72.879791
L   199.551758    75.335449
L   201.300003    78.080002
L   202.881744    81.113449
L   204.296997    84.435799
L   205.545746    88.047058
L   206.627991    91.947205
L   207.543747    96.136253
L   208.292999   100.614197
L   208.875748   105.381050
L   209.291992   110.436806
L   209.541748   115.781456
L   209.625000   121.415009
L   209.625000   121.415009
L   209.701797   122.106201
L   209.932190   122.643806
L   210.316193   123.027802
L   210.853806   123.258209
L   211.544998   123.335007
L   230.830002   123.335007
L   231.521210   123.258209
L   232.058807   123.027809
L   232.442810   122.643806
L   232.673203   122.106201
L   232.750000   121.415009
L   232.750000    42.669998
L   232.673203    41.978790
L   232.442795    41.441200
L   232.058807    41.057198
L   231.521210    40.826797
L   230.830002    40.750000
L    77.349998    40.750000
L    49.669998    40.750000
L    48.978790    40.826797
L    48.441193    41.057198
L    48.057205    41.441200
L    47.826797    41.978790
L    47.750000    42.669998
L    47.750000    61.715004
L    47.826797    62.406197
L    48.057190    62.943802
L    48.441200    63.327805
L    48.978790    63.558197
L    49.669998    63.635002
L    66.250000    63.635002
L    67.332253    63.659874
L    68.359009    63.734505
L    69.330246    63.858871
L    70.245995    64.032990
L    71.106247    64.256874
L    71.910995    64.530502
L    72.660248    64.853882
L    73.353996    65.227005
L    73.992249    65.649879
L    74.574997    66.122498
L    75.102249    66.644882
L    75.574005    67.217003
L    75.990250    67.838882
L    76.350998    68.510506
L    76.656250    69.231880
L    76.905998    70.003006
L    77.100250    70.823883
L    77.238998    71.694504
L    77.322250    72.614883
L    77.349998    73.585007
L    77.349998   206.914993
L    77.322250   207.885117
L    77.238998   208.805496
L    77.100250   209.676117
L    76.905998   210.496994
L    76.656250   211.268127
L    76.350998   211.989502
L    75.990250   212.661118
L    75.574005   213.282990
L    75.102249   213.855118
L    74.574997   214.377502
L    73.992249   214.850128
L    73.353996   215.272995
L    72.660248   215.646118
L    71.910995   215.969498
L    71.106247   216.243134
L    70.245995   216.467010
L    69.330246   216.641129
L    68.359009   216.765503
L    67.332253   216.840118
L    66.250000   216.864990
L    49.669998   216.864990
L    48.978790   216.941803
L    48.441200   217.172195
L    48.057190   217.556198
L    47.826797   218.093811
L    47.750000   218.785004
L    47.750000   237.830002
L    47.826797   238.521210
L    48.057205   239.058807
L    48.441193   239.442810
L    48.978790   239.673203
L    49.669998   239.750000
L    77.349998   239.750000
L   121.010002   239.750000
L   151.873993   239.750000
L   152.565216   239.673203
L   153.102814   239.442810
L   153.486786   239.058807
L   153.717194   238.521210
L   153.794006   237.830002
L   153.794006   218.785004
L   153.717194   218.093811
L   153.486816   217.556198
L   153.102798   217.172195
L   152.565216   216.941803
L   151.873993   216.864990
L   132.110001   216.864990
L   131.027740   216.840118
L   130.000992   216.765503
L   129.029755   216.641129
L   128.114014   216.467010
L   127.253754   216.243134
L   126.449005   215.969498
L   125.699753   215.646118
L   125.006004   215.272995
L   124.367752   214.850128
L   123.785004   214.377502
L   123.257751   213.855118
L   122.785995   213.282990
L   122.369751   212.661118
L   122.009003   211.989502
L   121.703751   211.268127
L   121.454002   210.496994
L   121.259750   209.676117
L   121.121002   208.805496
L   121.037750   207.885117
L   121.010002   206.914993 z
M    67.750000   267.750000
L    62.387497   267.612488
L    57.300003   267.199982
L    52.487495   266.512512
L    47.949997   265.550018
L    43.687500   264.312500
L    39.700005   262.799988
L    35.987503   261.012482
L    32.549995   258.950012
L    29.387512   256.612488
L    26.500000   254.000000
L    23.887497   251.112488
L    21.550003   247.949982
L    19.487503   244.512497
L    17.699997   240.800003
L    16.187500   236.812500
L    14.949997   232.550003
L    13.987503   228.012497
L    13.299995   223.199997
L    12.887497   218.112503
L    12.750000   212.750000
L    12.750000    67.750000
L    12.887497    62.387497
L    13.300011    57.300003
L    13.987495    52.487495
L    14.949989    47.949997
L    16.187500    43.687500
L    17.699997    39.700005
L    19.487511    35.987503
L    21.549995    32.549995
L    23.887505    29.387512
L    26.500000    26.500000
L    29.387505    23.887497
L    32.550011    21.550003
L    35.987503    19.487503
L    39.699997    17.699997
L    43.687500    16.187500
L    47.949997    14.949997
L    52.487503    13.987503
L    57.300003    13.299995
L    62.387497    12.887497
L    67.750000    12.750000
L   212.750000    12.750000
L   218.112503    12.887497
L   223.199997    13.300011
L   228.012512    13.987495
L   232.550003    14.949989
L   236.812500    16.187500
L   240.799988    17.699997
L   244.512497    19.487511
L   247.950012    21.549995
L   251.112488    23.887505
L   254.000000    26.500000
L   256.612488    29.387505
L   258.950012    32.550011
L   261.012512    35.987503
L   262.799988    39.699997
L   264.312500    43.687500
L   265.549988    47.949997
L   266.512512    52.487503
L   267.200012    57.300003
L   267.612488    62.387497
L   267.750000    67.750000
L   267.750000   212.750000
L   267.612488   218.112503
L   267.199982   223.199997
L   266.512512   228.012512
L   265.550018   232.550003
L   264.312500   236.812500
L   262.799988   240.799988
L   261.012482   244.512497
L   258.950012   247.950012
L   256.612488   251.112488
L   254.000000   254.000000
L   251.112488   256.612488
L   247.949982   258.950012
L   244.512497   261.012512
L   240.800003   262.799988
L   236.812500   264.312500
L   232.550003   265.549988
L   228.012497   266.512512
L   223.199997   267.200012
L   218.112503   267.612488
L   212.750000   267.750000 z
"
/>
<circle
fill="none"
stroke="#6d5192"
cx="77.349998"
cy="239.750000"
r="1.500000"
/>
<circle
fill="none"
stroke="#6d5192"
cx="47.750000"
cy="239.750000"
r="1.500000"
/>
<circle
fill="none"
stroke="#6d5192"
cx="47.750000"
cy="216.864990"
r="1.500000"
/>
<circle
fill="none"
stroke="#6d5192"
cx="66.250000"
cy="216.864990"
r="1.500000"
/>
<circle
fill="none"
stroke="#6d5192"
cx="77.349998"
cy="216.864990"
r="1.500000"
/>
<circle
fill="none"
stroke="#6d5192"
cx="77.349998"
cy="206.914993"
r="1.500000"
/>
<circle
fill="none"
stroke="#6d5192"
cx="232.750000"
cy="40.750000"
r="1.500000"
/>
<circle
fill="none"
stroke="#6d5192"
cx="232.750000"
cy="123.335007"
r="1.500000"
/>
<circle
fill="none"
stroke="#6d5192"
cx="209.625000"
cy="123.335007"
r="1.500000"
/>
<circle
fill="none"
stroke="#6d5192"
cx="209.625000"
cy="63.634995"
r="1.500000"
/>
<circle
fill="none"
stroke="#6d5192"
cx="176.324997"
cy="63.634995"
r="1.500000"
/>
<circle
fill="none"
stroke="#6d5192"
cx="121.010002"
cy="63.634995"
r="1.500000"
/>
<circle
fill="none"
stroke="#6d5192"
cx="121.010002"
cy="123.335007"
r="1.500000"
/>
<circle
fill="none"
stroke="#6d5192"
cx="133.774994"
cy="123.335007"
r="1.500000"
/>
<circle
fill="none"
stroke="#6d5192"
cx="156.899994"
cy="123.335007"
r="1.500000"
/>
<circle
fill="none"
stroke="#6d5192"
cx="156.899994"
cy="92.490005"
r="1.500000"
/>
<circle
fill="none"
stroke="#6d5192"
cx="156.899994"
cy="82.539993"
r="1.500000"
/>
<circle
fill="none"
stroke="#6d5192"
cx="180.024994"
cy="82.539993"
r="1.500000"
/>
<circle
fill="none"
stroke="#6d5192"
cx="67.750000"
cy="267.750000"
r="1.500000"
/>
<circle
fill="none"
stroke="#6d5192"
cx="12.750000"
cy="267.750000"
r="1.500000"
/>
<circle
fill="none"
stroke="#6d5192"
cx="12.750000"
cy="212.750000"
r="1.500000"
/>
<circle
fill="none"
stroke="#6d5192"
cx="12.750000"
cy="67.750000"
r="1.500000"
/>
<circle
fill="none"
stroke="#6d5192"
cx="12.750000"
cy="12.750000"
r="1.500000"
/>
<circle
fill="none"
stroke="#6d5192"
cx="67.750000"
cy="12.750000"
r="1.500000"
/>
<circle
fill="none"
stroke="#6d5192"
cx="212.750000"
cy="12.750000"
r="1.500000"
/>
<circle
fill="none"
stroke="#6d5192"
cx="267.750000"
cy="12.750000"
r="1.500000"
/>
<circle
fill="none"
stroke="#6d5192"
cx="267.750000"
cy="67.750000"
r="1.500000"
/>
<circle
fill="none"
stroke="#6d5192"
cx="267.750000"
cy="212.750000"
r="1.500000"
/>
<circle
fill="none"
stroke="#6d5192"
cx="267.750000"
cy="267.750000"
r="1.500000"
/>
<circle
fill="none"
stroke="#6d5192"
cx="212.750000"
cy="267.750000"
r="1.500000"
/>
<circle
fill="none"
stroke="#6d5192"
cx="99.180000"
cy="135.274994"
r="1.500000"
/>
<circle
fill="none"
stroke="#6d5192"
cx="140.250000"
cy="140.250000"
r="1.500000"
/>
<circle
fill="none"
stroke="#6d5192"
cx="130.724609"
cy="127.669418"
r="1.500000"
/>
</svg>
