<?xml version="1.0" encoding="utf-8" standalone="no" ?>
<svg
xmlns="http://www.w3.org/2000/svg"
x=".000000"
y=".000000"
width="267.750000"
height="267.750000"
>
<title>Fortran Logo</title>
<desc>Generated by Fortran Logo Generator</desc>
<pattern
id="diagonalFill"
width="1.000000"
height="1.000000"
patternUnits="userSpaceOnUse"
patternTransform="rotate(45)"
>
<rect
x=".000000"
y=".000000"
width="4.000000"
height="1.000000"
fill="#6d5192"
/>
</pattern>
<path
fill="url(#diagonalFill)"
stroke="#6d5192"
stroke-width="1.000000"
d="
M   114.635002   142.759995
L   114.711800   142.068802
L   114.942200   141.531189
L   115.326202   141.147202
L   115.863800   140.916794
L   116.555000   140.839996
L   127.400002   140.839996
L   129.654694   140.917114
L   131.793747   141.148438
L   133.817184   141.534012
L   135.725006   142.073792
L   137.517181   142.767807
L   139.193741   143.616043
L   140.754684   144.618500
L   142.199997   145.775192
L   143.529678   147.086105
L   144.743744   148.551239
L   145.842178   150.170609
L   146.824997   151.944199
L   147.692184   153.872009
L   148.443741   155.954041
L   149.079681   158.190308
L   149.599991   160.580795
L   150.004684   163.125504
L   150.293747   165.824448
L   150.467178   168.677612
L   150.524994   171.684998
L   150.524994   179.715012
L   150.601791   180.406219
L   150.832199   180.943817
L   151.216187   181.327805
L   151.753799   181.558212
L   152.444992   181.635010
L   171.729996   181.635010
L   172.421204   181.558212
L   172.958801   181.327820
L   173.342804   180.943817
L   173.573196   180.406219
L   173.649994   179.715012
L   173.649994    83.656990
L   173.573196    82.965790
L   173.342804    82.428192
L   172.958801    82.044189
L   172.421204    81.813782
L   171.729996    81.736992
L   152.444992    81.736992
L   151.753799    81.813789
L   151.216187    82.044197
L   150.832199    82.428192
L   150.601791    82.965790
L   150.524994    83.656990
L   150.524994    86.115005
L   150.467178    89.122391
L   150.293747    91.975555
L   150.004684    94.674500
L   149.599991    97.219208
L   149.079681    99.609695
L   148.443741   101.845955
L   147.692184   103.927994
L   146.824997   105.855804
L   145.842178   107.629395
L   144.743744   109.248756
L   143.529678   110.713898
L   142.199997   112.024803
L   140.754684   113.181496
L   139.193741   114.183960
L   137.517181   115.032196
L   135.725006   115.726204
L   133.817184   116.265991
L   131.793747   116.651558
L   129.654694   116.882896
L   127.400002   116.960007
L   116.555000   116.960007
L   115.863800   116.883209
L   115.326202   116.652809
L   114.942200   116.268806
L   114.711800   115.731201
L   114.635002   115.040009
L   114.635002    59.179993
L   114.711800    58.488785
L   114.942200    57.951195
L   115.326202    57.567192
L   115.863800    57.336784
L   116.555000    57.259995
L   169.949997    57.259995
L   173.196747    57.404442
L   176.276993    57.837791
L   179.190750    58.560043
L   181.937988    59.571190
L   184.518753    60.871246
L   186.932999    62.460197
L   189.180756    64.338043
L   191.261993    66.504791
L   193.176758    68.960449
L   194.925003    71.705002
L   196.506744    74.738449
L   197.921997    78.060799
L   199.170746    81.672058
L   200.252991    85.572205
L   201.168747    89.761253
L   201.917999    94.239197
L   202.500748    99.006050
L   202.916992   104.061806
L   203.166748   109.406456
L   203.250000   115.040009
L   203.250000   115.040009
L   203.326797   115.731201
L   203.557190   116.268806
L   203.941193   116.652802
L   204.478806   116.883209
L   205.169998   116.960007
L   224.455002   116.960007
L   225.146210   116.883209
L   225.683807   116.652809
L   226.067810   116.268806
L   226.298203   115.731201
L   226.375000   115.040009
L   226.375000    36.294998
L   226.298203    35.603790
L   226.067795    35.066200
L   225.683807    34.682198
L   225.146210    34.451797
L   224.455002    34.375000
L    70.974998    34.375000
L    43.294998    34.375000
L    42.603790    34.451797
L    42.066193    34.682198
L    41.682205    35.066200
L    41.451797    35.603790
L    41.375000    36.294998
L    41.375000    55.340004
L    41.451797    56.031197
L    41.682190    56.568802
L    42.066200    56.952805
L    42.603790    57.183197
L    43.294998    57.260002
L    59.875000    57.260002
L    60.957253    57.284874
L    61.984009    57.359505
L    62.955246    57.483871
L    63.870995    57.657990
L    64.731247    57.881874
L    65.535995    58.155502
L    66.285248    58.478882
L    66.978996    58.852005
L    67.617249    59.274879
L    68.199997    59.747498
L    68.727249    60.269882
L    69.199005    60.842003
L    69.615250    61.463882
L    69.975998    62.135506
L    70.281250    62.856880
L    70.530998    63.628006
L    70.725250    64.448883
L    70.863998    65.319504
L    70.947250    66.239883
L    70.974998    67.210007
L    70.974998   200.539993
L    70.947250   201.510117
L    70.863998   202.430496
L    70.725250   203.301117
L    70.530998   204.121994
L    70.281250   204.893127
L    69.975998   205.614502
L    69.615250   206.286118
L    69.199005   206.907990
L    68.727249   207.480118
L    68.199997   208.002502
L    67.617249   208.475128
L    66.978996   208.897995
L    66.285248   209.271118
L    65.535995   209.594498
L    64.731247   209.868134
L    63.870995   210.092010
L    62.955246   210.266129
L    61.984009   210.390503
L    60.957253   210.465118
L    59.875000   210.489990
L    43.294998   210.489990
L    42.603790   210.566803
L    42.066200   210.797195
L    41.682190   211.181198
L    41.451797   211.718811
L    41.375000   212.410004
L    41.375000   231.455002
L    41.451797   232.146210
L    41.682205   232.683807
L    42.066193   233.067810
L    42.603790   233.298203
L    43.294998   233.375000
L    70.974998   233.375000
L   114.635002   233.375000
L   145.498993   233.375000
L   146.190216   233.298203
L   146.727814   233.067810
L   147.111786   232.683807
L   147.342194   232.146210
L   147.419006   231.455002
L   147.419006   212.410004
L   147.342194   211.718811
L   147.111816   211.181198
L   146.727798   210.797195
L   146.190216   210.566803
L   145.498993   210.489990
L   125.735001   210.489990
L   124.652748   210.465118
L   123.625992   210.390503
L   122.654755   210.266129
L   121.739006   210.092010
L   120.878754   209.868134
L   120.074005   209.594498
L   119.324753   209.271118
L   118.631004   208.897995
L   117.992752   208.475128
L   117.410004   208.002502
L   116.882751   207.480118
L   116.410995   206.907990
L   115.994751   206.286118
L   115.634003   205.614502
L   115.328751   204.893127
L   115.079002   204.121994
L   114.884750   203.301117
L   114.746002   202.430496
L   114.662750   201.510117
L   114.635002   200.539993 z
"
/>
</svg>
