<?xml version="1.0" encoding="utf-8" standalone="no" ?>
<svg
xmlns="http://www.w3.org/2000/svg"
width="550.000000"
height="594.000000"
>
<title>Fortran Logo</title>
<desc>Generated by Fortran Logo Generator</desc>
<pattern
id="diagonalFill"
width="1.000000"
height="1.000000"
patternUnits="userSpaceOnUse"
patternTransform="rotate(47)"
>
<rect
x=".000000"
y=".000000"
width="1"
height="1"
fill="#6d5192"
/>
</pattern>
<path
fill="url(#diagonalFill)"
stroke="#6d5192"
stroke-width="1.000000"
d="
M   230.000000   321.605988
L   230.046814   320.716797
L   230.187195   319.921204
L   230.421204   319.219177
L   230.748795   318.610809
L   231.169998   318.096008
L   231.684799   317.674805
L   232.293198   317.347198
L   232.995209   317.113190
L   233.790802   316.972778
L   234.679993   316.925995
L   248.000000   316.925995
L   249.370117   316.933533
L   250.726456   316.956116
L   252.069031   316.993805
L   253.397842   317.046509
L   254.712875   317.114319
L   256.014130   317.197174
L   257.301636   317.295105
L   258.575348   317.408112
L   259.835327   317.536163
L   261.081512   317.679291
L   262.313904   317.837494
L   263.532562   318.010742
L   264.737427   318.199066
L   265.928528   318.402466
L   267.105865   318.620911
L   268.269440   318.854431
L   269.419250   319.103027
L   270.555267   319.366699
L   271.677521   319.645416
L   272.786011   319.939209
L   273.880707   320.248047
L   274.961670   320.571960
L   276.028839   320.910950
L   277.082245   321.265015
L   278.121887   321.634125
L   279.147736   322.018311
L   280.159851   322.417542
L   281.158173   322.831879
L   282.142731   323.261261
L   283.113495   323.705688
L   284.070526   324.165222
L   285.013763   324.639801
L   285.943237   325.129425
L   286.858948   325.634155
L   287.760864   326.153931
L   288.649048   326.688751
L   289.523438   327.238678
L   290.384064   327.803650
L   291.230927   328.383698
L   292.063995   328.978790
L   292.883331   329.588989
L   293.688873   330.214203
L   294.480652   330.854523
L   295.258636   331.509888
L   296.022888   332.180328
L   296.773346   332.865814
L   297.510040   333.566406
L   298.232971   334.282043
L   298.942108   335.012726
L   299.637512   335.758484
L   300.319122   336.519318
L   300.986969   337.295227
L   301.641052   338.086182
L   302.281342   338.892212
L   302.907867   339.713318
L   303.520630   340.549500
L   304.119629   341.400726
L   304.704865   342.267029
L   305.276306   343.148376
L   305.834015   344.044800
L   306.377930   344.956299
L   306.908081   345.882874
L   307.424438   346.824463
L   307.927032   347.781189
L   308.415894   348.752930
L   308.890930   349.739746
L   309.352234   350.741638
L   309.799774   351.758606
L   310.233521   352.790619
L   310.653503   353.837708
L   311.059723   354.899841
L   311.452148   355.977081
L   311.830841   357.069336
L   312.195740   358.176697
L   312.546875   359.299133
L   312.884247   360.436615
L   313.207825   361.589172
L   313.517670   362.756775
L   313.813721   363.939453
L   314.096008   365.137207
L   314.364532   366.350006
L   314.619263   367.577911
L   314.860229   368.820831
L   315.087463   370.078857
L   315.300873   371.351929
L   315.500549   372.640076
L   315.686432   373.943298
L   315.858582   375.261566
L   316.016907   376.594910
L   316.161499   377.943298
L   316.292328   379.306763
L   316.409363   380.685303
L   316.512634   382.078918
L   316.602142   383.487610
L   316.677887   384.911316
L   316.739838   386.350159
L   316.788055   387.804016
L   316.822449   389.272949
L   316.843140   390.756958
L   316.850006   392.256012
L   316.850006   412.685913
L   316.896790   413.575104
L   317.037201   414.370728
L   317.271210   415.072693
L   317.598816   415.681122
L   318.020020   416.195923
L   318.534790   416.617096
L   319.143188   416.944702
L   319.845215   417.178711
L   320.640808   417.319092
L   321.529999   417.365906
L   369.320007   417.365906
L   370.209198   417.319092
L   371.004822   417.178711
L   371.706787   416.944702
L   372.315216   416.617126
L   372.830017   416.195923
L   373.251221   415.681091
L   373.578796   415.072693
L   373.812805   414.370728
L   373.953186   413.575134
L   374.000000   412.685913
L   374.000000   172.080078
L   373.953186   171.190887
L   373.812805   170.395294
L   373.578796   169.693298
L   373.251221   169.084900
L   372.830017   168.570084
L   372.315216   168.148880
L   371.706787   167.821289
L   371.004822   167.587265
L   370.209198   167.446899
L   369.320007   167.400085
L   321.529999   167.400085
L   320.640808   167.446884
L   319.845215   167.587280
L   319.143188   167.821289
L   318.534790   168.148895
L   318.020020   168.570084
L   317.598816   169.084869
L   317.271210   169.693298
L   317.037201   170.395264
L   316.896790   171.190887
L   316.850006   172.080078
L   316.850006   180.359985
L   316.843140   181.859055
L   316.822449   183.343048
L   316.788055   184.811981
L   316.739838   186.265854
L   316.677887   187.704666
L   316.602142   189.128387
L   316.512634   190.537079
L   316.409363   191.930679
L   316.292328   193.309219
L   316.161499   194.672699
L   316.016907   196.021103
L   315.858582   197.354431
L   315.686432   198.672714
L   315.500549   199.975922
L   315.300873   201.264069
L   315.087463   202.537140
L   314.860229   203.795166
L   314.619263   205.038086
L   314.364532   206.265991
L   314.096008   207.478790
L   313.813721   208.676544
L   313.517670   209.859222
L   313.207825   211.026840
L   312.884247   212.179382
L   312.546875   213.316864
L   312.195740   214.439285
L   311.830841   215.546646
L   311.452148   216.638916
L   311.059723   217.716141
L   310.653503   218.778290
L   310.233521   219.825378
L   309.799774   220.857391
L   309.352234   221.874359
L   308.890930   222.876251
L   308.415894   223.863068
L   307.927032   224.834824
L   307.424438   225.791519
L   306.908081   226.733139
L   306.377930   227.659698
L   305.834015   228.571198
L   305.276306   229.467621
L   304.704865   230.348984
L   304.119629   231.215271
L   303.520630   232.066513
L   302.907867   232.902679
L   302.281342   233.723770
L   301.641052   234.529800
L   300.986969   235.320770
L   300.319122   236.096664
L   299.637512   236.857498
L   298.942108   237.603271
L   298.232971   238.333969
L   297.510040   239.049606
L   296.773346   239.750183
L   296.022888   240.435669
L   295.258636   241.106110
L   294.480652   241.761475
L   293.688873   242.401779
L   292.883331   243.027023
L   292.063995   243.637207
L   291.230927   244.232300
L   290.384064   244.812347
L   289.523438   245.377319
L   288.649048   245.927246
L   287.760864   246.462082
L   286.858948   246.981857
L   285.943237   247.486572
L   285.013763   247.976196
L   284.070526   248.450790
L   283.113495   248.910294
L   282.142731   249.354736
L   281.158173   249.784119
L   280.159851   250.198441
L   279.147736   250.597687
L   278.121887   250.981873
L   277.082245   251.350998
L   276.028839   251.705048
L   274.961670   252.044037
L   273.880707   252.367950
L   272.786011   252.676804
L   271.677521   252.970581
L   270.555267   253.249313
L   269.419250   253.512970
L   268.269440   253.761551
L   267.105865   253.995071
L   265.928528   254.213531
L   264.737427   254.416931
L   263.532562   254.605255
L   262.313904   254.778519
L   261.081512   254.936707
L   259.835327   255.079834
L   258.575348   255.207886
L   257.301636   255.320892
L   256.014130   255.418823
L   254.712875   255.501678
L   253.397842   255.569473
L   252.069031   255.622208
L   250.726456   255.659866
L   249.370117   255.682465
L   248.000000   255.690002
L   234.679993   255.690002
L   233.790802   255.643204
L   232.995209   255.502808
L   232.293198   255.268799
L   231.684799   254.941208
L   231.169998   254.520004
L   230.748795   254.005203
L   230.421204   253.396805
L   230.187195   252.694794
L   230.046814   251.899200
L   230.000000   251.010010
L   230.000000   114.570007
L   230.046799   113.680801
L   230.187195   112.885193
L   230.421204   112.183212
L   230.748810   111.574829
L   231.169998   111.060013
L   231.684799   110.638809
L   232.293198   110.311218
L   232.995193   110.077209
L   233.790802   109.936829
L   234.679993   109.890015
L   351.500000   109.890015
L   353.291016   109.904129
L   355.064026   109.946472
L   356.819000   110.017029
L   358.556000   110.115799
L   360.274994   110.242813
L   361.976013   110.398041
L   363.658997   110.581512
L   365.324005   110.793182
L   366.971008   111.033081
L   368.600006   111.301208
L   370.210999   111.597565
L   371.804016   111.922150
L   373.378998   112.274933
L   374.936005   112.655960
L   376.475006   113.065216
L   377.996002   113.502686
L   379.499023   113.968384
L   380.984009   114.462311
L   382.450989   114.984451
L   383.900024   115.534821
L   385.330994   116.113419
L   386.743988   116.720230
L   388.139008   117.355255
L   389.515991   118.018524
L   390.875000   118.710022
L   392.216003   119.429718
L   393.539001   120.177673
L   394.843994   120.953827
L   396.131012   121.758209
L   397.399994   122.590820
L   398.651001   123.451645
L   399.884003   124.340698
L   401.098999   125.257980
L   402.296021   126.203491
L   403.475006   127.177216
L   404.635986   128.179169
L   405.778992   129.209351
L   406.903992   130.267746
L   408.010986   131.354370
L   409.100006   132.469208
L   410.171021   133.612274
L   411.223999   134.783600
L   412.259003   135.983109
L   413.276001   137.210846
L   414.274994   138.466812
L   415.256012   139.751007
L   416.218994   141.063416
L   417.164001   142.404053
L   418.091003   143.772934
L   419.000000   145.170013
L   419.890991   146.595337
L   420.763977   148.048874
L   421.618988   149.530640
L   422.455994   151.040604
L   423.274994   152.578812
L   424.075989   154.145248
L   424.859009   155.739899
L   425.624023   157.362778
L   426.371002   159.013870
L   427.100006   160.693222
L   427.811005   162.400772
L   428.503998   164.136536
L   429.179016   165.900543
L   429.835999   167.692764
L   430.474976   169.513214
L   431.096008   171.361893
L   431.699005   173.238785
L   432.283997   175.143890
L   432.851013   177.077240
L   433.400024   179.038803
L   433.931000   181.028595
L   434.444031   183.046600
L   434.938995   185.092850
L   435.416016   187.167313
L   435.875000   189.270020
L   436.316010   191.400909
L   436.738983   193.560059
L   437.143982   195.747421
L   437.531006   197.963013
L   437.899994   200.206818
L   438.251007   202.478851
L   438.583984   204.779099
L   438.898987   207.107574
L   439.196014   209.464264
L   439.475006   211.849197
L   439.736023   214.262360
L   439.979004   216.703735
L   440.203979   219.173340
L   440.411011   221.671158
L   440.599976   224.197205
L   440.770996   226.751465
L   440.924011   229.333984
L   441.058990   231.944702
L   441.176025   234.583633
L   441.275024   237.250809
L   441.356018   239.946198
L   441.419006   242.669800
L   441.463989   245.421646
L   441.491028   248.201721
L   441.500000   251.010010
L   441.500000   251.010010
L   441.546814   251.899200
L   441.687195   252.694794
L   441.921204   253.396805
L   442.248779   254.005203
L   442.669983   254.520004
L   443.184814   254.941193
L   443.793213   255.268799
L   444.495209   255.502808
L   445.290771   255.643204
L   446.179993   255.690002
L   495.320007   255.690002
L   496.209198   255.643204
L   497.004822   255.502808
L   497.706787   255.268799
L   498.315216   254.941208
L   498.830017   254.520004
L   499.251221   254.005203
L   499.578796   253.396805
L   499.812836   252.694794
L   499.953186   251.899200
L   500.000000   251.010010
L   500.000000    58.679993
L   499.953186    57.790802
L   499.812805    56.995193
L   499.578796    56.293182
L   499.251190    55.684814
L   498.830017    55.169998
L   498.315216    54.748779
L   497.706787    54.421188
L   497.004822    54.187195
L   496.209198    54.046829
L   495.320007    54.000000
L   126.500000    54.000000
L    54.679993    54.000000
L    53.790802    54.046829
L    52.995178    54.187195
L    52.293198    54.421188
L    51.684784    54.748779
L    51.169998    55.169998
L    50.748810    55.684814
L    50.421204    56.293182
L    50.187195    56.995193
L    50.046799    57.790802
L    50.000000    58.679993
L    50.000000   105.210007
L    50.046814   106.099228
L    50.187164   106.894775
L    50.421204   107.596802
L    50.748795   108.205185
L    51.169998   108.720001
L    51.684784   109.141205
L    52.293198   109.468796
L    52.995178   109.702789
L    53.790802   109.843201
L    54.679993   109.889999
L   106.250000   109.889999
L   106.652969   109.895340
L   107.051895   109.911362
L   107.446762   109.938110
L   107.837601   109.975555
L   108.224380   110.023651
L   108.607101   110.082458
L   108.985779   110.151947
L   109.360397   110.232147
L   109.730972   110.323013
L   110.097519   110.424606
L   110.459991   110.536865
L   110.818405   110.659821
L   111.172791   110.793472
L   111.523102   110.937820
L   111.869370   111.092850
L   112.211578   111.258575
L   112.549774   111.434982
L   112.883896   111.622101
L   113.213974   111.819916
L   113.539993   112.028397
L   113.861984   112.247574
L   114.179916   112.477478
L   114.493774   112.718033
L   114.803604   112.969299
L   115.109375   113.231262
L   115.411087   113.503891
L   115.708771   113.787231
L   116.002396   114.081253
L   116.291977   114.385986
L   116.577484   114.701385
L   116.858978   115.027512
L   117.136398   115.364288
L   117.409775   115.711792
L   117.679108   116.069992
L   117.944382   116.438843
L   118.205597   116.818420
L   118.462769   117.208679
L   118.715897   117.609634
L   118.964966   118.021271
L   119.210007   118.443604
L   119.450974   118.876617
L   119.687881   119.320328
L   119.920776   119.774750
L   120.149597   120.239868
L   120.374374   120.715652
L   120.595093   121.202133
L   120.811783   121.699326
L   121.024414   122.207199
L   121.232986   122.725769
L   121.437500   123.255005
L   121.637970   123.794952
L   121.834396   124.345581
L   122.026779   124.906906
L   122.215103   125.478928
L   122.399384   126.061646
L   122.579605   126.655045
L   122.755768   127.259155
L   122.927902   127.873947
L   123.095978   128.499420
L   123.259995   129.135590
L   123.419968   129.782471
L   123.575897   130.440033
L   123.727783   131.108276
L   123.875595   131.787216
L   124.019379   132.476852
L   124.159088   133.177170
L   124.294769   133.888184
L   124.426392   134.609894
L   124.553970   135.342316
L   124.677490   136.085403
L   124.796967   136.839188
L   124.912399   137.603668
L   125.023773   138.378845
L   125.131104   139.164703
L   125.234375   139.961243
L   125.333603   140.768494
L   125.428772   141.586426
L   125.519897   142.415070
L   125.606979   143.254395
L   125.690002   144.104401
L   125.768982   144.965118
L   125.843903   145.836502
L   125.914764   146.718597
L   125.981598   147.611374
L   126.044373   148.514847
L   126.103088   149.429016
L   126.157776   150.353882
L   126.208405   151.289429
L   126.254974   152.235672
L   126.297501   153.192612
L   126.335968   154.160217
L   126.370407   155.138550
L   126.400772   156.127563
L   126.427094   157.127258
L   126.449387   158.137650
L   126.467590   159.158737
L   126.481766   160.190521
L   126.491898   161.232986
L   126.497986   162.286148
L   126.500000   163.350006
L   126.500000   430.649994
L   126.497986   431.713867
L   126.491898   432.767029
L   126.481766   433.809479
L   126.467590   434.841248
L   126.449387   435.862366
L   126.427094   436.872742
L   126.400772   437.872437
L   126.370407   438.861450
L   126.335968   439.839783
L   126.297501   440.807373
L   126.254974   441.764343
L   126.208405   442.710571
L   126.157776   443.646118
L   126.103088   444.570984
L   126.044373   445.485168
L   125.981598   446.388611
L   125.914764   447.281403
L   125.843903   448.163513
L   125.768982   449.034882
L   125.690002   449.895599
L   125.606979   450.745605
L   125.519897   451.584930
L   125.428772   452.413574
L   125.333603   453.231506
L   125.234375   454.038757
L   125.131104   454.835297
L   125.023773   455.621155
L   124.912399   456.396332
L   124.796967   457.160828
L   124.677490   457.914612
L   124.553970   458.657684
L   124.426392   459.390106
L   124.294769   460.111816
L   124.159088   460.822815
L   124.019379   461.523132
L   123.875595   462.212769
L   123.727783   462.891724
L   123.575897   463.559967
L   123.419968   464.217529
L   123.259995   464.864410
L   123.095978   465.500580
L   122.927902   466.126038
L   122.755768   466.740845
L   122.579605   467.344971
L   122.399384   467.938354
L   122.215103   468.521057
L   122.026779   469.093079
L   121.834396   469.654419
L   121.637970   470.205048
L   121.437500   470.744995
L   121.232986   471.274231
L   121.024414   471.792786
L   120.811783   472.300659
L   120.595093   472.797852
L   120.374374   473.284363
L   120.149597   473.760132
L   119.920776   474.225250
L   119.687881   474.679688
L   119.450974   475.123383
L   119.210007   475.556396
L   118.964966   475.978729
L   118.715897   476.390381
L   118.462769   476.791321
L   118.205597   477.181580
L   117.944382   477.561157
L   117.679108   477.929993
L   117.409775   478.288208
L   117.136398   478.635712
L   116.858978   478.972473
L   116.577484   479.298615
L   116.291977   479.614014
L   116.002396   479.918762
L   115.708771   480.212769
L   115.411087   480.496094
L   115.109375   480.768738
L   114.803604   481.030701
L   114.493774   481.281982
L   114.179916   481.522522
L   113.861984   481.752441
L   113.539993   481.971619
L   113.213974   482.180084
L   112.883896   482.377899
L   112.549774   482.565002
L   112.211578   482.741425
L   111.869370   482.907166
L   111.523102   483.062195
L   111.172791   483.206543
L   110.818405   483.340179
L   110.459991   483.463135
L   110.097519   483.575378
L   109.730972   483.677002
L   109.360397   483.767853
L   108.985779   483.848053
L   108.607101   483.917542
L   108.224380   483.976349
L   107.837601   484.024445
L   107.446762   484.061890
L   107.051895   484.088623
L   106.652969   484.104675
L   106.250000   484.109985
L    54.679993   484.109985
L    53.790802   484.156799
L    52.995178   484.297211
L    52.293198   484.531189
L    51.684784   484.858795
L    51.169998   485.279999
L    50.748795   485.794800
L    50.421204   486.403198
L    50.187164   487.105225
L    50.046814   487.900757
L    50.000000   488.789978
L    50.000000   535.320007
L    50.046799   536.209229
L    50.187195   537.004822
L    50.421204   537.706787
L    50.748810   538.315186
L    51.169998   538.830017
L    51.684784   539.251221
L    52.293198   539.578796
L    52.995178   539.812805
L    53.790802   539.953186
L    54.679993   540.000000
L   126.500000   540.000000
L   230.000000   540.000000
L   309.109985   540.000000
L   309.999207   539.953186
L   310.794800   539.812805
L   311.496796   539.578796
L   312.105225   539.251221
L   312.619995   538.830017
L   313.041199   538.315186
L   313.368774   537.706787
L   313.602783   537.004822
L   313.743195   536.209229
L   313.789978   535.320007
L   313.789978   488.789978
L   313.743164   487.900757
L   313.602844   487.105225
L   313.368774   486.403198
L   313.041199   485.794800
L   312.619995   485.279999
L   312.105225   484.858795
L   311.496796   484.531189
L   310.794800   484.297211
L   309.999207   484.156799
L   309.109985   484.109985
L   250.250000   484.109985
L   249.847031   484.104675
L   249.448105   484.088623
L   249.053238   484.061890
L   248.662399   484.024445
L   248.275620   483.976349
L   247.892899   483.917542
L   247.514221   483.848053
L   247.139603   483.767853
L   246.769028   483.677002
L   246.402481   483.575378
L   246.040009   483.463135
L   245.681595   483.340179
L   245.327209   483.206543
L   244.976898   483.062195
L   244.630630   482.907166
L   244.288422   482.741425
L   243.950226   482.565002
L   243.616104   482.377899
L   243.286026   482.180084
L   242.960007   481.971619
L   242.638016   481.752441
L   242.320084   481.522522
L   242.006226   481.281982
L   241.696396   481.030701
L   241.390625   480.768738
L   241.088913   480.496094
L   240.791229   480.212769
L   240.497604   479.918762
L   240.208023   479.614014
L   239.922516   479.298615
L   239.641022   478.972473
L   239.363602   478.635712
L   239.090225   478.288208
L   238.820892   477.929993
L   238.555618   477.561157
L   238.294403   477.181580
L   238.037231   476.791321
L   237.784103   476.390381
L   237.535034   475.978729
L   237.289993   475.556396
L   237.049026   475.123383
L   236.812119   474.679688
L   236.579224   474.225250
L   236.350403   473.760132
L   236.125626   473.284363
L   235.904907   472.797852
L   235.688217   472.300659
L   235.475586   471.792786
L   235.267014   471.274231
L   235.062500   470.744995
L   234.862030   470.205048
L   234.665604   469.654419
L   234.473221   469.093079
L   234.284897   468.521057
L   234.100616   467.938354
L   233.920395   467.344971
L   233.744232   466.740845
L   233.572098   466.126038
L   233.404022   465.500580
L   233.240005   464.864410
L   233.080032   464.217529
L   232.924103   463.559967
L   232.772217   462.891724
L   232.624405   462.212769
L   232.480621   461.523132
L   232.340912   460.822815
L   232.205231   460.111816
L   232.073608   459.390106
L   231.946030   458.657684
L   231.822510   457.914612
L   231.703033   457.160828
L   231.587601   456.396332
L   231.476227   455.621155
L   231.368896   454.835297
L   231.265625   454.038757
L   231.166397   453.231506
L   231.071228   452.413574
L   230.980103   451.584930
L   230.893021   450.745605
L   230.809998   449.895599
L   230.731018   449.034882
L   230.656097   448.163513
L   230.585236   447.281403
L   230.518402   446.388611
L   230.455627   445.485168
L   230.396912   444.570984
L   230.342224   443.646118
L   230.291595   442.710571
L   230.245026   441.764343
L   230.202499   440.807373
L   230.164032   439.839783
L   230.129593   438.861450
L   230.099228   437.872437
L   230.072906   436.872742
L   230.050613   435.862366
L   230.032410   434.841248
L   230.018234   433.809479
L   230.008102   432.767029
L   230.002014   431.713867
L   230.000000   430.649994 z
M    50.000000   567.000000
L    49.502502   566.997314
L    49.009979   566.989258
L    48.522491   566.975708
L    48.040009   566.956787
L    47.562500   566.932495
L    47.090012   566.902832
L    46.622498   566.867676
L    46.159988   566.827209
L    45.702499   566.781311
L    45.250015   566.729980
L    44.802521   566.673279
L    44.359985   566.611206
L    43.922485   566.543701
L    43.490005   566.470825
L    43.062500   566.392517
L    42.639984   566.308838
L    42.222488   566.219727
L    41.809998   566.125244
L    41.402512   566.025269
L    40.999985   565.920044
L    40.602509   565.809326
L    40.210007   565.693176
L    39.822510   565.571655
L    39.440002   565.444824
L    39.062500   565.312500
L    38.690002   565.174805
L    38.322495   565.031738
L    37.959991   564.883179
L    37.602509   564.729309
L    37.249969   564.570007
L    36.902496   564.405273
L    36.559998   564.235229
L    36.222519   564.059692
L    35.890015   563.878784
L    35.562515   563.692505
L    35.240021   563.500793
L    34.922501   563.303711
L    34.609985   563.101196
L    34.302490   562.893311
L    34.000000   562.679993
L    33.702484   562.461304
L    33.409973   562.237183
L    33.122482   562.007690
L    32.839996   561.772827
L    32.562500   561.532471
L    32.290009   561.286804
L    32.022522   561.035706
L    31.760010   560.779175
L    31.502518   560.517273
L    31.250000   560.250000
L    31.002502   559.977295
L    30.759979   559.699219
L    30.522507   559.415649
L    30.290009   559.126831
L    30.062500   558.832520
L    29.839996   558.532837
L    29.622498   558.227722
L    29.410004   557.917175
L    29.202499   557.601318
L    29.000000   557.280029
L    28.802490   556.953308
L    28.610001   556.621216
L    28.422516   556.283691
L    28.240005   555.940796
L    28.062500   555.592529
L    27.890015   555.238770
L    27.722488   554.879700
L    27.559998   554.515198
L    27.402496   554.145264
L    27.250000   553.770020
L    27.102493   553.389282
L    26.959991   553.003174
L    26.822510   552.611694
L    26.690002   552.214783
L    26.562500   551.812500
L    26.440002   551.404785
L    26.322495   550.991699
L    26.210022   550.573181
L    26.102509   550.149292
L    26.000000   549.719971
L    25.902512   549.285278
L    25.809998   548.845215
L    25.722488   548.399658
L    25.639984   547.948792
L    25.562500   547.492493
L    25.490005   547.030823
L    25.422485   546.563721
L    25.359985   546.091187
L    25.302505   545.613281
L    25.250000   545.130005
L    25.202484   544.641296
L    25.160004   544.147217
L    25.122513   543.647705
L    25.090012   543.142822
L    25.062500   542.632507
L    25.039993   542.116821
L    25.022491   541.595703
L    25.010010   541.069214
L    25.002502   540.537292
L    25.000000   540.000000
L    25.000000    54.000000
L    25.002487    53.462708
L    25.009995    52.930786
L    25.022491    52.404297
L    25.040009    51.883209
L    25.062500    51.367508
L    25.090012    50.857208
L    25.122513    50.352295
L    25.159988    49.852798
L    25.202499    49.358704
L    25.250015    48.870026
L    25.302505    48.386719
L    25.359985    47.908798
L    25.422485    47.436295
L    25.490005    46.969193
L    25.562500    46.507492
L    25.639984    46.051193
L    25.722488    45.600311
L    25.810013    45.154800
L    25.902512    44.714706
L    25.999985    44.279984
L    26.102493    43.850693
L    26.210022    43.426819
L    26.322510    43.008316
L    26.440002    42.595215
L    26.562500    42.187500
L    26.690002    41.785202
L    26.822495    41.388290
L    26.959976    40.996796
L    27.102493    40.610687
L    27.249969    40.229980
L    27.402496    39.854706
L    27.559998    39.484802
L    27.722504    39.120331
L    27.890030    38.761200
L    28.062515    38.407532
L    28.240021    38.059204
L    28.422501    37.716278
L    28.610001    37.378784
L    28.802490    37.046692
L    29.000000    36.720032
L    29.202499    36.398682
L    29.409973    36.082794
L    29.622482    35.772278
L    29.839996    35.467194
L    30.062500    35.167511
L    30.290009    34.873199
L    30.522507    34.584320
L    30.760010    34.300812
L    31.002533    34.022705
L    31.250000    33.750000
L    31.502502    33.482697
L    31.759995    33.220795
L    32.022491    32.964294
L    32.290009    32.713196
L    32.562500    32.467529
L    32.839996    32.227203
L    33.122498    31.992310
L    33.410004    31.762817
L    33.702499    31.538696
L    34.000000    31.320007
L    34.302490    31.106689
L    34.610001    30.898804
L    34.922516    30.696289
L    35.239990    30.499207
L    35.562500    30.307495
L    35.890015    30.121216
L    36.222488    29.940308
L    36.559998    29.764801
L    36.902496    29.594727
L    37.250000    29.429993
L    37.602509    29.270691
L    37.959991    29.116821
L    38.322510    28.968323
L    38.690002    28.825195
L    39.062500    28.687500
L    39.439987    28.555206
L    39.822495    28.428284
L    40.210007    28.306824
L    40.602509    28.190704
L    41.000000    28.080017
L    41.402496    27.974731
L    41.809998    27.874786
L    42.222504    27.780304
L    42.639984    27.691193
L    43.062485    27.607483
L    43.489990    27.529175
L    43.922501    27.456299
L    44.359985    27.388794
L    44.802505    27.326721
L    45.250000    27.270020
L    45.702484    27.218689
L    46.160004    27.172791
L    46.622513    27.132324
L    47.089996    27.097198
L    47.562500    27.067505
L    48.039993    27.043182
L    48.522491    27.024292
L    49.009995    27.010803
L    49.502502    27.002686
L    50.000000    27.000000
L   500.000000    27.000000
L   500.497498    27.002686
L   500.990021    27.010773
L   501.477509    27.024292
L   501.959991    27.043213
L   502.437500    27.067505
L   502.909973    27.097198
L   503.377502    27.132294
L   503.840027    27.172791
L   504.297485    27.218689
L   504.750000    27.270020
L   505.197479    27.326721
L   505.640015    27.388794
L   506.077515    27.456299
L   506.510010    27.529205
L   506.937500    27.607483
L   507.360016    27.691193
L   507.777527    27.780304
L   508.190002    27.874786
L   508.597473    27.974701
L   509.000000    28.079987
L   509.397491    28.190674
L   509.789978    28.306824
L   510.177490    28.428314
L   510.559998    28.555206
L   510.937500    28.687500
L   511.309998    28.825195
L   511.677490    28.968292
L   512.040039    29.116791
L   512.397461    29.270691
L   512.750000    29.429993
L   513.097534    29.594696
L   513.440002    29.764801
L   513.777466    29.940308
L   514.109985    30.121216
L   514.437500    30.307526
L   514.760010    30.499207
L   515.077515    30.696289
L   515.390015    30.898804
L   515.697510    31.106689
L   516.000000    31.320007
L   516.297485    31.538696
L   516.590027    31.762787
L   516.877502    31.992279
L   517.160034    32.227203
L   517.437500    32.467499
L   517.709961    32.713196
L   517.977478    32.964294
L   518.239990    33.220825
L   518.497498    33.482727
L   518.750000    33.750000
L   518.997498    34.022705
L   519.239990    34.300781
L   519.477478    34.584320
L   519.709961    34.873199
L   519.937500    35.167511
L   520.160034    35.467194
L   520.377502    35.772278
L   520.589966    36.082825
L   520.797485    36.398682
L   521.000000    36.720001
L   521.197510    37.046692
L   521.390015    37.378784
L   521.577515    37.716309
L   521.760010    38.059204
L   521.937500    38.407501
L   522.109985    38.761200
L   522.277527    39.120300
L   522.440002    39.484802
L   522.597534    39.854706
L   522.750000    40.230011
L   522.897522    40.610718
L   523.040039    40.996796
L   523.177490    41.388306
L   523.309998    41.785202
L   523.437500    42.187500
L   523.559998    42.595200
L   523.677490    43.008301
L   523.789978    43.426804
L   523.897461    43.850708
L   524.000000    44.279999
L   524.097473    44.714706
L   524.190002    45.154785
L   524.277527    45.600311
L   524.359985    46.051208
L   524.437500    46.507492
L   524.510010    46.969177
L   524.577515    47.436310
L   524.640015    47.908798
L   524.697510    48.386703
L   524.750000    48.869995
L   524.797485    49.358704
L   524.839966    49.852814
L   524.877502    50.352310
L   524.909973    50.857208
L   524.937500    51.367493
L   524.960022    51.883194
L   524.977539    52.404297
L   524.989990    52.930801
L   524.997498    53.462692
L   525.000000    54.000000
L   525.000000   540.000000
L   524.997498   540.537292
L   524.989990   541.069214
L   524.977539   541.595703
L   524.959961   542.116821
L   524.937500   542.632507
L   524.909973   543.142822
L   524.877502   543.647705
L   524.840027   544.147217
L   524.797485   544.641296
L   524.750000   545.130005
L   524.697510   545.613281
L   524.640015   546.091187
L   524.577515   546.563721
L   524.510010   547.030823
L   524.437500   547.492493
L   524.359985   547.948792
L   524.277527   548.399658
L   524.190002   548.845215
L   524.097473   549.285278
L   524.000000   549.720032
L   523.897522   550.149292
L   523.789978   550.573181
L   523.677490   550.991699
L   523.559998   551.404785
L   523.437500   551.812500
L   523.309998   552.214783
L   523.177490   552.611694
L   523.040039   553.003174
L   522.897522   553.389282
L   522.750000   553.770020
L   522.597534   554.145264
L   522.440002   554.515198
L   522.277466   554.879639
L   522.109985   555.238770
L   521.937500   555.592468
L   521.760010   555.940796
L   521.577515   556.283691
L   521.390015   556.621216
L   521.197510   556.953308
L   521.000000   557.279968
L   520.797485   557.601318
L   520.590027   557.917236
L   520.377502   558.227722
L   520.160034   558.532837
L   519.937500   558.832520
L   519.709961   559.126831
L   519.477478   559.415649
L   519.239990   559.699219
L   518.997437   559.977295
L   518.750000   560.250000
L   518.497498   560.517334
L   518.239990   560.779175
L   517.977539   561.035706
L   517.709961   561.286804
L   517.437500   561.532471
L   517.160034   561.772827
L   516.877502   562.007690
L   516.589966   562.237183
L   516.297485   562.461304
L   516.000000   562.679993
L   515.697510   562.893311
L   515.390015   563.101196
L   515.077515   563.303711
L   514.760010   563.500793
L   514.437500   563.692505
L   514.109985   563.878784
L   513.777527   564.059692
L   513.440002   564.235229
L   513.097534   564.405273
L   512.750000   564.570007
L   512.397461   564.729309
L   512.040039   564.883179
L   511.677490   565.031677
L   511.309998   565.174805
L   510.937500   565.312500
L   510.559998   565.444824
L   510.177490   565.571716
L   509.789978   565.693176
L   509.397491   565.809326
L   509.000000   565.919983
L   508.597504   566.025269
L   508.190002   566.125244
L   507.777496   566.219727
L   507.360016   566.308838
L   506.937500   566.392517
L   506.510010   566.470825
L   506.077515   566.543701
L   505.640015   566.611206
L   505.197510   566.673279
L   504.750000   566.729980
L   504.297516   566.781311
L   503.839996   566.827209
L   503.377502   566.867676
L   502.910004   566.902832
L   502.437500   566.932495
L   501.960022   566.956787
L   501.477509   566.975708
L   500.989990   566.989197
L   500.497498   566.997314
L   500.000000   567.000000 z
"
/>
</svg>
