<?xml version="1.0" encoding="utf-8" standalone="no" ?>
<svg
xmlns="http://www.w3.org/2000/svg"
x=".000000"
y=".000000"
width="563.200012"
height="563.200012"
>
<title>Fortran Logo</title>
<desc>Generated by Fortran Logo Generator</desc>
<pattern
id="diagonalFill"
width="9.000000"
height=".000000"
patternUnits="userSpaceOnUse"
patternTransform="rotate(45)"
>
<rect
x=".000000"
y=".000000"
width="4.000000"
height="1.000000"
fill="#6d5192"
/>
</pattern>
<line
stroke="#6d5192"
x1="95.600006"
y1="537.599976"
x2="95.600006"
y2="25.600006"
stroke-dasharray="2 2"
stroke-width="1.000000"
/>
<line
stroke="#6d5192"
x1="25.600006"
y1="481.600006"
x2="537.599976"
y2="481.600006"
stroke-dasharray="2 2"
stroke-width="1.000000"
/>
<line
stroke="#6d5192"
x1="132.800003"
y1="537.599976"
x2="132.800003"
y2="25.600006"
stroke-dasharray="2 2"
stroke-width="1.000000"
/>
<line
stroke="#6d5192"
x1="25.600006"
y1="435.600006"
x2="537.599976"
y2="435.600006"
stroke-dasharray="2 2"
stroke-width="1.000000"
/>
<line
stroke="#6d5192"
x1="155.120010"
y1="537.599976"
x2="155.120010"
y2="25.600006"
stroke-dasharray="2 2"
stroke-width="1.000000"
/>
<line
stroke="#6d5192"
x1="25.600006"
y1="415.600006"
x2="537.599976"
y2="415.600006"
stroke-dasharray="2 2"
stroke-width="1.000000"
/>
<line
stroke="#6d5192"
x1="467.600006"
y1="537.599976"
x2="467.600006"
y2="25.600006"
stroke-dasharray="2 2"
stroke-width="1.000000"
/>
<line
stroke="#6d5192"
x1="25.600006"
y1="81.600006"
x2="537.599976"
y2="81.600006"
stroke-dasharray="2 2"
stroke-width="1.000000"
/>
<line
stroke="#6d5192"
x1="421.100006"
y1="537.599976"
x2="421.100006"
y2="25.600006"
stroke-dasharray="2 2"
stroke-width="1.000000"
/>
<line
stroke="#6d5192"
x1="25.600006"
y1="247.600021"
x2="537.599976"
y2="247.600021"
stroke-dasharray="2 2"
stroke-width="1.000000"
/>
<line
stroke="#6d5192"
x1="354.140015"
y1="537.599976"
x2="354.140015"
y2="25.600006"
stroke-dasharray="2 2"
stroke-width="1.000000"
/>
<line
stroke="#6d5192"
x1="25.600006"
y1="127.600006"
x2="537.599976"
y2="127.600006"
stroke-dasharray="2 2"
stroke-width="1.000000"
/>
<line
stroke="#6d5192"
x1="268.580017"
y1="537.599976"
x2="268.580017"
y2="25.600006"
stroke-dasharray="2 2"
stroke-width="1.000000"
/>
<line
stroke="#6d5192"
x1="25.600006"
y1="247.600021"
x2="537.599976"
y2="247.600021"
stroke-dasharray="2 2"
stroke-width="1.000000"
/>
<line
stroke="#6d5192"
x1="315.080017"
y1="537.599976"
x2="315.080017"
y2="25.600006"
stroke-dasharray="2 2"
stroke-width="1.000000"
/>
<line
stroke="#6d5192"
x1="25.600006"
y1="185.600006"
x2="537.599976"
y2="185.600006"
stroke-dasharray="2 2"
stroke-width="1.000000"
/>
<line
stroke="#6d5192"
x1="361.579987"
y1="537.599976"
x2="361.579987"
y2="25.600006"
stroke-dasharray="2 2"
stroke-width="1.000000"
/>
<line
stroke="#6d5192"
x1="25.600006"
y1="165.600006"
x2="537.599976"
y2="165.600006"
stroke-dasharray="2 2"
stroke-width="1.000000"
/>
<line
stroke="#6d5192"
x1="199.016006"
y1="537.599976"
x2="199.016006"
y2="25.600006"
stroke-dasharray="2 2"
stroke-width="1.000000"
/>
<line
stroke="#6d5192"
x1="25.600006"
y1="271.600037"
x2="537.599976"
y2="271.600037"
stroke-dasharray="2 2"
stroke-width="1.000000"
/>
<line
stroke="#6d5192"
x1="25.600006"
y1="537.599976"
x2="25.600006"
y2="25.600006"
stroke-dasharray="2 2"
stroke-width="1.000000"
/>
<line
stroke="#6d5192"
x1="25.600006"
y1="25.600006"
x2="537.599976"
y2="25.600006"
stroke-dasharray="2 2"
stroke-width="1.000000"
/>
<line
stroke="#6d5192"
x1="537.599976"
y1="25.600006"
x2="537.599976"
y2="537.599976"
stroke-dasharray="2 2"
stroke-width="1.000000"
/>
<line
stroke="#6d5192"
x1="537.599976"
y1="537.599976"
x2="25.600006"
y2="537.599976"
stroke-dasharray="2 2"
stroke-width="1.000000"
/>
<path
fill="url(#diagonalFill)"
stroke="#6d5192"
stroke-width="2.000000"
d="
M   242.912003   299.460022
L   243.066406   298.070435
L   243.529602   296.989624
L   244.301605   296.217621
L   245.382401   295.754425
L   246.772003   295.600037
L   268.580017   295.600037
L   273.113739   295.755035
L   277.415009   296.220032
L   281.483765   296.995026
L   285.320007   298.080017
L   288.923767   299.475037
L   292.295013   301.180023
L   295.433746   303.195007
L   298.339996   305.520020
L   301.013763   308.155029
L   303.455017   311.100037
L   305.663757   314.355042
L   307.640015   317.920044
L   309.383759   321.795044
L   310.894989   325.980042
L   312.173767   330.475037
L   313.220001   335.280029
L   314.033752   340.395020
L   314.614990   345.820038
L   314.963745   351.555054
L   315.080017   357.600037
L   315.080017   373.740051
L   315.234406   375.129639
L   315.697601   376.210449
L   316.469604   376.982422
L   317.550415   377.445648
L   318.940002   377.600037
L   357.719971   377.600037
L   359.109589   377.445648
L   360.190399   376.982422
L   360.962402   376.210449
L   361.425598   375.129639
L   361.579987   373.740051
L   361.579987   180.660004
L   361.425598   179.270401
L   360.962402   178.189606
L   360.190399   177.417603
L   359.109589   176.954391
L   357.719971   176.800003
L   318.940002   176.800003
L   317.550415   176.954407
L   316.469604   177.417603
L   315.697601   178.189606
L   315.234406   179.270401
L   315.080017   180.660004
L   315.080017   185.600006
L   314.963745   191.645004
L   314.614990   197.380005
L   314.033752   202.805008
L   313.220001   207.920013
L   312.173767   212.725006
L   310.894989   217.220016
L   309.383759   221.405014
L   307.640015   225.280014
L   305.663757   228.845016
L   303.455017   232.100021
L   301.013763   235.045013
L   298.339996   237.680023
L   295.433746   240.005020
L   292.295013   242.020020
L   288.923767   243.725021
L   285.320007   245.120026
L   281.483765   246.205017
L   277.415009   246.980026
L   273.113739   247.445023
L   268.580017   247.600021
L   246.772003   247.600021
L   245.382401   247.445618
L   244.301605   246.982422
L   243.529602   246.210419
L   243.066406   245.129608
L   242.912003   243.740021
L   242.912003   131.460007
L   243.066406   130.070404
L   243.529602   128.989609
L   244.301605   128.217590
L   245.382401   127.754395
L   246.772003   127.600006
L   354.140015   127.600006
L   360.668610   127.890350
L   366.862427   128.761398
L   372.721405   130.213165
L   378.245605   132.245605
L   383.434998   134.858765
L   388.289612   138.052612
L   392.809387   141.827148
L   396.994415   146.182404
L   400.844604   151.118347
L   404.360016   156.635010
L   407.540588   162.732361
L   410.386414   169.410400
L   412.897400   176.669159
L   415.073608   184.508606
L   416.915009   192.928772
L   418.421631   201.929611
L   419.593445   211.511169
L   420.430420   221.673416
L   420.932617   232.416367
L   421.100006   243.740021
L   421.100006   243.740021
L   421.254395   245.129623
L   421.717590   246.210419
L   422.489624   246.982422
L   423.570435   247.445618
L   424.960022   247.600021
L   463.739990   247.600021
L   465.129608   247.445618
L   466.210388   246.982422
L   466.982422   246.210419
L   467.445618   245.129608
L   467.600006   243.740021
L   467.600006    85.460007
L   467.445618    84.070404
L   466.982391    82.989594
L   466.210419    82.217606
L   465.129639    81.754379
L   463.739990    81.600006
L   155.120010    81.600006
L    99.460007    81.600006
L    98.070389    81.754379
L    96.989594    82.217606
L    96.217621    82.989594
L    95.754395    84.070404
L    95.600006    85.460007
L    95.600006   123.740005
L    95.754395   125.129593
L    96.217590   126.210403
L    96.989609   126.982407
L    98.070404   127.445602
L    99.460007   127.600006
L   132.800003   127.600006
L   134.976227   127.649994
L   137.040817   127.800018
L   138.993805   128.050003
L   140.835190   128.399994
L   142.565002   128.850006
L   144.183212   129.400009
L   145.689804   130.050018
L   147.084808   130.799988
L   148.368225   131.650024
L   149.540009   132.600006
L   150.600220   133.650009
L   151.548813   134.800003
L   152.385803   136.050003
L   153.111206   137.400009
L   153.725006   138.850006
L   154.227203   140.399994
L   154.617813   142.050018
L   154.896805   143.800003
L   155.064209   145.650009
L   155.120010   147.600006
L   155.120010   415.600006
L   155.064209   417.549988
L   154.896805   419.400024
L   154.617813   421.149994
L   154.227203   422.800018
L   153.725006   424.350006
L   153.111206   425.799988
L   152.385803   427.150024
L   151.548813   428.400024
L   150.600220   429.549988
L   149.540009   430.600006
L   148.368225   431.549988
L   147.084808   432.400024
L   145.689804   433.149994
L   144.183212   433.799988
L   142.565002   434.350006
L   140.835190   434.800018
L   138.993805   435.150024
L   137.040817   435.399994
L   134.976227   435.550018
L   132.800003   435.600006
L    99.460007   435.600006
L    98.070404   435.754395
L    96.989609   436.217590
L    96.217590   436.989624
L    95.754395   438.070435
L    95.600006   439.460022
L    95.600006   477.739990
L    95.754395   479.129608
L    96.217621   480.210419
L    96.989594   480.982422
L    98.070389   481.445618
L    99.460007   481.600006
L   155.120010   481.600006
L   242.912003   481.600006
L   304.971985   481.600006
L   306.361633   481.445618
L   307.442413   480.982422
L   308.214386   480.210419
L   308.677612   479.129608
L   308.832001   477.739990
L   308.832001   439.460022
L   308.677612   438.070435
L   308.214417   436.989624
L   307.442383   436.217590
L   306.361603   435.754395
L   304.971985   435.600006
L   265.231995   435.600006
L   263.055786   435.550018
L   260.991211   435.399994
L   259.038208   435.150024
L   257.196838   434.800018
L   255.467010   434.350006
L   253.848801   433.799988
L   252.342209   433.149994
L   250.947205   432.400024
L   249.663788   431.549988
L   248.492004   430.600006
L   247.431793   429.549988
L   246.483200   428.400024
L   245.646210   427.150024
L   244.920807   425.799988
L   244.307007   424.350006
L   243.804810   422.800018
L   243.414200   421.149994
L   243.135208   419.400024
L   242.967804   417.549988
L   242.912003   415.600006 z
M   135.600006   537.599976
L   124.875015   537.325012
L   114.700012   536.500000
L   105.074997   535.125000
L    95.999985   533.200012
L    87.475006   530.724976
L    79.500000   527.700012
L    72.075012   524.125000
L    65.199997   520.000000
L    58.875031   515.324951
L    53.100006   510.100006
L    47.875000   504.325012
L    43.200012   498.000000
L    39.075012   491.125000
L    35.500000   483.700012
L    32.475006   475.725006
L    30.000000   467.200012
L    28.075012   458.125000
L    26.700012   448.500000
L    25.875000   438.325012
L    25.600006   427.600006
L    25.600006   135.600006
L    25.875015   124.875015
L    26.700012   114.700012
L    28.074982   105.074997
L    30.000000    95.999985
L    32.475006    87.475006
L    35.500015    79.500000
L    39.075027    72.075012
L    43.199997    65.199997
L    47.875031    58.875031
L    53.100006    53.100006
L    58.875000    47.875000
L    65.200012    43.200012
L    72.075012    39.075012
L    79.500015    35.500000
L    87.475006    32.475006
L    96.000000    30.000000
L   105.075012    28.075012
L   114.700012    26.700012
L   124.875000    25.875000
L   135.600006    25.600006
L   427.600006    25.600006
L   438.325012    25.875015
L   448.500000    26.700012
L   458.125000    28.074982
L   467.200012    30.000000
L   475.725006    32.475006
L   483.700012    35.500015
L   491.125000    39.075027
L   498.000000    43.199997
L   504.324982    47.875031
L   510.100006    53.100006
L   515.325012    58.875000
L   520.000000    65.200012
L   524.125000    72.075012
L   527.700012    79.500015
L   530.724976    87.475006
L   533.200012    96.000000
L   535.125000   105.075012
L   536.500000   114.700012
L   537.325012   124.875000
L   537.599976   135.600006
L   537.599976   427.600006
L   537.325012   438.325012
L   536.500000   448.500000
L   535.125000   458.125000
L   533.200012   467.200012
L   530.724976   475.725006
L   527.700012   483.700012
L   524.125000   491.125000
L   520.000000   498.000000
L   515.324951   504.324982
L   510.100006   510.100006
L   504.325012   515.325012
L   498.000000   520.000000
L   491.125000   524.125000
L   483.700012   527.700012
L   475.725006   530.724976
L   467.200012   533.200012
L   458.125000   535.125000
L   448.500000   536.500000
L   438.325012   537.325012
L   427.600006   537.599976 z
"
/>
<circle
fill="none"
stroke="#6d5192"
cx="155.120010"
cy="481.600006"
r="5.000000"
/>
<circle
fill="none"
stroke="#6d5192"
cx="95.600006"
cy="481.600006"
r="5.000000"
/>
<circle
fill="none"
stroke="#6d5192"
cx="95.600006"
cy="435.600006"
r="5.000000"
/>
<circle
fill="none"
stroke="#6d5192"
cx="132.800003"
cy="435.600006"
r="5.000000"
/>
<circle
fill="none"
stroke="#6d5192"
cx="155.120010"
cy="435.600006"
r="5.000000"
/>
<circle
fill="none"
stroke="#6d5192"
cx="155.120010"
cy="415.600006"
r="5.000000"
/>
<circle
fill="none"
stroke="#6d5192"
cx="467.600006"
cy="81.600006"
r="5.000000"
/>
<circle
fill="none"
stroke="#6d5192"
cx="467.600006"
cy="247.600021"
r="5.000000"
/>
<circle
fill="none"
stroke="#6d5192"
cx="421.100006"
cy="247.600021"
r="5.000000"
/>
<circle
fill="none"
stroke="#6d5192"
cx="421.100006"
cy="127.600006"
r="5.000000"
/>
<circle
fill="none"
stroke="#6d5192"
cx="354.140015"
cy="127.600006"
r="5.000000"
/>
<circle
fill="none"
stroke="#6d5192"
cx="242.912003"
cy="127.600006"
r="5.000000"
/>
<circle
fill="none"
stroke="#6d5192"
cx="242.912003"
cy="247.600021"
r="5.000000"
/>
<circle
fill="none"
stroke="#6d5192"
cx="268.580017"
cy="247.600021"
r="5.000000"
/>
<circle
fill="none"
stroke="#6d5192"
cx="315.080017"
cy="247.600021"
r="5.000000"
/>
<circle
fill="none"
stroke="#6d5192"
cx="315.080017"
cy="185.600006"
r="5.000000"
/>
<circle
fill="none"
stroke="#6d5192"
cx="315.080017"
cy="165.600006"
r="5.000000"
/>
<circle
fill="none"
stroke="#6d5192"
cx="361.579987"
cy="165.600006"
r="5.000000"
/>
<circle
fill="none"
stroke="#6d5192"
cx="135.600006"
cy="537.599976"
r="5.000000"
/>
<circle
fill="none"
stroke="#6d5192"
cx="25.600006"
cy="537.599976"
r="5.000000"
/>
<circle
fill="none"
stroke="#6d5192"
cx="25.600006"
cy="427.600006"
r="5.000000"
/>
<circle
fill="none"
stroke="#6d5192"
cx="25.600006"
cy="135.600006"
r="5.000000"
/>
<circle
fill="none"
stroke="#6d5192"
cx="25.600006"
cy="25.600006"
r="5.000000"
/>
<circle
fill="none"
stroke="#6d5192"
cx="135.600006"
cy="25.600006"
r="5.000000"
/>
<circle
fill="none"
stroke="#6d5192"
cx="427.600006"
cy="25.600006"
r="5.000000"
/>
<circle
fill="none"
stroke="#6d5192"
cx="537.599976"
cy="25.600006"
r="5.000000"
/>
<circle
fill="none"
stroke="#6d5192"
cx="537.599976"
cy="135.600006"
r="5.000000"
/>
<circle
fill="none"
stroke="#6d5192"
cx="537.599976"
cy="427.600006"
r="5.000000"
/>
<circle
fill="none"
stroke="#6d5192"
cx="537.599976"
cy="537.599976"
r="5.000000"
/>
<circle
fill="none"
stroke="#6d5192"
cx="427.600006"
cy="537.599976"
r="5.000000"
/>
<circle
fill="none"
stroke="#6d5192"
cx="199.016006"
cy="271.600037"
r="5.000000"
/>
<text
x="163.165726"
y="473.554291"
text-anchor="start"
alignment-baseline="central"
fill="#6d5192"
font-size="100%"
font-family="Cascadia Code"
transform="rotate(.000000)"
>
1
</text>
<text
x="103.645721"
y="473.554291"
text-anchor="start"
alignment-baseline="central"
fill="#6d5192"
font-size="100%"
font-family="Cascadia Code"
transform="rotate(.000000)"
>
2
</text>
<text
x="103.645721"
y="427.554291"
text-anchor="start"
alignment-baseline="central"
fill="#6d5192"
font-size="100%"
font-family="Cascadia Code"
transform="rotate(.000000)"
>
3
</text>
<text
x="140.845718"
y="427.554291"
text-anchor="start"
alignment-baseline="central"
fill="#6d5192"
font-size="100%"
font-family="Cascadia Code"
transform="rotate(.000000)"
>
4
</text>
<text
x="163.165726"
y="427.554291"
text-anchor="start"
alignment-baseline="central"
fill="#6d5192"
font-size="100%"
font-family="Cascadia Code"
transform="rotate(.000000)"
>
5
</text>
<text
x="163.165726"
y="407.554291"
text-anchor="start"
alignment-baseline="central"
fill="#6d5192"
font-size="100%"
font-family="Cascadia Code"
transform="rotate(.000000)"
>
6
</text>
<text
x="475.645721"
y="73.554291"
text-anchor="start"
alignment-baseline="central"
fill="#6d5192"
font-size="100%"
font-family="Cascadia Code"
transform="rotate(.000000)"
>
7
</text>
<text
x="475.645721"
y="239.554306"
text-anchor="start"
alignment-baseline="central"
fill="#6d5192"
font-size="100%"
font-family="Cascadia Code"
transform="rotate(.000000)"
>
8
</text>
<text
x="429.145721"
y="239.554306"
text-anchor="start"
alignment-baseline="central"
fill="#6d5192"
font-size="100%"
font-family="Cascadia Code"
transform="rotate(.000000)"
>
9
</text>
<text
x="429.145721"
y="119.554291"
text-anchor="start"
alignment-baseline="central"
fill="#6d5192"
font-size="100%"
font-family="Cascadia Code"
transform="rotate(.000000)"
>
10
</text>
<text
x="362.185730"
y="119.554291"
text-anchor="start"
alignment-baseline="central"
fill="#6d5192"
font-size="100%"
font-family="Cascadia Code"
transform="rotate(.000000)"
>
11
</text>
<text
x="250.957718"
y="119.554291"
text-anchor="start"
alignment-baseline="central"
fill="#6d5192"
font-size="100%"
font-family="Cascadia Code"
transform="rotate(.000000)"
>
12
</text>
<text
x="250.957718"
y="239.554306"
text-anchor="start"
alignment-baseline="central"
fill="#6d5192"
font-size="100%"
font-family="Cascadia Code"
transform="rotate(.000000)"
>
13
</text>
<text
x="276.625732"
y="239.554306"
text-anchor="start"
alignment-baseline="central"
fill="#6d5192"
font-size="100%"
font-family="Cascadia Code"
transform="rotate(.000000)"
>
14
</text>
<text
x="323.125732"
y="239.554306"
text-anchor="start"
alignment-baseline="central"
fill="#6d5192"
font-size="100%"
font-family="Cascadia Code"
transform="rotate(.000000)"
>
15
</text>
<text
x="323.125732"
y="177.554291"
text-anchor="start"
alignment-baseline="central"
fill="#6d5192"
font-size="100%"
font-family="Cascadia Code"
transform="rotate(.000000)"
>
16
</text>
<text
x="323.125732"
y="157.554291"
text-anchor="start"
alignment-baseline="central"
fill="#6d5192"
font-size="100%"
font-family="Cascadia Code"
transform="rotate(.000000)"
>
17
</text>
<text
x="369.625702"
y="157.554291"
text-anchor="start"
alignment-baseline="central"
fill="#6d5192"
font-size="100%"
font-family="Cascadia Code"
transform="rotate(.000000)"
>
18
</text>
<text
x="143.645721"
y="529.554260"
text-anchor="start"
alignment-baseline="central"
fill="#6d5192"
font-size="100%"
font-family="Cascadia Code"
transform="rotate(.000000)"
>
A
</text>
<text
x="33.645721"
y="529.554260"
text-anchor="start"
alignment-baseline="central"
fill="#6d5192"
font-size="100%"
font-family="Cascadia Code"
transform="rotate(.000000)"
>
B
</text>
<text
x="33.645721"
y="419.554291"
text-anchor="start"
alignment-baseline="central"
fill="#6d5192"
font-size="100%"
font-family="Cascadia Code"
transform="rotate(.000000)"
>
C
</text>
<text
x="33.645721"
y="127.554291"
text-anchor="start"
alignment-baseline="central"
fill="#6d5192"
font-size="100%"
font-family="Cascadia Code"
transform="rotate(.000000)"
>
D
</text>
<text
x="33.645721"
y="17.554291"
text-anchor="start"
alignment-baseline="central"
fill="#6d5192"
font-size="100%"
font-family="Cascadia Code"
transform="rotate(.000000)"
>
E
</text>
<text
x="143.645721"
y="17.554291"
text-anchor="start"
alignment-baseline="central"
fill="#6d5192"
font-size="100%"
font-family="Cascadia Code"
transform="rotate(.000000)"
>
F
</text>
<text
x="435.645721"
y="17.554291"
text-anchor="start"
alignment-baseline="central"
fill="#6d5192"
font-size="100%"
font-family="Cascadia Code"
transform="rotate(.000000)"
>
G
</text>
<text
x="545.645691"
y="17.554291"
text-anchor="start"
alignment-baseline="central"
fill="#6d5192"
font-size="100%"
font-family="Cascadia Code"
transform="rotate(.000000)"
>
H
</text>
<text
x="545.645691"
y="127.554291"
text-anchor="start"
alignment-baseline="central"
fill="#6d5192"
font-size="100%"
font-family="Cascadia Code"
transform="rotate(.000000)"
>
I
</text>
<text
x="545.645691"
y="419.554291"
text-anchor="start"
alignment-baseline="central"
fill="#6d5192"
font-size="100%"
font-family="Cascadia Code"
transform="rotate(.000000)"
>
J
</text>
<text
x="545.645691"
y="529.554260"
text-anchor="start"
alignment-baseline="central"
fill="#6d5192"
font-size="100%"
font-family="Cascadia Code"
transform="rotate(.000000)"
>
K
</text>
<text
x="435.645721"
y="529.554260"
text-anchor="start"
alignment-baseline="central"
fill="#6d5192"
font-size="100%"
font-family="Cascadia Code"
transform="rotate(.000000)"
>
L
</text>
<text
x="207.061722"
y="263.554321"
text-anchor="start"
alignment-baseline="central"
fill="#6d5192"
font-size="100%"
font-family="Cascadia Code"
transform="rotate(.000000)"
>
R
</text>
</svg>
